ISO-10303-21;
HEADER;
/* Generated by software containing ST-Developer
 * from STEP Tools, Inc. (www.steptools.com) 
 */
/* OPTION: using custom renumber hook */

FILE_DESCRIPTION(
/* description */ ('STEP AP242 Edition 2',
'CAx-IF Rec.Pracs.---Representation and Presentation of Product Manufa
cturing Information (PMI)---4.0---2014-10-13',
'CAx-IF Rec.Pracs.---3D Tessellated Geometry---0.4---2014-09-14','2;1',
'CAx-IF Rec.Pracs.---User Defined Attributes---1.5---2016-08-15'),
/* implementation_level */ '2;1');

FILE_NAME(
/* name */ 'Thymio Case V2 - RaspberryPi Container',
/* time_stamp */ '2026-08-06T07:12:38Z',
/* author */ (''),
/* organization */ (''),
/* preprocessor_version */ 'ST-DEVELOPER v20',
/* originating_system */ 'ONSHAPE BY PTC INC, 1.218',
/* authorisation */ '  ');

FILE_SCHEMA (('AP242_MANAGED_MODEL_BASED_3D_ENGINEERING_MIM_LF { 1 0 10303 442 3 1 4 }'));
ENDSEC;

DATA;
#10=SHAPE_REPRESENTATION_RELATIONSHIP('','',#1063,#11);
#11=ADVANCED_BREP_SHAPE_REPRESENTATION('',(#1061),#1845);
#12=TOROIDAL_SURFACE('',#1182,0.00325,0.00125);
#13=TOROIDAL_SURFACE('',#1186,0.00325,0.00125);
#14=TOROIDAL_SURFACE('',#1190,0.0035,0.001);
#15=TOROIDAL_SURFACE('',#1191,0.0035,0.001);
#16=TOROIDAL_SURFACE('',#1192,0.0035,0.001);
#17=TOROIDAL_SURFACE('',#1193,0.0035,0.001);
#18=TOROIDAL_SURFACE('',#1194,0.00325,0.001);
#19=TOROIDAL_SURFACE('',#1195,0.00325,0.001);
#20=TOROIDAL_SURFACE('',#1196,0.00325,0.001);
#21=TOROIDAL_SURFACE('',#1197,0.00325,0.001);
#22=B_SPLINE_CURVE_WITH_KNOTS('',3,(#1804,#1805,#1806,#1807,#1808),
 .UNSPECIFIED.,.F.,.F.,(4,1,4),(0.,0.00136122956464204,0.00272245912928407),
 .UNSPECIFIED.);
#23=B_SPLINE_CURVE_WITH_KNOTS('',3,(#1814,#1815,#1816,#1817,#1818),
 .UNSPECIFIED.,.F.,.F.,(4,1,4),(0.,0.00136122956464202,0.00272245912928403),
 .UNSPECIFIED.);
#24=SPHERICAL_SURFACE('',#1160,0.002);
#25=SPHERICAL_SURFACE('',#1166,0.002);
#26=ELLIPSE('',#1151,0.00282842712474619,0.002);
#27=ELLIPSE('',#1154,0.00282842712474619,0.002);
#28=VERTEX_LOOP('',#624);
#29=VERTEX_LOOP('',#627);
#30=VERTEX_LOOP('',#630);
#31=VERTEX_LOOP('',#633);
#32=CONICAL_SURFACE('',#1134,0.0025,0.785398163397448);
#33=CONICAL_SURFACE('',#1138,0.0025,0.785398163397448);
#34=CONICAL_SURFACE('',#1142,0.0025,0.785398163397448);
#35=CONICAL_SURFACE('',#1146,0.0025,0.785398163397448);
#36=CYLINDRICAL_SURFACE('',#1105,0.00225);
#37=CYLINDRICAL_SURFACE('',#1109,0.00225);
#38=CYLINDRICAL_SURFACE('',#1113,0.00225);
#39=CYLINDRICAL_SURFACE('',#1117,0.00225);
#40=CYLINDRICAL_SURFACE('',#1136,0.0025);
#41=CYLINDRICAL_SURFACE('',#1140,0.0025);
#42=CYLINDRICAL_SURFACE('',#1144,0.0025);
#43=CYLINDRICAL_SURFACE('',#1148,0.0025);
#44=CYLINDRICAL_SURFACE('',#1150,0.002);
#45=CYLINDRICAL_SURFACE('',#1152,0.002);
#46=CYLINDRICAL_SURFACE('',#1153,0.002);
#47=CYLINDRICAL_SURFACE('',#1155,0.002);
#48=CYLINDRICAL_SURFACE('',#1156,0.002);
#49=CYLINDRICAL_SURFACE('',#1158,0.002);
#50=CYLINDRICAL_SURFACE('',#1162,0.002);
#51=CYLINDRICAL_SURFACE('',#1164,0.002);
#52=CYLINDRICAL_SURFACE('',#1168,0.002);
#53=CYLINDRICAL_SURFACE('',#1169,0.002);
#54=CYLINDRICAL_SURFACE('',#1170,0.002);
#55=CYLINDRICAL_SURFACE('',#1172,0.002);
#56=CYLINDRICAL_SURFACE('',#1174,0.002);
#57=CYLINDRICAL_SURFACE('',#1175,0.002);
#58=CYLINDRICAL_SURFACE('',#1176,0.002);
#59=CYLINDRICAL_SURFACE('',#1177,0.002);
#60=CYLINDRICAL_SURFACE('',#1178,0.002);
#61=CYLINDRICAL_SURFACE('',#1179,0.00125);
#62=CYLINDRICAL_SURFACE('',#1180,0.00125);
#63=CYLINDRICAL_SURFACE('',#1184,0.00125);
#64=CYLINDRICAL_SURFACE('',#1188,0.00125);
#65=CYLINDRICAL_SURFACE('',#1189,0.00125);
#66=CIRCLE('',#1067,0.00325);
#67=CIRCLE('',#1068,0.00325);
#68=CIRCLE('',#1069,0.00325);
#69=CIRCLE('',#1070,0.00325);
#70=CIRCLE('',#1071,0.002);
#71=CIRCLE('',#1072,0.002);
#72=CIRCLE('',#1073,0.002);
#73=CIRCLE('',#1074,0.002);
#74=CIRCLE('',#1075,0.00125);
#75=CIRCLE('',#1076,0.00125);
#76=CIRCLE('',#1077,0.002);
#77=CIRCLE('',#1078,0.002);
#78=CIRCLE('',#1079,0.002);
#79=CIRCLE('',#1080,0.002);
#80=CIRCLE('',#1081,0.00125);
#81=CIRCLE('',#1082,0.00125);
#82=CIRCLE('',#1084,0.002);
#83=CIRCLE('',#1085,0.002);
#84=CIRCLE('',#1086,0.002);
#85=CIRCLE('',#1087,0.002);
#86=CIRCLE('',#1089,0.00325);
#87=CIRCLE('',#1090,0.00325);
#88=CIRCLE('',#1095,0.002);
#89=CIRCLE('',#1096,0.002);
#90=CIRCLE('',#1097,0.002);
#91=CIRCLE('',#1098,0.002);
#92=CIRCLE('',#1106,0.00225);
#93=CIRCLE('',#1107,0.00225);
#94=CIRCLE('',#1110,0.00225);
#95=CIRCLE('',#1111,0.00225);
#96=CIRCLE('',#1114,0.00225);
#97=CIRCLE('',#1115,0.00225);
#98=CIRCLE('',#1118,0.00225);
#99=CIRCLE('',#1119,0.00225);
#100=CIRCLE('',#1122,0.0035);
#101=CIRCLE('',#1123,0.0035);
#102=CIRCLE('',#1124,0.0035);
#103=CIRCLE('',#1125,0.0035);
#104=CIRCLE('',#1126,0.002);
#105=CIRCLE('',#1127,0.002);
#106=CIRCLE('',#1128,0.002);
#107=CIRCLE('',#1129,0.002);
#108=CIRCLE('',#1132,0.002);
#109=CIRCLE('',#1133,0.002);
#110=CIRCLE('',#1135,0.0025);
#111=CIRCLE('',#1137,0.0025);
#112=CIRCLE('',#1139,0.0025);
#113=CIRCLE('',#1141,0.0025);
#114=CIRCLE('',#1143,0.0025);
#115=CIRCLE('',#1145,0.0025);
#116=CIRCLE('',#1147,0.0025);
#117=CIRCLE('',#1149,0.0025);
#118=CIRCLE('',#1157,0.002);
#119=CIRCLE('',#1159,0.002);
#120=CIRCLE('',#1161,0.002);
#121=CIRCLE('',#1163,0.002);
#122=CIRCLE('',#1165,0.002);
#123=CIRCLE('',#1167,0.002);
#124=CIRCLE('',#1171,0.002);
#125=CIRCLE('',#1173,0.002);
#126=CIRCLE('',#1181,0.00125);
#127=CIRCLE('',#1183,0.00125);
#128=CIRCLE('',#1185,0.00125);
#129=CIRCLE('',#1187,0.00125);
#130=ORIENTED_EDGE('',*,*,#402,.T.);
#131=ORIENTED_EDGE('',*,*,#403,.T.);
#132=ORIENTED_EDGE('',*,*,#404,.F.);
#133=ORIENTED_EDGE('',*,*,#405,.T.);
#134=ORIENTED_EDGE('',*,*,#406,.T.);
#135=ORIENTED_EDGE('',*,*,#407,.T.);
#136=ORIENTED_EDGE('',*,*,#408,.T.);
#137=ORIENTED_EDGE('',*,*,#409,.T.);
#138=ORIENTED_EDGE('',*,*,#410,.F.);
#139=ORIENTED_EDGE('',*,*,#411,.T.);
#140=ORIENTED_EDGE('',*,*,#412,.F.);
#141=ORIENTED_EDGE('',*,*,#413,.T.);
#142=ORIENTED_EDGE('',*,*,#414,.T.);
#143=ORIENTED_EDGE('',*,*,#415,.T.);
#144=ORIENTED_EDGE('',*,*,#416,.T.);
#145=ORIENTED_EDGE('',*,*,#417,.T.);
#146=ORIENTED_EDGE('',*,*,#418,.F.);
#147=ORIENTED_EDGE('',*,*,#419,.T.);
#148=ORIENTED_EDGE('',*,*,#420,.T.);
#149=ORIENTED_EDGE('',*,*,#421,.T.);
#150=ORIENTED_EDGE('',*,*,#422,.T.);
#151=ORIENTED_EDGE('',*,*,#423,.T.);
#152=ORIENTED_EDGE('',*,*,#424,.T.);
#153=ORIENTED_EDGE('',*,*,#425,.F.);
#154=ORIENTED_EDGE('',*,*,#426,.T.);
#155=ORIENTED_EDGE('',*,*,#427,.F.);
#156=ORIENTED_EDGE('',*,*,#428,.T.);
#157=ORIENTED_EDGE('',*,*,#429,.T.);
#158=ORIENTED_EDGE('',*,*,#430,.T.);
#159=ORIENTED_EDGE('',*,*,#431,.T.);
#160=ORIENTED_EDGE('',*,*,#432,.F.);
#161=ORIENTED_EDGE('',*,*,#433,.T.);
#162=ORIENTED_EDGE('',*,*,#434,.T.);
#163=ORIENTED_EDGE('',*,*,#435,.T.);
#164=ORIENTED_EDGE('',*,*,#436,.T.);
#165=ORIENTED_EDGE('',*,*,#437,.T.);
#166=ORIENTED_EDGE('',*,*,#438,.F.);
#167=ORIENTED_EDGE('',*,*,#439,.T.);
#168=ORIENTED_EDGE('',*,*,#440,.F.);
#169=ORIENTED_EDGE('',*,*,#441,.T.);
#170=ORIENTED_EDGE('',*,*,#410,.T.);
#171=ORIENTED_EDGE('',*,*,#442,.T.);
#172=ORIENTED_EDGE('',*,*,#421,.F.);
#173=ORIENTED_EDGE('',*,*,#443,.T.);
#174=ORIENTED_EDGE('',*,*,#444,.T.);
#175=ORIENTED_EDGE('',*,*,#445,.T.);
#176=ORIENTED_EDGE('',*,*,#446,.T.);
#177=ORIENTED_EDGE('',*,*,#447,.T.);
#178=ORIENTED_EDGE('',*,*,#429,.F.);
#179=ORIENTED_EDGE('',*,*,#448,.T.);
#180=ORIENTED_EDGE('',*,*,#449,.T.);
#181=ORIENTED_EDGE('',*,*,#434,.F.);
#182=ORIENTED_EDGE('',*,*,#450,.T.);
#183=ORIENTED_EDGE('',*,*,#451,.T.);
#184=ORIENTED_EDGE('',*,*,#427,.T.);
#185=ORIENTED_EDGE('',*,*,#452,.T.);
#186=ORIENTED_EDGE('',*,*,#453,.T.);
#187=ORIENTED_EDGE('',*,*,#454,.T.);
#188=ORIENTED_EDGE('',*,*,#438,.T.);
#189=ORIENTED_EDGE('',*,*,#455,.T.);
#190=ORIENTED_EDGE('',*,*,#456,.T.);
#191=ORIENTED_EDGE('',*,*,#425,.T.);
#192=ORIENTED_EDGE('',*,*,#457,.T.);
#193=ORIENTED_EDGE('',*,*,#458,.T.);
#194=ORIENTED_EDGE('',*,*,#459,.T.);
#195=ORIENTED_EDGE('',*,*,#460,.T.);
#196=ORIENTED_EDGE('',*,*,#414,.F.);
#197=ORIENTED_EDGE('',*,*,#461,.T.);
#198=ORIENTED_EDGE('',*,*,#462,.T.);
#199=ORIENTED_EDGE('',*,*,#463,.T.);
#200=ORIENTED_EDGE('',*,*,#464,.T.);
#201=ORIENTED_EDGE('',*,*,#465,.T.);
#202=ORIENTED_EDGE('',*,*,#402,.F.);
#203=ORIENTED_EDGE('',*,*,#466,.T.);
#204=ORIENTED_EDGE('',*,*,#467,.F.);
#205=ORIENTED_EDGE('',*,*,#468,.T.);
#206=ORIENTED_EDGE('',*,*,#412,.T.);
#207=ORIENTED_EDGE('',*,*,#469,.T.);
#208=ORIENTED_EDGE('',*,*,#470,.F.);
#209=ORIENTED_EDGE('',*,*,#471,.T.);
#210=ORIENTED_EDGE('',*,*,#472,.T.);
#211=ORIENTED_EDGE('',*,*,#473,.T.);
#212=ORIENTED_EDGE('',*,*,#416,.F.);
#213=ORIENTED_EDGE('',*,*,#474,.T.);
#214=ORIENTED_EDGE('',*,*,#423,.F.);
#215=ORIENTED_EDGE('',*,*,#475,.T.);
#216=ORIENTED_EDGE('',*,*,#476,.F.);
#217=ORIENTED_EDGE('',*,*,#477,.T.);
#218=ORIENTED_EDGE('',*,*,#476,.T.);
#219=ORIENTED_EDGE('',*,*,#478,.T.);
#220=ORIENTED_EDGE('',*,*,#432,.T.);
#221=ORIENTED_EDGE('',*,*,#479,.T.);
#222=ORIENTED_EDGE('',*,*,#480,.T.);
#223=ORIENTED_EDGE('',*,*,#481,.T.);
#224=ORIENTED_EDGE('',*,*,#464,.F.);
#225=ORIENTED_EDGE('',*,*,#482,.T.);
#226=ORIENTED_EDGE('',*,*,#483,.T.);
#227=ORIENTED_EDGE('',*,*,#484,.T.);
#228=ORIENTED_EDGE('',*,*,#485,.T.);
#229=ORIENTED_EDGE('',*,*,#467,.T.);
#230=ORIENTED_EDGE('',*,*,#486,.T.);
#231=ORIENTED_EDGE('',*,*,#487,.T.);
#232=ORIENTED_EDGE('',*,*,#488,.T.);
#233=ORIENTED_EDGE('',*,*,#462,.F.);
#234=ORIENTED_EDGE('',*,*,#489,.T.);
#235=ORIENTED_EDGE('',*,*,#490,.T.);
#236=ORIENTED_EDGE('',*,*,#490,.F.);
#237=ORIENTED_EDGE('',*,*,#491,.T.);
#238=ORIENTED_EDGE('',*,*,#492,.T.);
#239=ORIENTED_EDGE('',*,*,#492,.F.);
#240=ORIENTED_EDGE('',*,*,#493,.T.);
#241=ORIENTED_EDGE('',*,*,#494,.T.);
#242=ORIENTED_EDGE('',*,*,#494,.F.);
#243=ORIENTED_EDGE('',*,*,#495,.T.);
#244=ORIENTED_EDGE('',*,*,#496,.T.);
#245=ORIENTED_EDGE('',*,*,#496,.F.);
#246=ORIENTED_EDGE('',*,*,#497,.T.);
#247=ORIENTED_EDGE('',*,*,#498,.T.);
#248=ORIENTED_EDGE('',*,*,#499,.T.);
#249=ORIENTED_EDGE('',*,*,#500,.T.);
#250=ORIENTED_EDGE('',*,*,#470,.T.);
#251=ORIENTED_EDGE('',*,*,#501,.T.);
#252=ORIENTED_EDGE('',*,*,#440,.T.);
#253=ORIENTED_EDGE('',*,*,#502,.T.);
#254=ORIENTED_EDGE('',*,*,#472,.F.);
#255=ORIENTED_EDGE('',*,*,#503,.T.);
#256=ORIENTED_EDGE('',*,*,#459,.F.);
#257=ORIENTED_EDGE('',*,*,#504,.T.);
#258=ORIENTED_EDGE('',*,*,#505,.T.);
#259=ORIENTED_EDGE('',*,*,#506,.T.);
#260=ORIENTED_EDGE('',*,*,#436,.F.);
#261=ORIENTED_EDGE('',*,*,#507,.T.);
#262=ORIENTED_EDGE('',*,*,#508,.T.);
#263=ORIENTED_EDGE('',*,*,#509,.T.);
#264=ORIENTED_EDGE('',*,*,#418,.T.);
#265=ORIENTED_EDGE('',*,*,#510,.T.);
#266=ORIENTED_EDGE('',*,*,#511,.T.);
#267=ORIENTED_EDGE('',*,*,#404,.T.);
#268=ORIENTED_EDGE('',*,*,#512,.F.);
#269=ORIENTED_EDGE('',*,*,#513,.T.);
#270=ORIENTED_EDGE('',*,*,#512,.T.);
#271=ORIENTED_EDGE('',*,*,#514,.F.);
#272=ORIENTED_EDGE('',*,*,#515,.T.);
#273=ORIENTED_EDGE('',*,*,#514,.T.);
#274=ORIENTED_EDGE('',*,*,#516,.F.);
#275=ORIENTED_EDGE('',*,*,#517,.T.);
#276=ORIENTED_EDGE('',*,*,#516,.T.);
#277=ORIENTED_EDGE('',*,*,#518,.F.);
#278=ORIENTED_EDGE('',*,*,#519,.T.);
#279=ORIENTED_EDGE('',*,*,#518,.T.);
#280=ORIENTED_EDGE('',*,*,#433,.F.);
#281=ORIENTED_EDGE('',*,*,#478,.F.);
#282=ORIENTED_EDGE('',*,*,#520,.F.);
#283=ORIENTED_EDGE('',*,*,#450,.F.);
#284=ORIENTED_EDGE('',*,*,#520,.T.);
#285=ORIENTED_EDGE('',*,*,#475,.F.);
#286=ORIENTED_EDGE('',*,*,#422,.F.);
#287=ORIENTED_EDGE('',*,*,#451,.F.);
#288=ORIENTED_EDGE('',*,*,#439,.F.);
#289=ORIENTED_EDGE('',*,*,#458,.F.);
#290=ORIENTED_EDGE('',*,*,#521,.F.);
#291=ORIENTED_EDGE('',*,*,#479,.F.);
#292=ORIENTED_EDGE('',*,*,#521,.T.);
#293=ORIENTED_EDGE('',*,*,#457,.F.);
#294=ORIENTED_EDGE('',*,*,#424,.F.);
#295=ORIENTED_EDGE('',*,*,#477,.F.);
#296=ORIENTED_EDGE('',*,*,#428,.F.);
#297=ORIENTED_EDGE('',*,*,#454,.F.);
#298=ORIENTED_EDGE('',*,*,#522,.F.);
#299=ORIENTED_EDGE('',*,*,#448,.F.);
#300=ORIENTED_EDGE('',*,*,#435,.F.);
#301=ORIENTED_EDGE('',*,*,#449,.F.);
#302=ORIENTED_EDGE('',*,*,#523,.F.);
#303=ORIENTED_EDGE('',*,*,#507,.F.);
#304=ORIENTED_EDGE('',*,*,#523,.T.);
#305=ORIENTED_EDGE('',*,*,#522,.T.);
#306=ORIENTED_EDGE('',*,*,#524,.F.);
#307=ORIENTED_EDGE('',*,*,#426,.F.);
#308=ORIENTED_EDGE('',*,*,#456,.F.);
#309=ORIENTED_EDGE('',*,*,#525,.F.);
#310=ORIENTED_EDGE('',*,*,#452,.F.);
#311=ORIENTED_EDGE('',*,*,#524,.T.);
#312=ORIENTED_EDGE('',*,*,#453,.F.);
#313=ORIENTED_EDGE('',*,*,#526,.F.);
#314=ORIENTED_EDGE('',*,*,#505,.F.);
#315=ORIENTED_EDGE('',*,*,#526,.T.);
#316=ORIENTED_EDGE('',*,*,#525,.T.);
#317=ORIENTED_EDGE('',*,*,#527,.F.);
#318=ORIENTED_EDGE('',*,*,#527,.T.);
#319=ORIENTED_EDGE('',*,*,#455,.F.);
#320=ORIENTED_EDGE('',*,*,#437,.F.);
#321=ORIENTED_EDGE('',*,*,#506,.F.);
#322=ORIENTED_EDGE('',*,*,#465,.F.);
#323=ORIENTED_EDGE('',*,*,#481,.F.);
#324=ORIENTED_EDGE('',*,*,#528,.T.);
#325=ORIENTED_EDGE('',*,*,#508,.F.);
#326=ORIENTED_EDGE('',*,*,#403,.F.);
#327=ORIENTED_EDGE('',*,*,#488,.F.);
#328=ORIENTED_EDGE('',*,*,#529,.T.);
#329=ORIENTED_EDGE('',*,*,#482,.F.);
#330=ORIENTED_EDGE('',*,*,#463,.F.);
#331=ORIENTED_EDGE('',*,*,#485,.F.);
#332=ORIENTED_EDGE('',*,*,#530,.T.);
#333=ORIENTED_EDGE('',*,*,#486,.F.);
#334=ORIENTED_EDGE('',*,*,#468,.F.);
#335=ORIENTED_EDGE('',*,*,#466,.F.);
#336=ORIENTED_EDGE('',*,*,#405,.F.);
#337=ORIENTED_EDGE('',*,*,#511,.F.);
#338=ORIENTED_EDGE('',*,*,#531,.T.);
#339=ORIENTED_EDGE('',*,*,#483,.F.);
#340=ORIENTED_EDGE('',*,*,#501,.F.);
#341=ORIENTED_EDGE('',*,*,#469,.F.);
#342=ORIENTED_EDGE('',*,*,#411,.F.);
#343=ORIENTED_EDGE('',*,*,#441,.F.);
#344=ORIENTED_EDGE('',*,*,#502,.F.);
#345=ORIENTED_EDGE('',*,*,#442,.F.);
#346=ORIENTED_EDGE('',*,*,#417,.F.);
#347=ORIENTED_EDGE('',*,*,#473,.F.);
#348=ORIENTED_EDGE('',*,*,#503,.F.);
#349=ORIENTED_EDGE('',*,*,#474,.F.);
#350=ORIENTED_EDGE('',*,*,#415,.F.);
#351=ORIENTED_EDGE('',*,*,#460,.F.);
#352=ORIENTED_EDGE('',*,*,#504,.F.);
#353=ORIENTED_EDGE('',*,*,#461,.F.);
#354=ORIENTED_EDGE('',*,*,#413,.F.);
#355=ORIENTED_EDGE('',*,*,#471,.F.);
#356=ORIENTED_EDGE('',*,*,#510,.F.);
#357=ORIENTED_EDGE('',*,*,#431,.F.);
#358=ORIENTED_EDGE('',*,*,#532,.F.);
#359=ORIENTED_EDGE('',*,*,#531,.F.);
#360=ORIENTED_EDGE('',*,*,#430,.F.);
#361=ORIENTED_EDGE('',*,*,#447,.F.);
#362=ORIENTED_EDGE('',*,*,#533,.F.);
#363=ORIENTED_EDGE('',*,*,#484,.F.);
#364=ORIENTED_EDGE('',*,*,#532,.T.);
#365=ORIENTED_EDGE('',*,*,#533,.T.);
#366=ORIENTED_EDGE('',*,*,#446,.F.);
#367=ORIENTED_EDGE('',*,*,#534,.F.);
#368=ORIENTED_EDGE('',*,*,#530,.F.);
#369=ORIENTED_EDGE('',*,*,#534,.T.);
#370=ORIENTED_EDGE('',*,*,#445,.F.);
#371=ORIENTED_EDGE('',*,*,#535,.F.);
#372=ORIENTED_EDGE('',*,*,#487,.F.);
#373=ORIENTED_EDGE('',*,*,#535,.T.);
#374=ORIENTED_EDGE('',*,*,#444,.F.);
#375=ORIENTED_EDGE('',*,*,#536,.F.);
#376=ORIENTED_EDGE('',*,*,#529,.F.);
#377=ORIENTED_EDGE('',*,*,#443,.F.);
#378=ORIENTED_EDGE('',*,*,#420,.F.);
#379=ORIENTED_EDGE('',*,*,#537,.F.);
#380=ORIENTED_EDGE('',*,*,#480,.F.);
#381=ORIENTED_EDGE('',*,*,#536,.T.);
#382=ORIENTED_EDGE('',*,*,#419,.F.);
#383=ORIENTED_EDGE('',*,*,#509,.F.);
#384=ORIENTED_EDGE('',*,*,#528,.F.);
#385=ORIENTED_EDGE('',*,*,#537,.T.);
#386=ORIENTED_EDGE('',*,*,#513,.F.);
#387=ORIENTED_EDGE('',*,*,#497,.F.);
#388=ORIENTED_EDGE('',*,*,#519,.F.);
#389=ORIENTED_EDGE('',*,*,#498,.F.);
#390=ORIENTED_EDGE('',*,*,#517,.F.);
#391=ORIENTED_EDGE('',*,*,#499,.F.);
#392=ORIENTED_EDGE('',*,*,#515,.F.);
#393=ORIENTED_EDGE('',*,*,#500,.F.);
#394=ORIENTED_EDGE('',*,*,#489,.F.);
#395=ORIENTED_EDGE('',*,*,#406,.F.);
#396=ORIENTED_EDGE('',*,*,#491,.F.);
#397=ORIENTED_EDGE('',*,*,#407,.F.);
#398=ORIENTED_EDGE('',*,*,#495,.F.);
#399=ORIENTED_EDGE('',*,*,#408,.F.);
#400=ORIENTED_EDGE('',*,*,#493,.F.);
#401=ORIENTED_EDGE('',*,*,#409,.F.);
#402=EDGE_CURVE('',#538,#539,#636,.T.);
#403=EDGE_CURVE('',#539,#540,#637,.T.);
#404=EDGE_CURVE('',#541,#540,#638,.T.);
#405=EDGE_CURVE('',#541,#538,#639,.F.);
#406=EDGE_CURVE('',#542,#542,#66,.T.);
#407=EDGE_CURVE('',#543,#543,#67,.T.);
#408=EDGE_CURVE('',#544,#544,#68,.T.);
#409=EDGE_CURVE('',#545,#545,#69,.T.);
#410=EDGE_CURVE('',#546,#547,#640,.T.);
#411=EDGE_CURVE('',#546,#548,#70,.F.);
#412=EDGE_CURVE('',#549,#548,#641,.T.);
#413=EDGE_CURVE('',#549,#550,#71,.F.);
#414=EDGE_CURVE('',#550,#551,#642,.T.);
#415=EDGE_CURVE('',#551,#552,#72,.F.);
#416=EDGE_CURVE('',#552,#553,#643,.T.);
#417=EDGE_CURVE('',#553,#547,#73,.F.);
#418=EDGE_CURVE('',#554,#555,#644,.T.);
#419=EDGE_CURVE('',#554,#556,#74,.T.);
#420=EDGE_CURVE('',#556,#557,#75,.F.);
#421=EDGE_CURVE('',#557,#558,#645,.T.);
#422=EDGE_CURVE('',#558,#559,#76,.T.);
#423=EDGE_CURVE('',#559,#560,#646,.T.);
#424=EDGE_CURVE('',#560,#561,#77,.T.);
#425=EDGE_CURVE('',#562,#561,#647,.T.);
#426=EDGE_CURVE('',#562,#563,#78,.T.);
#427=EDGE_CURVE('',#564,#563,#648,.T.);
#428=EDGE_CURVE('',#564,#565,#79,.T.);
#429=EDGE_CURVE('',#565,#566,#649,.T.);
#430=EDGE_CURVE('',#566,#567,#80,.F.);
#431=EDGE_CURVE('',#567,#555,#81,.T.);
#432=EDGE_CURVE('',#568,#569,#650,.T.);
#433=EDGE_CURVE('',#568,#570,#82,.T.);
#434=EDGE_CURVE('',#570,#571,#651,.T.);
#435=EDGE_CURVE('',#571,#572,#83,.T.);
#436=EDGE_CURVE('',#572,#573,#652,.T.);
#437=EDGE_CURVE('',#573,#574,#84,.T.);
#438=EDGE_CURVE('',#575,#574,#653,.T.);
#439=EDGE_CURVE('',#575,#569,#85,.T.);
#440=EDGE_CURVE('',#576,#577,#654,.T.);
#441=EDGE_CURVE('',#576,#546,#655,.T.);
#442=EDGE_CURVE('',#547,#577,#656,.F.);
#443=EDGE_CURVE('',#557,#578,#657,.T.);
#444=EDGE_CURVE('',#578,#579,#86,.F.);
#445=EDGE_CURVE('',#579,#580,#658,.T.);
#446=EDGE_CURVE('',#580,#581,#87,.F.);
#447=EDGE_CURVE('',#581,#566,#659,.F.);
#448=EDGE_CURVE('',#565,#582,#660,.F.);
#449=EDGE_CURVE('',#582,#571,#661,.T.);
#450=EDGE_CURVE('',#570,#583,#662,.T.);
#451=EDGE_CURVE('',#583,#558,#663,.T.);
#452=EDGE_CURVE('',#563,#584,#664,.F.);
#453=EDGE_CURVE('',#584,#585,#665,.F.);
#454=EDGE_CURVE('',#585,#564,#666,.T.);
#455=EDGE_CURVE('',#574,#586,#667,.F.);
#456=EDGE_CURVE('',#586,#562,#668,.T.);
#457=EDGE_CURVE('',#561,#587,#669,.F.);
#458=EDGE_CURVE('',#587,#575,#670,.F.);
#459=EDGE_CURVE('',#588,#589,#671,.T.);
#460=EDGE_CURVE('',#589,#551,#672,.T.);
#461=EDGE_CURVE('',#550,#588,#673,.F.);
#462=EDGE_CURVE('',#590,#591,#674,.T.);
#463=EDGE_CURVE('',#591,#592,#88,.T.);
#464=EDGE_CURVE('',#592,#593,#675,.T.);
#465=EDGE_CURVE('',#593,#539,#89,.T.);
#466=EDGE_CURVE('',#538,#594,#90,.T.);
#467=EDGE_CURVE('',#595,#594,#676,.T.);
#468=EDGE_CURVE('',#595,#590,#91,.T.);
#469=EDGE_CURVE('',#548,#596,#677,.F.);
#470=EDGE_CURVE('',#597,#596,#678,.T.);
#471=EDGE_CURVE('',#597,#549,#679,.T.);
#472=EDGE_CURVE('',#598,#599,#680,.T.);
#473=EDGE_CURVE('',#599,#553,#681,.T.);
#474=EDGE_CURVE('',#552,#598,#682,.F.);
#475=EDGE_CURVE('',#559,#600,#683,.F.);
#476=EDGE_CURVE('',#601,#600,#684,.T.);
#477=EDGE_CURVE('',#601,#560,#685,.T.);
#478=EDGE_CURVE('',#600,#568,#686,.F.);
#479=EDGE_CURVE('',#569,#601,#687,.T.);
#480=EDGE_CURVE('',#602,#603,#688,.F.);
#481=EDGE_CURVE('',#603,#593,#689,.F.);
#482=EDGE_CURVE('',#592,#602,#690,.T.);
#483=EDGE_CURVE('',#594,#604,#691,.T.);
#484=EDGE_CURVE('',#604,#605,#692,.T.);
#485=EDGE_CURVE('',#605,#595,#693,.F.);
#486=EDGE_CURVE('',#590,#606,#694,.T.);
#487=EDGE_CURVE('',#606,#607,#695,.F.);
#488=EDGE_CURVE('',#607,#591,#696,.F.);
#489=EDGE_CURVE('',#608,#608,#92,.F.);
#490=EDGE_CURVE('',#609,#609,#93,.T.);
#491=EDGE_CURVE('',#610,#610,#94,.F.);
#492=EDGE_CURVE('',#611,#611,#95,.T.);
#493=EDGE_CURVE('',#612,#612,#96,.F.);
#494=EDGE_CURVE('',#613,#613,#97,.T.);
#495=EDGE_CURVE('',#614,#614,#98,.F.);
#496=EDGE_CURVE('',#615,#615,#99,.T.);
#497=EDGE_CURVE('',#616,#616,#100,.F.);
#498=EDGE_CURVE('',#617,#617,#101,.F.);
#499=EDGE_CURVE('',#618,#618,#102,.F.);
#500=EDGE_CURVE('',#619,#619,#103,.F.);
#501=EDGE_CURVE('',#596,#576,#104,.T.);
#502=EDGE_CURVE('',#577,#599,#105,.T.);
#503=EDGE_CURVE('',#598,#589,#106,.T.);
#504=EDGE_CURVE('',#588,#597,#107,.T.);
#505=EDGE_CURVE('',#620,#621,#697,.T.);
#506=EDGE_CURVE('',#621,#573,#698,.T.);
#507=EDGE_CURVE('',#572,#620,#699,.F.);
#508=EDGE_CURVE('',#540,#622,#108,.T.);
#509=EDGE_CURVE('',#622,#554,#700,.F.);
#510=EDGE_CURVE('',#555,#623,#701,.T.);
#511=EDGE_CURVE('',#623,#541,#109,.T.);
#512=EDGE_CURVE('',#625,#625,#110,.T.);
#513=EDGE_CURVE('',#626,#626,#111,.T.);
#514=EDGE_CURVE('',#628,#628,#112,.T.);
#515=EDGE_CURVE('',#629,#629,#113,.T.);
#516=EDGE_CURVE('',#631,#631,#114,.T.);
#517=EDGE_CURVE('',#632,#632,#115,.T.);
#518=EDGE_CURVE('',#634,#634,#116,.T.);
#519=EDGE_CURVE('',#635,#635,#117,.T.);
#520=EDGE_CURVE('',#583,#600,#26,.F.);
#521=EDGE_CURVE('',#601,#587,#27,.T.);
#522=EDGE_CURVE('',#582,#585,#118,.T.);
#523=EDGE_CURVE('',#620,#582,#119,.T.);
#524=EDGE_CURVE('',#620,#585,#120,.F.);
#525=EDGE_CURVE('',#584,#586,#121,.T.);
#526=EDGE_CURVE('',#621,#584,#122,.T.);
#527=EDGE_CURVE('',#621,#586,#123,.F.);
#528=EDGE_CURVE('',#603,#622,#22,.F.);
#529=EDGE_CURVE('',#607,#602,#124,.T.);
#530=EDGE_CURVE('',#605,#606,#125,.T.);
#531=EDGE_CURVE('',#623,#604,#23,.T.);
#532=EDGE_CURVE('',#604,#567,#702,.F.);
#533=EDGE_CURVE('',#605,#581,#126,.T.);
#534=EDGE_CURVE('',#606,#580,#127,.T.);
#535=EDGE_CURVE('',#607,#579,#128,.T.);
#536=EDGE_CURVE('',#602,#578,#129,.T.);
#537=EDGE_CURVE('',#603,#556,#703,.F.);
#538=VERTEX_POINT('',#1537);
#539=VERTEX_POINT('',#1538);
#540=VERTEX_POINT('',#1540);
#541=VERTEX_POINT('',#1542);
#542=VERTEX_POINT('',#1546);
#543=VERTEX_POINT('',#1548);
#544=VERTEX_POINT('',#1550);
#545=VERTEX_POINT('',#1552);
#546=VERTEX_POINT('',#1554);
#547=VERTEX_POINT('',#1555);
#548=VERTEX_POINT('',#1557);
#549=VERTEX_POINT('',#1559);
#550=VERTEX_POINT('',#1561);
#551=VERTEX_POINT('',#1563);
#552=VERTEX_POINT('',#1565);
#553=VERTEX_POINT('',#1567);
#554=VERTEX_POINT('',#1570);
#555=VERTEX_POINT('',#1571);
#556=VERTEX_POINT('',#1573);
#557=VERTEX_POINT('',#1575);
#558=VERTEX_POINT('',#1577);
#559=VERTEX_POINT('',#1579);
#560=VERTEX_POINT('',#1581);
#561=VERTEX_POINT('',#1583);
#562=VERTEX_POINT('',#1585);
#563=VERTEX_POINT('',#1587);
#564=VERTEX_POINT('',#1589);
#565=VERTEX_POINT('',#1591);
#566=VERTEX_POINT('',#1593);
#567=VERTEX_POINT('',#1595);
#568=VERTEX_POINT('',#1599);
#569=VERTEX_POINT('',#1600);
#570=VERTEX_POINT('',#1602);
#571=VERTEX_POINT('',#1604);
#572=VERTEX_POINT('',#1606);
#573=VERTEX_POINT('',#1608);
#574=VERTEX_POINT('',#1610);
#575=VERTEX_POINT('',#1612);
#576=VERTEX_POINT('',#1615);
#577=VERTEX_POINT('',#1616);
#578=VERTEX_POINT('',#1621);
#579=VERTEX_POINT('',#1623);
#580=VERTEX_POINT('',#1625);
#581=VERTEX_POINT('',#1627);
#582=VERTEX_POINT('',#1630);
#583=VERTEX_POINT('',#1633);
#584=VERTEX_POINT('',#1637);
#585=VERTEX_POINT('',#1639);
#586=VERTEX_POINT('',#1643);
#587=VERTEX_POINT('',#1646);
#588=VERTEX_POINT('',#1650);
#589=VERTEX_POINT('',#1651);
#590=VERTEX_POINT('',#1656);
#591=VERTEX_POINT('',#1657);
#592=VERTEX_POINT('',#1659);
#593=VERTEX_POINT('',#1661);
#594=VERTEX_POINT('',#1664);
#595=VERTEX_POINT('',#1666);
#596=VERTEX_POINT('',#1669);
#597=VERTEX_POINT('',#1671);
#598=VERTEX_POINT('',#1675);
#599=VERTEX_POINT('',#1676);
#600=VERTEX_POINT('',#1681);
#601=VERTEX_POINT('',#1683);
#602=VERTEX_POINT('',#1690);
#603=VERTEX_POINT('',#1691);
#604=VERTEX_POINT('',#1696);
#605=VERTEX_POINT('',#1698);
#606=VERTEX_POINT('',#1702);
#607=VERTEX_POINT('',#1704);
#608=VERTEX_POINT('',#1708);
#609=VERTEX_POINT('',#1710);
#610=VERTEX_POINT('',#1714);
#611=VERTEX_POINT('',#1716);
#612=VERTEX_POINT('',#1720);
#613=VERTEX_POINT('',#1722);
#614=VERTEX_POINT('',#1726);
#615=VERTEX_POINT('',#1728);
#616=VERTEX_POINT('',#1732);
#617=VERTEX_POINT('',#1734);
#618=VERTEX_POINT('',#1736);
#619=VERTEX_POINT('',#1738);
#620=VERTEX_POINT('',#1745);
#621=VERTEX_POINT('',#1746);
#622=VERTEX_POINT('',#1751);
#623=VERTEX_POINT('',#1754);
#624=VERTEX_POINT('',#1757);
#625=VERTEX_POINT('',#1759);
#626=VERTEX_POINT('',#1762);
#627=VERTEX_POINT('',#1764);
#628=VERTEX_POINT('',#1766);
#629=VERTEX_POINT('',#1769);
#630=VERTEX_POINT('',#1771);
#631=VERTEX_POINT('',#1773);
#632=VERTEX_POINT('',#1776);
#633=VERTEX_POINT('',#1778);
#634=VERTEX_POINT('',#1780);
#635=VERTEX_POINT('',#1783);
#636=LINE('',#1536,#704);
#637=LINE('',#1539,#705);
#638=LINE('',#1541,#706);
#639=LINE('',#1543,#707);
#640=LINE('',#1553,#708);
#641=LINE('',#1558,#709);
#642=LINE('',#1562,#710);
#643=LINE('',#1566,#711);
#644=LINE('',#1569,#712);
#645=LINE('',#1576,#713);
#646=LINE('',#1580,#714);
#647=LINE('',#1584,#715);
#648=LINE('',#1588,#716);
#649=LINE('',#1592,#717);
#650=LINE('',#1598,#718);
#651=LINE('',#1603,#719);
#652=LINE('',#1607,#720);
#653=LINE('',#1611,#721);
#654=LINE('',#1614,#722);
#655=LINE('',#1617,#723);
#656=LINE('',#1618,#724);
#657=LINE('',#1620,#725);
#658=LINE('',#1624,#726);
#659=LINE('',#1628,#727);
#660=LINE('',#1629,#728);
#661=LINE('',#1631,#729);
#662=LINE('',#1632,#730);
#663=LINE('',#1634,#731);
#664=LINE('',#1636,#732);
#665=LINE('',#1638,#733);
#666=LINE('',#1640,#734);
#667=LINE('',#1642,#735);
#668=LINE('',#1644,#736);
#669=LINE('',#1645,#737);
#670=LINE('',#1647,#738);
#671=LINE('',#1649,#739);
#672=LINE('',#1652,#740);
#673=LINE('',#1653,#741);
#674=LINE('',#1655,#742);
#675=LINE('',#1660,#743);
#676=LINE('',#1665,#744);
#677=LINE('',#1668,#745);
#678=LINE('',#1670,#746);
#679=LINE('',#1672,#747);
#680=LINE('',#1674,#748);
#681=LINE('',#1677,#749);
#682=LINE('',#1678,#750);
#683=LINE('',#1680,#751);
#684=LINE('',#1682,#752);
#685=LINE('',#1684,#753);
#686=LINE('',#1686,#754);
#687=LINE('',#1687,#755);
#688=LINE('',#1689,#756);
#689=LINE('',#1692,#757);
#690=LINE('',#1693,#758);
#691=LINE('',#1695,#759);
#692=LINE('',#1697,#760);
#693=LINE('',#1699,#761);
#694=LINE('',#1701,#762);
#695=LINE('',#1703,#763);
#696=LINE('',#1705,#764);
#697=LINE('',#1744,#765);
#698=LINE('',#1747,#766);
#699=LINE('',#1748,#767);
#700=LINE('',#1752,#768);
#701=LINE('',#1753,#769);
#702=LINE('',#1824,#770);
#703=LINE('',#1834,#771);
#704=VECTOR('',#1202,1.);
#705=VECTOR('',#1203,1.);
#706=VECTOR('',#1204,1.);
#707=VECTOR('',#1205,1.);
#708=VECTOR('',#1216,1.);
#709=VECTOR('',#1219,1.);
#710=VECTOR('',#1222,1.);
#711=VECTOR('',#1225,1.);
#712=VECTOR('',#1228,1.);
#713=VECTOR('',#1233,1.);
#714=VECTOR('',#1236,1.);
#715=VECTOR('',#1239,1.);
#716=VECTOR('',#1242,1.);
#717=VECTOR('',#1245,1.);
#718=VECTOR('',#1252,1.);
#719=VECTOR('',#1255,1.);
#720=VECTOR('',#1258,1.);
#721=VECTOR('',#1261,1.);
#722=VECTOR('',#1264,1.);
#723=VECTOR('',#1265,1.);
#724=VECTOR('',#1266,1.);
#725=VECTOR('',#1269,1.);
#726=VECTOR('',#1272,1.);
#727=VECTOR('',#1275,1.);
#728=VECTOR('',#1276,1.);
#729=VECTOR('',#1277,1.);
#730=VECTOR('',#1278,1.);
#731=VECTOR('',#1279,1.);
#732=VECTOR('',#1282,1.);
#733=VECTOR('',#1283,1.);
#734=VECTOR('',#1284,1.);
#735=VECTOR('',#1287,1.);
#736=VECTOR('',#1288,1.);
#737=VECTOR('',#1289,1.);
#738=VECTOR('',#1290,1.);
#739=VECTOR('',#1293,1.);
#740=VECTOR('',#1294,1.);
#741=VECTOR('',#1295,1.);
#742=VECTOR('',#1298,1.);
#743=VECTOR('',#1301,1.);
#744=VECTOR('',#1306,1.);
#745=VECTOR('',#1309,1.);
#746=VECTOR('',#1310,1.);
#747=VECTOR('',#1311,1.);
#748=VECTOR('',#1314,1.);
#749=VECTOR('',#1315,1.);
#750=VECTOR('',#1316,1.);
#751=VECTOR('',#1319,1.);
#752=VECTOR('',#1320,1.);
#753=VECTOR('',#1321,1.);
#754=VECTOR('',#1324,1.);
#755=VECTOR('',#1325,1.);
#756=VECTOR('',#1328,1.);
#757=VECTOR('',#1329,1.);
#758=VECTOR('',#1330,1.);
#759=VECTOR('',#1333,1.);
#760=VECTOR('',#1334,1.);
#761=VECTOR('',#1335,1.);
#762=VECTOR('',#1338,1.);
#763=VECTOR('',#1339,1.);
#764=VECTOR('',#1340,1.);
#765=VECTOR('',#1393,1.);
#766=VECTOR('',#1394,1.);
#767=VECTOR('',#1395,1.);
#768=VECTOR('',#1400,1.);
#769=VECTOR('',#1401,1.);
#770=VECTOR('',#1496,1.);
#771=VECTOR('',#1515,1.);
#772=EDGE_LOOP('',(#130,#131,#132,#133));
#773=EDGE_LOOP('',(#134));
#774=EDGE_LOOP('',(#135));
#775=EDGE_LOOP('',(#136));
#776=EDGE_LOOP('',(#137));
#777=EDGE_LOOP('',(#138,#139,#140,#141,#142,#143,#144,#145));
#778=EDGE_LOOP('',(#146,#147,#148,#149,#150,#151,#152,#153,#154,#155,#156,
#157,#158,#159));
#779=EDGE_LOOP('',(#160,#161,#162,#163,#164,#165,#166,#167));
#780=EDGE_LOOP('',(#168,#169,#170,#171));
#781=EDGE_LOOP('',(#172,#173,#174,#175,#176,#177,#178,#179,#180,#181,#182,
#183));
#782=EDGE_LOOP('',(#184,#185,#186,#187));
#783=EDGE_LOOP('',(#188,#189,#190,#191,#192,#193));
#784=EDGE_LOOP('',(#194,#195,#196,#197));
#785=EDGE_LOOP('',(#198,#199,#200,#201,#202,#203,#204,#205));
#786=EDGE_LOOP('',(#206,#207,#208,#209));
#787=EDGE_LOOP('',(#210,#211,#212,#213));
#788=EDGE_LOOP('',(#214,#215,#216,#217));
#789=EDGE_LOOP('',(#218,#219,#220,#221));
#790=EDGE_LOOP('',(#222,#223,#224,#225));
#791=EDGE_LOOP('',(#226,#227,#228,#229));
#792=EDGE_LOOP('',(#230,#231,#232,#233));
#793=EDGE_LOOP('',(#234));
#794=EDGE_LOOP('',(#235));
#795=EDGE_LOOP('',(#236));
#796=EDGE_LOOP('',(#237));
#797=EDGE_LOOP('',(#238));
#798=EDGE_LOOP('',(#239));
#799=EDGE_LOOP('',(#240));
#800=EDGE_LOOP('',(#241));
#801=EDGE_LOOP('',(#242));
#802=EDGE_LOOP('',(#243));
#803=EDGE_LOOP('',(#244));
#804=EDGE_LOOP('',(#245));
#805=EDGE_LOOP('',(#246));
#806=EDGE_LOOP('',(#247));
#807=EDGE_LOOP('',(#248));
#808=EDGE_LOOP('',(#249));
#809=EDGE_LOOP('',(#250,#251,#252,#253,#254,#255,#256,#257));
#810=EDGE_LOOP('',(#258,#259,#260,#261));
#811=EDGE_LOOP('',(#262,#263,#264,#265,#266,#267));
#812=EDGE_LOOP('',(#268));
#813=EDGE_LOOP('',(#269));
#814=EDGE_LOOP('',(#270));
#815=EDGE_LOOP('',(#271));
#816=EDGE_LOOP('',(#272));
#817=EDGE_LOOP('',(#273));
#818=EDGE_LOOP('',(#274));
#819=EDGE_LOOP('',(#275));
#820=EDGE_LOOP('',(#276));
#821=EDGE_LOOP('',(#277));
#822=EDGE_LOOP('',(#278));
#823=EDGE_LOOP('',(#279));
#824=EDGE_LOOP('',(#280,#281,#282,#283));
#825=EDGE_LOOP('',(#284,#285,#286,#287));
#826=EDGE_LOOP('',(#288,#289,#290,#291));
#827=EDGE_LOOP('',(#292,#293,#294,#295));
#828=EDGE_LOOP('',(#296,#297,#298,#299));
#829=EDGE_LOOP('',(#300,#301,#302,#303));
#830=EDGE_LOOP('',(#304,#305,#306));
#831=EDGE_LOOP('',(#307,#308,#309,#310));
#832=EDGE_LOOP('',(#311,#312,#313,#314));
#833=EDGE_LOOP('',(#315,#316,#317));
#834=EDGE_LOOP('',(#318,#319,#320,#321));
#835=EDGE_LOOP('',(#322,#323,#324,#325,#326));
#836=EDGE_LOOP('',(#327,#328,#329,#330));
#837=EDGE_LOOP('',(#331,#332,#333,#334));
#838=EDGE_LOOP('',(#335,#336,#337,#338,#339));
#839=EDGE_LOOP('',(#340,#341,#342,#343));
#840=EDGE_LOOP('',(#344,#345,#346,#347));
#841=EDGE_LOOP('',(#348,#349,#350,#351));
#842=EDGE_LOOP('',(#352,#353,#354,#355));
#843=EDGE_LOOP('',(#356,#357,#358,#359));
#844=EDGE_LOOP('',(#360,#361,#362,#363,#364));
#845=EDGE_LOOP('',(#365,#366,#367,#368));
#846=EDGE_LOOP('',(#369,#370,#371,#372));
#847=EDGE_LOOP('',(#373,#374,#375,#376));
#848=EDGE_LOOP('',(#377,#378,#379,#380,#381));
#849=EDGE_LOOP('',(#382,#383,#384,#385));
#850=EDGE_LOOP('',(#386));
#851=EDGE_LOOP('',(#387));
#852=EDGE_LOOP('',(#388));
#853=EDGE_LOOP('',(#389));
#854=EDGE_LOOP('',(#390));
#855=EDGE_LOOP('',(#391));
#856=EDGE_LOOP('',(#392));
#857=EDGE_LOOP('',(#393));
#858=EDGE_LOOP('',(#394));
#859=EDGE_LOOP('',(#395));
#860=EDGE_LOOP('',(#396));
#861=EDGE_LOOP('',(#397));
#862=EDGE_LOOP('',(#398));
#863=EDGE_LOOP('',(#399));
#864=EDGE_LOOP('',(#400));
#865=EDGE_LOOP('',(#401));
#866=FACE_BOUND('',#772,.T.);
#867=FACE_BOUND('',#773,.T.);
#868=FACE_BOUND('',#774,.T.);
#869=FACE_BOUND('',#775,.T.);
#870=FACE_BOUND('',#776,.T.);
#871=FACE_BOUND('',#777,.T.);
#872=FACE_BOUND('',#778,.T.);
#873=FACE_BOUND('',#779,.T.);
#874=FACE_BOUND('',#780,.T.);
#875=FACE_BOUND('',#781,.T.);
#876=FACE_BOUND('',#782,.T.);
#877=FACE_BOUND('',#783,.T.);
#878=FACE_BOUND('',#784,.T.);
#879=FACE_BOUND('',#785,.T.);
#880=FACE_BOUND('',#786,.T.);
#881=FACE_BOUND('',#787,.T.);
#882=FACE_BOUND('',#788,.T.);
#883=FACE_BOUND('',#789,.T.);
#884=FACE_BOUND('',#790,.T.);
#885=FACE_BOUND('',#791,.T.);
#886=FACE_BOUND('',#792,.T.);
#887=FACE_BOUND('',#793,.T.);
#888=FACE_BOUND('',#794,.T.);
#889=FACE_BOUND('',#795,.T.);
#890=FACE_BOUND('',#796,.T.);
#891=FACE_BOUND('',#797,.T.);
#892=FACE_BOUND('',#798,.T.);
#893=FACE_BOUND('',#799,.T.);
#894=FACE_BOUND('',#800,.T.);
#895=FACE_BOUND('',#801,.T.);
#896=FACE_BOUND('',#802,.T.);
#897=FACE_BOUND('',#803,.T.);
#898=FACE_BOUND('',#804,.T.);
#899=FACE_BOUND('',#805,.T.);
#900=FACE_BOUND('',#806,.T.);
#901=FACE_BOUND('',#807,.T.);
#902=FACE_BOUND('',#808,.T.);
#903=FACE_BOUND('',#809,.T.);
#904=FACE_BOUND('',#810,.T.);
#905=FACE_BOUND('',#811,.T.);
#906=FACE_BOUND('',#28,.T.);
#907=FACE_BOUND('',#812,.T.);
#908=FACE_BOUND('',#813,.T.);
#909=FACE_BOUND('',#814,.T.);
#910=FACE_BOUND('',#29,.T.);
#911=FACE_BOUND('',#815,.T.);
#912=FACE_BOUND('',#816,.T.);
#913=FACE_BOUND('',#817,.T.);
#914=FACE_BOUND('',#30,.T.);
#915=FACE_BOUND('',#818,.T.);
#916=FACE_BOUND('',#819,.T.);
#917=FACE_BOUND('',#820,.T.);
#918=FACE_BOUND('',#31,.T.);
#919=FACE_BOUND('',#821,.T.);
#920=FACE_BOUND('',#822,.T.);
#921=FACE_BOUND('',#823,.T.);
#922=FACE_BOUND('',#824,.T.);
#923=FACE_BOUND('',#825,.T.);
#924=FACE_BOUND('',#826,.T.);
#925=FACE_BOUND('',#827,.T.);
#926=FACE_BOUND('',#828,.T.);
#927=FACE_BOUND('',#829,.T.);
#928=FACE_BOUND('',#830,.T.);
#929=FACE_BOUND('',#831,.T.);
#930=FACE_BOUND('',#832,.T.);
#931=FACE_BOUND('',#833,.T.);
#932=FACE_BOUND('',#834,.T.);
#933=FACE_BOUND('',#835,.T.);
#934=FACE_BOUND('',#836,.T.);
#935=FACE_BOUND('',#837,.T.);
#936=FACE_BOUND('',#838,.T.);
#937=FACE_BOUND('',#839,.T.);
#938=FACE_BOUND('',#840,.T.);
#939=FACE_BOUND('',#841,.T.);
#940=FACE_BOUND('',#842,.T.);
#941=FACE_BOUND('',#843,.T.);
#942=FACE_BOUND('',#844,.T.);
#943=FACE_BOUND('',#845,.T.);
#944=FACE_BOUND('',#846,.T.);
#945=FACE_BOUND('',#847,.T.);
#946=FACE_BOUND('',#848,.T.);
#947=FACE_BOUND('',#849,.T.);
#948=FACE_BOUND('',#850,.T.);
#949=FACE_BOUND('',#851,.T.);
#950=FACE_BOUND('',#852,.T.);
#951=FACE_BOUND('',#853,.T.);
#952=FACE_BOUND('',#854,.T.);
#953=FACE_BOUND('',#855,.T.);
#954=FACE_BOUND('',#856,.T.);
#955=FACE_BOUND('',#857,.T.);
#956=FACE_BOUND('',#858,.T.);
#957=FACE_BOUND('',#859,.T.);
#958=FACE_BOUND('',#860,.T.);
#959=FACE_BOUND('',#861,.T.);
#960=FACE_BOUND('',#862,.T.);
#961=FACE_BOUND('',#863,.T.);
#962=FACE_BOUND('',#864,.T.);
#963=FACE_BOUND('',#865,.T.);
#964=PLANE('',#1065);
#965=PLANE('',#1066);
#966=PLANE('',#1083);
#967=PLANE('',#1088);
#968=PLANE('',#1091);
#969=PLANE('',#1092);
#970=PLANE('',#1093);
#971=PLANE('',#1094);
#972=PLANE('',#1099);
#973=PLANE('',#1100);
#974=PLANE('',#1101);
#975=PLANE('',#1102);
#976=PLANE('',#1103);
#977=PLANE('',#1104);
#978=PLANE('',#1108);
#979=PLANE('',#1112);
#980=PLANE('',#1116);
#981=PLANE('',#1120);
#982=PLANE('',#1121);
#983=PLANE('',#1130);
#984=PLANE('',#1131);
#985=ADVANCED_FACE('',(#866),#964,.F.);
#986=ADVANCED_FACE('',(#867,#868,#869,#870,#871,#872),#965,.F.);
#987=ADVANCED_FACE('',(#873,#874),#966,.F.);
#988=ADVANCED_FACE('',(#875),#967,.T.);
#989=ADVANCED_FACE('',(#876),#968,.F.);
#990=ADVANCED_FACE('',(#877),#969,.F.);
#991=ADVANCED_FACE('',(#878),#970,.T.);
#992=ADVANCED_FACE('',(#879,#880),#971,.F.);
#993=ADVANCED_FACE('',(#881),#972,.T.);
#994=ADVANCED_FACE('',(#882),#973,.T.);
#995=ADVANCED_FACE('',(#883),#974,.F.);
#996=ADVANCED_FACE('',(#884),#975,.T.);
#997=ADVANCED_FACE('',(#885),#976,.F.);
#998=ADVANCED_FACE('',(#886),#977,.T.);
#999=ADVANCED_FACE('',(#887,#888),#36,.T.);
#1000=ADVANCED_FACE('',(#889),#978,.F.);
#1001=ADVANCED_FACE('',(#890,#891),#37,.T.);
#1002=ADVANCED_FACE('',(#892),#979,.F.);
#1003=ADVANCED_FACE('',(#893,#894),#38,.T.);
#1004=ADVANCED_FACE('',(#895),#980,.F.);
#1005=ADVANCED_FACE('',(#896,#897),#39,.T.);
#1006=ADVANCED_FACE('',(#898),#981,.F.);
#1007=ADVANCED_FACE('',(#899,#900,#901,#902,#903),#982,.T.);
#1008=ADVANCED_FACE('',(#904),#983,.F.);
#1009=ADVANCED_FACE('',(#905),#984,.F.);
#1010=ADVANCED_FACE('',(#906,#907),#32,.F.);
#1011=ADVANCED_FACE('',(#908,#909),#40,.F.);
#1012=ADVANCED_FACE('',(#910,#911),#33,.F.);
#1013=ADVANCED_FACE('',(#912,#913),#41,.F.);
#1014=ADVANCED_FACE('',(#914,#915),#34,.F.);
#1015=ADVANCED_FACE('',(#916,#917),#42,.F.);
#1016=ADVANCED_FACE('',(#918,#919),#35,.F.);
#1017=ADVANCED_FACE('',(#920,#921),#43,.F.);
#1018=ADVANCED_FACE('',(#922),#44,.F.);
#1019=ADVANCED_FACE('',(#923),#45,.F.);
#1020=ADVANCED_FACE('',(#924),#46,.F.);
#1021=ADVANCED_FACE('',(#925),#47,.F.);
#1022=ADVANCED_FACE('',(#926),#48,.F.);
#1023=ADVANCED_FACE('',(#927),#49,.F.);
#1024=ADVANCED_FACE('',(#928),#24,.F.);
#1025=ADVANCED_FACE('',(#929),#50,.F.);
#1026=ADVANCED_FACE('',(#930),#51,.F.);
#1027=ADVANCED_FACE('',(#931),#25,.F.);
#1028=ADVANCED_FACE('',(#932),#52,.F.);
#1029=ADVANCED_FACE('',(#933),#53,.F.);
#1030=ADVANCED_FACE('',(#934),#54,.F.);
#1031=ADVANCED_FACE('',(#935),#55,.F.);
#1032=ADVANCED_FACE('',(#936),#56,.F.);
#1033=ADVANCED_FACE('',(#937),#57,.T.);
#1034=ADVANCED_FACE('',(#938),#58,.T.);
#1035=ADVANCED_FACE('',(#939),#59,.T.);
#1036=ADVANCED_FACE('',(#940),#60,.T.);
#1037=ADVANCED_FACE('',(#941),#61,.F.);
#1038=ADVANCED_FACE('',(#942),#62,.T.);
#1039=ADVANCED_FACE('',(#943),#12,.T.);
#1040=ADVANCED_FACE('',(#944),#63,.T.);
#1041=ADVANCED_FACE('',(#945),#13,.T.);
#1042=ADVANCED_FACE('',(#946),#64,.T.);
#1043=ADVANCED_FACE('',(#947),#65,.F.);
#1044=ADVANCED_FACE('',(#948,#949),#14,.T.);
#1045=ADVANCED_FACE('',(#950,#951),#15,.T.);
#1046=ADVANCED_FACE('',(#952,#953),#16,.T.);
#1047=ADVANCED_FACE('',(#954,#955),#17,.T.);
#1048=ADVANCED_FACE('',(#956,#957),#18,.F.);
#1049=ADVANCED_FACE('',(#958,#959),#19,.F.);
#1050=ADVANCED_FACE('',(#960,#961),#20,.F.);
#1051=ADVANCED_FACE('',(#962,#963),#21,.F.);
#1052=CLOSED_SHELL('',(#985,#986,#987,#988,#989,#990,#991,#992,#993,#994,
#995,#996,#997,#998,#999,#1000,#1001,#1002,#1003,#1004,#1005,#1006,#1007,
#1008,#1009,#1010,#1011,#1012,#1013,#1014,#1015,#1016,#1017,#1018,#1019,
#1020,#1021,#1022,#1023,#1024,#1025,#1026,#1027,#1028,#1029,#1030,#1031,
#1032,#1033,#1034,#1035,#1036,#1037,#1038,#1039,#1040,#1041,#1042,#1043,
#1044,#1045,#1046,#1047,#1048,#1049,#1050,#1051));
#1053=STYLED_ITEM('',(#1054),#1061);
#1054=PRESENTATION_STYLE_ASSIGNMENT((#1055));
#1055=SURFACE_STYLE_USAGE(.BOTH.,#1056);
#1056=SURFACE_SIDE_STYLE('',(#1057));
#1057=SURFACE_STYLE_FILL_AREA(#1058);
#1058=FILL_AREA_STYLE('',(#1059));
#1059=FILL_AREA_STYLE_COLOUR('',#1060);
#1060=COLOUR_RGB('',0.647058823529412,0.647058823529412,0.647058823529412);
#1061=MANIFOLD_SOLID_BREP('RaspberryPi Container',#1052);
#1062=SHAPE_DEFINITION_REPRESENTATION(#1850,#1063);
#1063=SHAPE_REPRESENTATION('RaspberryPi Container',(#1064),#1845);
#1064=AXIS2_PLACEMENT_3D('',#1534,#1198,#1199);
#1065=AXIS2_PLACEMENT_3D('',#1535,#1200,#1201);
#1066=AXIS2_PLACEMENT_3D('',#1544,#1206,#1207);
#1067=AXIS2_PLACEMENT_3D('',#1545,#1208,#1209);
#1068=AXIS2_PLACEMENT_3D('',#1547,#1210,#1211);
#1069=AXIS2_PLACEMENT_3D('',#1549,#1212,#1213);
#1070=AXIS2_PLACEMENT_3D('',#1551,#1214,#1215);
#1071=AXIS2_PLACEMENT_3D('',#1556,#1217,#1218);
#1072=AXIS2_PLACEMENT_3D('',#1560,#1220,#1221);
#1073=AXIS2_PLACEMENT_3D('',#1564,#1223,#1224);
#1074=AXIS2_PLACEMENT_3D('',#1568,#1226,#1227);
#1075=AXIS2_PLACEMENT_3D('',#1572,#1229,#1230);
#1076=AXIS2_PLACEMENT_3D('',#1574,#1231,#1232);
#1077=AXIS2_PLACEMENT_3D('',#1578,#1234,#1235);
#1078=AXIS2_PLACEMENT_3D('',#1582,#1237,#1238);
#1079=AXIS2_PLACEMENT_3D('',#1586,#1240,#1241);
#1080=AXIS2_PLACEMENT_3D('',#1590,#1243,#1244);
#1081=AXIS2_PLACEMENT_3D('',#1594,#1246,#1247);
#1082=AXIS2_PLACEMENT_3D('',#1596,#1248,#1249);
#1083=AXIS2_PLACEMENT_3D('',#1597,#1250,#1251);
#1084=AXIS2_PLACEMENT_3D('',#1601,#1253,#1254);
#1085=AXIS2_PLACEMENT_3D('',#1605,#1256,#1257);
#1086=AXIS2_PLACEMENT_3D('',#1609,#1259,#1260);
#1087=AXIS2_PLACEMENT_3D('',#1613,#1262,#1263);
#1088=AXIS2_PLACEMENT_3D('',#1619,#1267,#1268);
#1089=AXIS2_PLACEMENT_3D('',#1622,#1270,#1271);
#1090=AXIS2_PLACEMENT_3D('',#1626,#1273,#1274);
#1091=AXIS2_PLACEMENT_3D('',#1635,#1280,#1281);
#1092=AXIS2_PLACEMENT_3D('',#1641,#1285,#1286);
#1093=AXIS2_PLACEMENT_3D('',#1648,#1291,#1292);
#1094=AXIS2_PLACEMENT_3D('',#1654,#1296,#1297);
#1095=AXIS2_PLACEMENT_3D('',#1658,#1299,#1300);
#1096=AXIS2_PLACEMENT_3D('',#1662,#1302,#1303);
#1097=AXIS2_PLACEMENT_3D('',#1663,#1304,#1305);
#1098=AXIS2_PLACEMENT_3D('',#1667,#1307,#1308);
#1099=AXIS2_PLACEMENT_3D('',#1673,#1312,#1313);
#1100=AXIS2_PLACEMENT_3D('',#1679,#1317,#1318);
#1101=AXIS2_PLACEMENT_3D('',#1685,#1322,#1323);
#1102=AXIS2_PLACEMENT_3D('',#1688,#1326,#1327);
#1103=AXIS2_PLACEMENT_3D('',#1694,#1331,#1332);
#1104=AXIS2_PLACEMENT_3D('',#1700,#1336,#1337);
#1105=AXIS2_PLACEMENT_3D('',#1706,#1341,#1342);
#1106=AXIS2_PLACEMENT_3D('',#1707,#1343,#1344);
#1107=AXIS2_PLACEMENT_3D('',#1709,#1345,#1346);
#1108=AXIS2_PLACEMENT_3D('',#1711,#1347,#1348);
#1109=AXIS2_PLACEMENT_3D('',#1712,#1349,#1350);
#1110=AXIS2_PLACEMENT_3D('',#1713,#1351,#1352);
#1111=AXIS2_PLACEMENT_3D('',#1715,#1353,#1354);
#1112=AXIS2_PLACEMENT_3D('',#1717,#1355,#1356);
#1113=AXIS2_PLACEMENT_3D('',#1718,#1357,#1358);
#1114=AXIS2_PLACEMENT_3D('',#1719,#1359,#1360);
#1115=AXIS2_PLACEMENT_3D('',#1721,#1361,#1362);
#1116=AXIS2_PLACEMENT_3D('',#1723,#1363,#1364);
#1117=AXIS2_PLACEMENT_3D('',#1724,#1365,#1366);
#1118=AXIS2_PLACEMENT_3D('',#1725,#1367,#1368);
#1119=AXIS2_PLACEMENT_3D('',#1727,#1369,#1370);
#1120=AXIS2_PLACEMENT_3D('',#1729,#1371,#1372);
#1121=AXIS2_PLACEMENT_3D('',#1730,#1373,#1374);
#1122=AXIS2_PLACEMENT_3D('',#1731,#1375,#1376);
#1123=AXIS2_PLACEMENT_3D('',#1733,#1377,#1378);
#1124=AXIS2_PLACEMENT_3D('',#1735,#1379,#1380);
#1125=AXIS2_PLACEMENT_3D('',#1737,#1381,#1382);
#1126=AXIS2_PLACEMENT_3D('',#1739,#1383,#1384);
#1127=AXIS2_PLACEMENT_3D('',#1740,#1385,#1386);
#1128=AXIS2_PLACEMENT_3D('',#1741,#1387,#1388);
#1129=AXIS2_PLACEMENT_3D('',#1742,#1389,#1390);
#1130=AXIS2_PLACEMENT_3D('',#1743,#1391,#1392);
#1131=AXIS2_PLACEMENT_3D('',#1749,#1396,#1397);
#1132=AXIS2_PLACEMENT_3D('',#1750,#1398,#1399);
#1133=AXIS2_PLACEMENT_3D('',#1755,#1402,#1403);
#1134=AXIS2_PLACEMENT_3D('',#1756,#1404,#1405);
#1135=AXIS2_PLACEMENT_3D('',#1758,#1406,#1407);
#1136=AXIS2_PLACEMENT_3D('',#1760,#1408,#1409);
#1137=AXIS2_PLACEMENT_3D('',#1761,#1410,#1411);
#1138=AXIS2_PLACEMENT_3D('',#1763,#1412,#1413);
#1139=AXIS2_PLACEMENT_3D('',#1765,#1414,#1415);
#1140=AXIS2_PLACEMENT_3D('',#1767,#1416,#1417);
#1141=AXIS2_PLACEMENT_3D('',#1768,#1418,#1419);
#1142=AXIS2_PLACEMENT_3D('',#1770,#1420,#1421);
#1143=AXIS2_PLACEMENT_3D('',#1772,#1422,#1423);
#1144=AXIS2_PLACEMENT_3D('',#1774,#1424,#1425);
#1145=AXIS2_PLACEMENT_3D('',#1775,#1426,#1427);
#1146=AXIS2_PLACEMENT_3D('',#1777,#1428,#1429);
#1147=AXIS2_PLACEMENT_3D('',#1779,#1430,#1431);
#1148=AXIS2_PLACEMENT_3D('',#1781,#1432,#1433);
#1149=AXIS2_PLACEMENT_3D('',#1782,#1434,#1435);
#1150=AXIS2_PLACEMENT_3D('',#1784,#1436,#1437);
#1151=AXIS2_PLACEMENT_3D('',#1785,#1438,#1439);
#1152=AXIS2_PLACEMENT_3D('',#1786,#1440,#1441);
#1153=AXIS2_PLACEMENT_3D('',#1787,#1442,#1443);
#1154=AXIS2_PLACEMENT_3D('',#1788,#1444,#1445);
#1155=AXIS2_PLACEMENT_3D('',#1789,#1446,#1447);
#1156=AXIS2_PLACEMENT_3D('',#1790,#1448,#1449);
#1157=AXIS2_PLACEMENT_3D('',#1791,#1450,#1451);
#1158=AXIS2_PLACEMENT_3D('',#1792,#1452,#1453);
#1159=AXIS2_PLACEMENT_3D('',#1793,#1454,#1455);
#1160=AXIS2_PLACEMENT_3D('',#1794,#1456,#1457);
#1161=AXIS2_PLACEMENT_3D('',#1795,#1458,#1459);
#1162=AXIS2_PLACEMENT_3D('',#1796,#1460,#1461);
#1163=AXIS2_PLACEMENT_3D('',#1797,#1462,#1463);
#1164=AXIS2_PLACEMENT_3D('',#1798,#1464,#1465);
#1165=AXIS2_PLACEMENT_3D('',#1799,#1466,#1467);
#1166=AXIS2_PLACEMENT_3D('',#1800,#1468,#1469);
#1167=AXIS2_PLACEMENT_3D('',#1801,#1470,#1471);
#1168=AXIS2_PLACEMENT_3D('',#1802,#1472,#1473);
#1169=AXIS2_PLACEMENT_3D('',#1803,#1474,#1475);
#1170=AXIS2_PLACEMENT_3D('',#1809,#1476,#1477);
#1171=AXIS2_PLACEMENT_3D('',#1810,#1478,#1479);
#1172=AXIS2_PLACEMENT_3D('',#1811,#1480,#1481);
#1173=AXIS2_PLACEMENT_3D('',#1812,#1482,#1483);
#1174=AXIS2_PLACEMENT_3D('',#1813,#1484,#1485);
#1175=AXIS2_PLACEMENT_3D('',#1819,#1486,#1487);
#1176=AXIS2_PLACEMENT_3D('',#1820,#1488,#1489);
#1177=AXIS2_PLACEMENT_3D('',#1821,#1490,#1491);
#1178=AXIS2_PLACEMENT_3D('',#1822,#1492,#1493);
#1179=AXIS2_PLACEMENT_3D('',#1823,#1494,#1495);
#1180=AXIS2_PLACEMENT_3D('',#1825,#1497,#1498);
#1181=AXIS2_PLACEMENT_3D('',#1826,#1499,#1500);
#1182=AXIS2_PLACEMENT_3D('',#1827,#1501,#1502);
#1183=AXIS2_PLACEMENT_3D('',#1828,#1503,#1504);
#1184=AXIS2_PLACEMENT_3D('',#1829,#1505,#1506);
#1185=AXIS2_PLACEMENT_3D('',#1830,#1507,#1508);
#1186=AXIS2_PLACEMENT_3D('',#1831,#1509,#1510);
#1187=AXIS2_PLACEMENT_3D('',#1832,#1511,#1512);
#1188=AXIS2_PLACEMENT_3D('',#1833,#1513,#1514);
#1189=AXIS2_PLACEMENT_3D('',#1835,#1516,#1517);
#1190=AXIS2_PLACEMENT_3D('',#1836,#1518,#1519);
#1191=AXIS2_PLACEMENT_3D('',#1837,#1520,#1521);
#1192=AXIS2_PLACEMENT_3D('',#1838,#1522,#1523);
#1193=AXIS2_PLACEMENT_3D('',#1839,#1524,#1525);
#1194=AXIS2_PLACEMENT_3D('',#1840,#1526,#1527);
#1195=AXIS2_PLACEMENT_3D('',#1841,#1528,#1529);
#1196=AXIS2_PLACEMENT_3D('',#1842,#1530,#1531);
#1197=AXIS2_PLACEMENT_3D('',#1843,#1532,#1533);
#1198=DIRECTION('',(0.,0.,1.));
#1199=DIRECTION('',(1.,0.,0.));
#1200=DIRECTION('',(1.82602471155453E-16,-2.13549298978478E-32,-1.));
#1201=DIRECTION('',(-1.,0.,-1.82602471155453E-16));
#1202=DIRECTION('',(-1.,0.,-1.82602471155453E-16));
#1203=DIRECTION('',(-1.16947650065852E-16,-1.,0.));
#1204=DIRECTION('',(-1.,-1.21734980770302E-16,-1.82602471155453E-16));
#1205=DIRECTION('',(-1.16947650065852E-16,-1.,0.));
#1206=DIRECTION('',(0.,0.,1.));
#1207=DIRECTION('',(1.,0.,0.));
#1208=DIRECTION('',(0.,0.,1.));
#1209=DIRECTION('',(1.,0.,0.));
#1210=DIRECTION('',(0.,0.,1.));
#1211=DIRECTION('',(1.,0.,0.));
#1212=DIRECTION('',(0.,0.,1.));
#1213=DIRECTION('',(1.,0.,0.));
#1214=DIRECTION('',(0.,0.,1.));
#1215=DIRECTION('',(1.,0.,0.));
#1216=DIRECTION('',(1.86279030977375E-16,-1.,0.));
#1217=DIRECTION('',(0.,0.,1.));
#1218=DIRECTION('',(1.,0.,0.));
#1219=DIRECTION('',(-1.,0.,0.));
#1220=DIRECTION('',(0.,0.,1.));
#1221=DIRECTION('',(1.,0.,0.));
#1222=DIRECTION('',(1.86279030977375E-16,-1.,0.));
#1223=DIRECTION('',(0.,0.,1.));
#1224=DIRECTION('',(1.,0.,0.));
#1225=DIRECTION('',(-1.,0.,0.));
#1226=DIRECTION('',(0.,0.,1.));
#1227=DIRECTION('',(1.,0.,0.));
#1228=DIRECTION('',(1.,1.21734980770302E-16,0.));
#1229=DIRECTION('',(0.,0.,1.));
#1230=DIRECTION('',(1.,0.,0.));
#1231=DIRECTION('',(0.,0.,1.));
#1232=DIRECTION('',(1.,0.,0.));
#1233=DIRECTION('',(-1.,1.16947650065852E-16,0.));
#1234=DIRECTION('',(0.,0.,1.));
#1235=DIRECTION('',(1.,0.,0.));
#1236=DIRECTION('',(-2.43469961540605E-16,-1.,0.));
#1237=DIRECTION('',(0.,0.,1.));
#1238=DIRECTION('',(1.,0.,0.));
#1239=DIRECTION('',(-1.,1.55930200087803E-16,0.));
#1240=DIRECTION('',(0.,0.,1.));
#1241=DIRECTION('',(1.,0.,0.));
#1242=DIRECTION('',(-2.43469961540605E-16,-1.,0.));
#1243=DIRECTION('',(0.,0.,1.));
#1244=DIRECTION('',(1.,0.,0.));
#1245=DIRECTION('',(-1.,1.16947650065852E-16,0.));
#1246=DIRECTION('',(0.,0.,1.));
#1247=DIRECTION('',(1.,0.,0.));
#1248=DIRECTION('',(0.,0.,1.));
#1249=DIRECTION('',(1.,0.,0.));
#1250=DIRECTION('',(1.,1.86279030977375E-16,0.));
#1251=DIRECTION('',(-1.86279030977375E-16,1.,0.));
#1252=DIRECTION('',(1.86279030977375E-16,-1.,0.));
#1253=DIRECTION('',(1.,1.86279030977375E-16,0.));
#1254=DIRECTION('',(-1.86279030977375E-16,1.,0.));
#1255=DIRECTION('',(0.,0.,1.));
#1256=DIRECTION('',(1.,1.86279030977375E-16,0.));
#1257=DIRECTION('',(-1.86279030977375E-16,1.,0.));
#1258=DIRECTION('',(1.86279030977375E-16,-1.,0.));
#1259=DIRECTION('',(1.,1.86279030977375E-16,0.));
#1260=DIRECTION('',(-1.86279030977375E-16,1.,0.));
#1261=DIRECTION('',(0.,0.,1.));
#1262=DIRECTION('',(1.,1.86279030977375E-16,0.));
#1263=DIRECTION('',(-1.86279030977375E-16,1.,0.));
#1264=DIRECTION('',(1.86279030977375E-16,-1.,0.));
#1265=DIRECTION('',(0.,0.,-1.));
#1266=DIRECTION('',(0.,0.,-1.));
#1267=DIRECTION('',(-1.16947650065852E-16,-1.,0.));
#1268=DIRECTION('',(1.,-1.16947650065852E-16,0.));
#1269=DIRECTION('',(0.,0.,1.));
#1270=DIRECTION('',(-1.16947650065852E-16,-1.,0.));
#1271=DIRECTION('',(1.,-1.16947650065852E-16,0.));
#1272=DIRECTION('',(1.,-1.16947650065852E-16,1.82602471155453E-16));
#1273=DIRECTION('',(-1.16947650065852E-16,-1.,0.));
#1274=DIRECTION('',(1.,-1.16947650065852E-16,0.));
#1275=DIRECTION('',(0.,0.,1.));
#1276=DIRECTION('',(0.,0.,-1.));
#1277=DIRECTION('',(-1.,1.16947650065852E-16,0.));
#1278=DIRECTION('',(1.,-1.16947650065852E-16,0.));
#1279=DIRECTION('',(0.,0.,-1.));
#1280=DIRECTION('',(1.,-2.43469961540605E-16,0.));
#1281=DIRECTION('',(2.43469961540605E-16,1.,0.));
#1282=DIRECTION('',(0.,0.,-1.));
#1283=DIRECTION('',(-2.43469961540605E-16,-1.,0.));
#1284=DIRECTION('',(0.,0.,-1.));
#1285=DIRECTION('',(-1.55930200087803E-16,-1.,0.));
#1286=DIRECTION('',(1.,-1.55930200087803E-16,0.));
#1287=DIRECTION('',(-1.,1.55930200087803E-16,0.));
#1288=DIRECTION('',(0.,0.,-1.));
#1289=DIRECTION('',(0.,0.,-1.));
#1290=DIRECTION('',(1.,-1.55930200087803E-16,0.));
#1291=DIRECTION('',(1.,1.86279030977375E-16,0.));
#1292=DIRECTION('',(-1.86279030977375E-16,1.,0.));
#1293=DIRECTION('',(1.86279030977375E-16,-1.,0.));
#1294=DIRECTION('',(0.,0.,-1.));
#1295=DIRECTION('',(0.,0.,-1.));
#1296=DIRECTION('',(0.,-1.,0.));
#1297=DIRECTION('',(0.,0.,-1.));
#1298=DIRECTION('',(-1.,0.,-1.82602471155453E-16));
#1299=DIRECTION('',(0.,-1.,0.));
#1300=DIRECTION('',(0.,0.,-1.));
#1301=DIRECTION('',(0.,0.,-1.));
#1302=DIRECTION('',(0.,-1.,0.));
#1303=DIRECTION('',(0.,0.,-1.));
#1304=DIRECTION('',(0.,-1.,0.));
#1305=DIRECTION('',(0.,0.,-1.));
#1306=DIRECTION('',(0.,0.,-1.));
#1307=DIRECTION('',(0.,-1.,0.));
#1308=DIRECTION('',(0.,0.,-1.));
#1309=DIRECTION('',(0.,0.,-1.));
#1310=DIRECTION('',(-1.,0.,0.));
#1311=DIRECTION('',(0.,0.,-1.));
#1312=DIRECTION('',(0.,-1.,0.));
#1313=DIRECTION('',(0.,0.,-1.));
#1314=DIRECTION('',(-1.,0.,0.));
#1315=DIRECTION('',(0.,0.,-1.));
#1316=DIRECTION('',(0.,0.,-1.));
#1317=DIRECTION('',(1.,-2.43469961540605E-16,0.));
#1318=DIRECTION('',(2.43469961540605E-16,1.,0.));
#1319=DIRECTION('',(0.,0.,-1.));
#1320=DIRECTION('',(2.43469961540605E-16,1.,0.));
#1321=DIRECTION('',(0.,0.,-1.));
#1322=DIRECTION('',(0.,0.,-1.));
#1323=DIRECTION('',(-1.,0.,0.));
#1324=DIRECTION('',(1.,-1.16947650065852E-16,0.));
#1325=DIRECTION('',(1.,-1.55930200087803E-16,0.));
#1326=DIRECTION('',(1.,-1.16947650065852E-16,0.));
#1327=DIRECTION('',(1.16947650065852E-16,1.,0.));
#1328=DIRECTION('',(0.,0.,1.));
#1329=DIRECTION('',(-1.16947650065852E-16,-1.,0.));
#1330=DIRECTION('',(-1.16947650065852E-16,-1.,0.));
#1331=DIRECTION('',(1.,-1.16947650065852E-16,0.));
#1332=DIRECTION('',(1.16947650065852E-16,1.,0.));
#1333=DIRECTION('',(-1.16947650065852E-16,-1.,0.));
#1334=DIRECTION('',(0.,0.,1.));
#1335=DIRECTION('',(-1.16947650065852E-16,-1.,0.));
#1336=DIRECTION('',(1.82602471155453E-16,-2.13549298978478E-32,-1.));
#1337=DIRECTION('',(-1.,0.,-1.82602471155453E-16));
#1338=DIRECTION('',(-1.16947650065852E-16,-1.,0.));
#1339=DIRECTION('',(1.,-1.16947650065852E-16,1.82602471155453E-16));
#1340=DIRECTION('',(-1.16947650065852E-16,-1.,0.));
#1341=DIRECTION('',(0.,0.,1.));
#1342=DIRECTION('',(1.,0.,0.));
#1343=DIRECTION('',(0.,0.,1.));
#1344=DIRECTION('',(1.,0.,0.));
#1345=DIRECTION('',(0.,0.,1.));
#1346=DIRECTION('',(1.,0.,0.));
#1347=DIRECTION('',(0.,0.,1.));
#1348=DIRECTION('',(1.,0.,0.));
#1349=DIRECTION('',(0.,0.,1.));
#1350=DIRECTION('',(1.,0.,0.));
#1351=DIRECTION('',(0.,0.,1.));
#1352=DIRECTION('',(1.,0.,0.));
#1353=DIRECTION('',(0.,0.,1.));
#1354=DIRECTION('',(1.,0.,0.));
#1355=DIRECTION('',(0.,0.,1.));
#1356=DIRECTION('',(1.,0.,0.));
#1357=DIRECTION('',(0.,0.,1.));
#1358=DIRECTION('',(1.,0.,0.));
#1359=DIRECTION('',(0.,0.,1.));
#1360=DIRECTION('',(1.,0.,0.));
#1361=DIRECTION('',(0.,0.,1.));
#1362=DIRECTION('',(1.,0.,0.));
#1363=DIRECTION('',(0.,0.,1.));
#1364=DIRECTION('',(1.,0.,0.));
#1365=DIRECTION('',(0.,0.,1.));
#1366=DIRECTION('',(1.,0.,0.));
#1367=DIRECTION('',(0.,0.,1.));
#1368=DIRECTION('',(1.,0.,0.));
#1369=DIRECTION('',(0.,0.,1.));
#1370=DIRECTION('',(1.,0.,0.));
#1371=DIRECTION('',(0.,0.,1.));
#1372=DIRECTION('',(1.,0.,0.));
#1373=DIRECTION('',(0.,0.,1.));
#1374=DIRECTION('',(1.,0.,0.));
#1375=DIRECTION('',(0.,0.,1.));
#1376=DIRECTION('',(1.,0.,0.));
#1377=DIRECTION('',(0.,0.,1.));
#1378=DIRECTION('',(1.,0.,0.));
#1379=DIRECTION('',(0.,0.,1.));
#1380=DIRECTION('',(1.,0.,0.));
#1381=DIRECTION('',(0.,0.,1.));
#1382=DIRECTION('',(1.,0.,0.));
#1383=DIRECTION('',(0.,0.,1.));
#1384=DIRECTION('',(1.,0.,0.));
#1385=DIRECTION('',(0.,0.,1.));
#1386=DIRECTION('',(1.,0.,0.));
#1387=DIRECTION('',(0.,0.,1.));
#1388=DIRECTION('',(1.,0.,0.));
#1389=DIRECTION('',(0.,0.,1.));
#1390=DIRECTION('',(1.,0.,0.));
#1391=DIRECTION('',(0.,0.,1.));
#1392=DIRECTION('',(1.,0.,0.));
#1393=DIRECTION('',(-2.43469961540605E-16,-1.,0.));
#1394=DIRECTION('',(-1.,1.55930200087803E-16,0.));
#1395=DIRECTION('',(-1.,1.16947650065852E-16,0.));
#1396=DIRECTION('',(-1.21734980770302E-16,1.,-4.35840382125666E-32));
#1397=DIRECTION('',(-1.,-1.21734980770302E-16,0.));
#1398=DIRECTION('',(-1.21734980770302E-16,1.,-4.35840382125666E-32));
#1399=DIRECTION('',(-1.,-1.21734980770302E-16,0.));
#1400=DIRECTION('',(5.09705084933997E-48,4.35840382125666E-32,1.));
#1401=DIRECTION('',(5.09705084933997E-48,4.35840382125666E-32,1.));
#1402=DIRECTION('',(-1.21734980770302E-16,1.,-4.35840382125666E-32));
#1403=DIRECTION('',(-1.,-1.21734980770302E-16,0.));
#1404=DIRECTION('',(0.,0.,1.));
#1405=DIRECTION('',(1.,0.,0.));
#1406=DIRECTION('',(0.,0.,-1.));
#1407=DIRECTION('',(-1.,0.,0.));
#1408=DIRECTION('',(0.,0.,-1.));
#1409=DIRECTION('',(-1.,0.,0.));
#1410=DIRECTION('',(0.,0.,1.));
#1411=DIRECTION('',(1.,0.,0.));
#1412=DIRECTION('',(0.,0.,1.));
#1413=DIRECTION('',(1.,0.,0.));
#1414=DIRECTION('',(0.,0.,-1.));
#1415=DIRECTION('',(-1.,0.,0.));
#1416=DIRECTION('',(0.,0.,-1.));
#1417=DIRECTION('',(-1.,0.,0.));
#1418=DIRECTION('',(0.,0.,1.));
#1419=DIRECTION('',(1.,0.,0.));
#1420=DIRECTION('',(0.,0.,1.));
#1421=DIRECTION('',(1.,0.,0.));
#1422=DIRECTION('',(0.,0.,-1.));
#1423=DIRECTION('',(-1.,0.,0.));
#1424=DIRECTION('',(0.,0.,-1.));
#1425=DIRECTION('',(-1.,0.,0.));
#1426=DIRECTION('',(0.,0.,1.));
#1427=DIRECTION('',(1.,0.,0.));
#1428=DIRECTION('',(0.,0.,1.));
#1429=DIRECTION('',(1.,0.,0.));
#1430=DIRECTION('',(0.,0.,-1.));
#1431=DIRECTION('',(-1.,0.,0.));
#1432=DIRECTION('',(0.,0.,-1.));
#1433=DIRECTION('',(-1.,0.,0.));
#1434=DIRECTION('',(0.,0.,1.));
#1435=DIRECTION('',(1.,0.,0.));
#1436=DIRECTION('',(1.,-1.16947650065852E-16,0.));
#1437=DIRECTION('',(1.16947650065852E-16,1.,0.));
#1438=DIRECTION('',(0.707106781186548,-8.26944764053955E-17,-0.707106781186548));
#1439=DIRECTION('',(0.707106781186548,-8.26944764053955E-17,0.707106781186548));
#1440=DIRECTION('',(0.,0.,1.));
#1441=DIRECTION('',(1.,0.,0.));
#1442=DIRECTION('',(-1.,1.55930200087803E-16,0.));
#1443=DIRECTION('',(-1.55930200087803E-16,-1.,0.));
#1444=DIRECTION('',(-0.707106781186548,1.10259301873861E-16,0.707106781186548));
#1445=DIRECTION('',(-0.707106781186548,1.10259301873861E-16,-0.707106781186548));
#1446=DIRECTION('',(0.,0.,-1.));
#1447=DIRECTION('',(-1.,0.,0.));
#1448=DIRECTION('',(0.,0.,-1.));
#1449=DIRECTION('',(-1.,0.,0.));
#1450=DIRECTION('',(0.,0.,-1.));
#1451=DIRECTION('',(-1.,0.,0.));
#1452=DIRECTION('',(-1.,1.16947650065852E-16,0.));
#1453=DIRECTION('',(-1.16947650065852E-16,-1.,0.));
#1454=DIRECTION('',(-1.,0.,0.));
#1455=DIRECTION('',(0.,0.,1.));
#1456=DIRECTION('',(0.,1.,0.));
#1457=DIRECTION('',(0.,0.,1.));
#1458=DIRECTION('',(0.,-1.,-1.73472347597681E-15));
#1459=DIRECTION('',(0.,1.73472347597681E-15,-1.));
#1460=DIRECTION('',(0.,0.,1.));
#1461=DIRECTION('',(1.,0.,0.));
#1462=DIRECTION('',(0.,0.,-1.));
#1463=DIRECTION('',(-1.,0.,0.));
#1464=DIRECTION('',(2.43469961540605E-16,1.,0.));
#1465=DIRECTION('',(-1.,2.43469961540605E-16,0.));
#1466=DIRECTION('',(0.,1.,0.));
#1467=DIRECTION('',(0.,0.,1.));
#1468=DIRECTION('',(1.,0.,0.));
#1469=DIRECTION('',(0.,0.,-1.));
#1470=DIRECTION('',(-1.,0.,0.));
#1471=DIRECTION('',(0.,0.,1.));
#1472=DIRECTION('',(1.,-1.55930200087803E-16,0.));
#1473=DIRECTION('',(1.55930200087803E-16,1.,0.));
#1474=DIRECTION('',(-1.16947650065852E-16,-1.,0.));
#1475=DIRECTION('',(1.,-1.16947650065852E-16,0.));
#1476=DIRECTION('',(1.16947650065852E-16,1.,0.));
#1477=DIRECTION('',(-1.,1.16947650065852E-16,0.));
#1478=DIRECTION('',(-1.16947650065852E-16,-1.,0.));
#1479=DIRECTION('',(1.,-1.16947650065852E-16,0.));
#1480=DIRECTION('',(-1.16947650065852E-16,-1.,0.));
#1481=DIRECTION('',(1.,-1.16947650065852E-16,0.));
#1482=DIRECTION('',(-1.16947650065852E-16,-1.,0.));
#1483=DIRECTION('',(1.,-1.16947650065852E-16,0.));
#1484=DIRECTION('',(1.16947650065852E-16,1.,0.));
#1485=DIRECTION('',(-1.,1.16947650065852E-16,0.));
#1486=DIRECTION('',(0.,0.,-1.));
#1487=DIRECTION('',(-1.,0.,0.));
#1488=DIRECTION('',(0.,0.,1.));
#1489=DIRECTION('',(1.,0.,0.));
#1490=DIRECTION('',(0.,0.,-1.));
#1491=DIRECTION('',(-1.,0.,0.));
#1492=DIRECTION('',(0.,0.,1.));
#1493=DIRECTION('',(1.,0.,0.));
#1494=DIRECTION('',(-5.09705084933997E-48,-4.35840382125666E-32,-1.));
#1495=DIRECTION('',(0.,1.,-4.35840382125666E-32));
#1496=DIRECTION('',(5.09705084933997E-48,4.35840382125666E-32,1.));
#1497=DIRECTION('',(0.,0.,-1.));
#1498=DIRECTION('',(-1.,0.,0.));
#1499=DIRECTION('',(0.,0.,1.));
#1500=DIRECTION('',(1.,0.,0.));
#1501=DIRECTION('',(-1.16947650065852E-16,-1.,0.));
#1502=DIRECTION('',(1.,-1.16947650065852E-16,0.));
#1503=DIRECTION('',(-1.,0.,0.));
#1504=DIRECTION('',(0.,0.,1.));
#1505=DIRECTION('',(1.,-1.16947650065852E-16,1.82602471155453E-16));
#1506=DIRECTION('',(1.82602471155453E-16,0.,-1.));
#1507=DIRECTION('',(-1.,0.,0.));
#1508=DIRECTION('',(0.,0.,1.));
#1509=DIRECTION('',(-1.16947650065852E-16,-1.,0.));
#1510=DIRECTION('',(1.,-1.16947650065852E-16,0.));
#1511=DIRECTION('',(0.,0.,-1.));
#1512=DIRECTION('',(-1.,0.,0.));
#1513=DIRECTION('',(0.,0.,1.));
#1514=DIRECTION('',(1.,0.,0.));
#1515=DIRECTION('',(0.,0.,1.));
#1516=DIRECTION('',(5.09705084933997E-48,4.35840382125666E-32,1.));
#1517=DIRECTION('',(0.,-1.,4.35840382125666E-32));
#1518=DIRECTION('',(0.,0.,1.));
#1519=DIRECTION('',(1.,0.,0.));
#1520=DIRECTION('',(0.,0.,1.));
#1521=DIRECTION('',(1.,0.,0.));
#1522=DIRECTION('',(0.,0.,1.));
#1523=DIRECTION('',(1.,0.,0.));
#1524=DIRECTION('',(0.,0.,1.));
#1525=DIRECTION('',(1.,0.,0.));
#1526=DIRECTION('',(0.,0.,1.));
#1527=DIRECTION('',(1.,0.,0.));
#1528=DIRECTION('',(0.,0.,1.));
#1529=DIRECTION('',(1.,0.,0.));
#1530=DIRECTION('',(0.,0.,1.));
#1531=DIRECTION('',(1.,0.,0.));
#1532=DIRECTION('',(0.,0.,1.));
#1533=DIRECTION('',(1.,0.,0.));
#1534=CARTESIAN_POINT('',(0.,0.,0.));
#1535=CARTESIAN_POINT('',(0.009,0.037252,0.012));
#1536=CARTESIAN_POINT('',(0.009,0.03725,0.012));
#1537=CARTESIAN_POINT('',(0.0355,0.03725,0.012));
#1538=CARTESIAN_POINT('',(-0.0175,0.03725,0.012));
#1539=CARTESIAN_POINT('',(-0.0175,0.037252,0.012));
#1540=CARTESIAN_POINT('',(-0.0175,0.031,0.012));
#1541=CARTESIAN_POINT('',(0.009,0.031,0.012));
#1542=CARTESIAN_POINT('',(0.0355,0.031,0.012));
#1543=CARTESIAN_POINT('',(0.0355,0.03725,0.012));
#1544=CARTESIAN_POINT('',(0.,0.,0.009));
#1545=CARTESIAN_POINT('',(-0.0505,0.03225,0.009));
#1546=CARTESIAN_POINT('',(-0.04725,0.03225,0.009));
#1547=CARTESIAN_POINT('',(-0.0505,-0.03225,0.009));
#1548=CARTESIAN_POINT('',(-0.04725,-0.03225,0.009));
#1549=CARTESIAN_POINT('',(0.0505,0.03225,0.009));
#1550=CARTESIAN_POINT('',(0.05375,0.03225,0.009));
#1551=CARTESIAN_POINT('',(0.0505,-0.03225,0.009));
#1552=CARTESIAN_POINT('',(0.05375,-0.03225,0.009));
#1553=CARTESIAN_POINT('',(-0.0555,6.93889390390723E-18,0.009));
#1554=CARTESIAN_POINT('',(-0.0555,0.03525,0.009));
#1555=CARTESIAN_POINT('',(-0.0555,-0.03525,0.009));
#1556=CARTESIAN_POINT('',(-0.0535,0.03525,0.009));
#1557=CARTESIAN_POINT('',(-0.0535,0.03725,0.009));
#1558=CARTESIAN_POINT('',(-6.93889390390723E-18,0.03725,0.009));
#1559=CARTESIAN_POINT('',(0.0535,0.03725,0.009));
#1560=CARTESIAN_POINT('',(0.0535,0.03525,0.009));
#1561=CARTESIAN_POINT('',(0.0555,0.03525,0.009));
#1562=CARTESIAN_POINT('',(0.0555,6.93889390390723E-18,0.009));
#1563=CARTESIAN_POINT('',(0.0555,-0.03525,0.009));
#1564=CARTESIAN_POINT('',(0.0535,-0.03525,0.009));
#1565=CARTESIAN_POINT('',(0.0535,-0.03725,0.009));
#1566=CARTESIAN_POINT('',(6.93889390390723E-18,-0.03725,0.009));
#1567=CARTESIAN_POINT('',(-0.0535,-0.03725,0.009));
#1568=CARTESIAN_POINT('',(-0.0535,-0.03525,0.009));
#1569=CARTESIAN_POINT('',(0.009,0.031,0.009));
#1570=CARTESIAN_POINT('',(-0.01825,0.031,0.009));
#1571=CARTESIAN_POINT('',(0.03625,0.031,0.009));
#1572=CARTESIAN_POINT('',(-0.01825,0.02975,0.009));
#1573=CARTESIAN_POINT('',(-0.0195,0.02975,0.009));
#1574=CARTESIAN_POINT('',(-0.02075,0.02975,0.009));
#1575=CARTESIAN_POINT('',(-0.02075,0.0285,0.009));
#1576=CARTESIAN_POINT('',(1.38777878078145E-17,0.0285,0.009));
#1577=CARTESIAN_POINT('',(-0.0425,0.0285,0.009));
#1578=CARTESIAN_POINT('',(-0.0425,0.0265,0.009));
#1579=CARTESIAN_POINT('',(-0.0445,0.0265,0.009));
#1580=CARTESIAN_POINT('',(-0.0445,-3.46944695195361E-18,0.009));
#1581=CARTESIAN_POINT('',(-0.0445,-0.0265,0.009));
#1582=CARTESIAN_POINT('',(-0.0425,-0.0265,0.009));
#1583=CARTESIAN_POINT('',(-0.0425,-0.0285,0.009));
#1584=CARTESIAN_POINT('',(0.,-0.0285,0.009));
#1585=CARTESIAN_POINT('',(0.0425,-0.0285,0.009));
#1586=CARTESIAN_POINT('',(0.0425,-0.0265,0.009));
#1587=CARTESIAN_POINT('',(0.0445,-0.0265,0.009));
#1588=CARTESIAN_POINT('',(0.0445,-1.7347234759768E-17,0.009));
#1589=CARTESIAN_POINT('',(0.0445,0.0265,0.009));
#1590=CARTESIAN_POINT('',(0.0425,0.0265,0.009));
#1591=CARTESIAN_POINT('',(0.0425,0.0285,0.009));
#1592=CARTESIAN_POINT('',(1.38777878078145E-17,0.0285,0.009));
#1593=CARTESIAN_POINT('',(0.03875,0.0285,0.009));
#1594=CARTESIAN_POINT('',(0.03875,0.02975,0.009));
#1595=CARTESIAN_POINT('',(0.0375,0.02975,0.009));
#1596=CARTESIAN_POINT('',(0.03625,0.02975,0.009));
#1597=CARTESIAN_POINT('',(-0.0555,6.93889390390723E-18,0.029));
#1598=CARTESIAN_POINT('',(-0.0555,-7.90417877021933E-19,0.0121));
#1599=CARTESIAN_POINT('',(-0.0555,0.0265,0.0121));
#1600=CARTESIAN_POINT('',(-0.0555,-0.0265,0.0121));
#1601=CARTESIAN_POINT('',(-0.0555,0.0265,0.0141));
#1602=CARTESIAN_POINT('',(-0.0555,0.0285,0.0141));
#1603=CARTESIAN_POINT('',(-0.0555,0.0285,0.029));
#1604=CARTESIAN_POINT('',(-0.0555,0.0285,0.027));
#1605=CARTESIAN_POINT('',(-0.0555,0.0265,0.027));
#1606=CARTESIAN_POINT('',(-0.0555,0.0265,0.029));
#1607=CARTESIAN_POINT('',(-0.0555,6.93889390390723E-18,0.029));
#1608=CARTESIAN_POINT('',(-0.0555,-0.0265,0.029));
#1609=CARTESIAN_POINT('',(-0.0555,-0.0265,0.027));
#1610=CARTESIAN_POINT('',(-0.0555,-0.0285,0.027));
#1611=CARTESIAN_POINT('',(-0.0555,-0.0285,0.029));
#1612=CARTESIAN_POINT('',(-0.0555,-0.0285,0.0141));
#1613=CARTESIAN_POINT('',(-0.0555,-0.0265,0.0141));
#1614=CARTESIAN_POINT('',(-0.0555,6.93889390390723E-18,0.032));
#1615=CARTESIAN_POINT('',(-0.0555,0.03525,0.032));
#1616=CARTESIAN_POINT('',(-0.0555,-0.03525,0.032));
#1617=CARTESIAN_POINT('',(-0.0555,0.03525,0.029));
#1618=CARTESIAN_POINT('',(-0.0555,-0.03525,0.032));
#1619=CARTESIAN_POINT('',(1.38777878078145E-17,0.0285,0.029));
#1620=CARTESIAN_POINT('',(-0.02075,0.0285,0.029));
#1621=CARTESIAN_POINT('',(-0.02075,0.0285,0.018));
#1622=CARTESIAN_POINT('',(-0.0175,0.0285,0.018));
#1623=CARTESIAN_POINT('',(-0.0175,0.0285,0.02125));
#1624=CARTESIAN_POINT('',(1.52929569592692E-17,0.0285,0.02125));
#1625=CARTESIAN_POINT('',(0.0355,0.0285,0.02125));
#1626=CARTESIAN_POINT('',(0.0355,0.0285,0.018));
#1627=CARTESIAN_POINT('',(0.03875,0.0285,0.018));
#1628=CARTESIAN_POINT('',(0.03875,0.0285,0.009));
#1629=CARTESIAN_POINT('',(0.0425,0.0285,0.029));
#1630=CARTESIAN_POINT('',(0.0425,0.0285,0.027));
#1631=CARTESIAN_POINT('',(1.38777878078145E-17,0.0285,0.027));
#1632=CARTESIAN_POINT('',(1.38777878078145E-17,0.0285,0.0141));
#1633=CARTESIAN_POINT('',(-0.0425,0.0285,0.0141));
#1634=CARTESIAN_POINT('',(-0.0425,0.0285,0.009));
#1635=CARTESIAN_POINT('',(0.0445,-1.7347234759768E-17,0.029));
#1636=CARTESIAN_POINT('',(0.0445,-0.0265,0.029));
#1637=CARTESIAN_POINT('',(0.0445,-0.0265,0.027));
#1638=CARTESIAN_POINT('',(0.0445,0.0285,0.027));
#1639=CARTESIAN_POINT('',(0.0445,0.0265,0.027));
#1640=CARTESIAN_POINT('',(0.0445,0.0265,0.029));
#1641=CARTESIAN_POINT('',(0.,-0.0285,0.029));
#1642=CARTESIAN_POINT('',(0.0445,-0.0285,0.027));
#1643=CARTESIAN_POINT('',(0.0425,-0.0285,0.027));
#1644=CARTESIAN_POINT('',(0.0425,-0.0285,0.009));
#1645=CARTESIAN_POINT('',(-0.0425,-0.0285,0.029));
#1646=CARTESIAN_POINT('',(-0.0425,-0.0285,0.0141));
#1647=CARTESIAN_POINT('',(-0.0555,-0.0285,0.0141));
#1648=CARTESIAN_POINT('',(0.0555,6.93889390390723E-18,0.029));
#1649=CARTESIAN_POINT('',(0.0555,6.93889390390723E-18,0.032));
#1650=CARTESIAN_POINT('',(0.0555,0.03525,0.032));
#1651=CARTESIAN_POINT('',(0.0555,-0.03525,0.032));
#1652=CARTESIAN_POINT('',(0.0555,-0.03525,0.029));
#1653=CARTESIAN_POINT('',(0.0555,0.03525,0.032));
#1654=CARTESIAN_POINT('',(-6.93889390390723E-18,0.03725,0.029));
#1655=CARTESIAN_POINT('',(0.009,0.03725,0.02));
#1656=CARTESIAN_POINT('',(0.0355,0.03725,0.02));
#1657=CARTESIAN_POINT('',(-0.0175,0.03725,0.02));
#1658=CARTESIAN_POINT('',(-0.0175,0.03725,0.018));
#1659=CARTESIAN_POINT('',(-0.0195,0.03725,0.018));
#1660=CARTESIAN_POINT('',(-0.0195,0.03725,0.016));
#1661=CARTESIAN_POINT('',(-0.0195,0.03725,0.014));
#1662=CARTESIAN_POINT('',(-0.0175,0.03725,0.014));
#1663=CARTESIAN_POINT('',(0.0355,0.03725,0.014));
#1664=CARTESIAN_POINT('',(0.0375,0.03725,0.014));
#1665=CARTESIAN_POINT('',(0.0375,0.03725,0.016));
#1666=CARTESIAN_POINT('',(0.0375,0.03725,0.018));
#1667=CARTESIAN_POINT('',(0.0355,0.03725,0.018));
#1668=CARTESIAN_POINT('',(-0.0535,0.03725,0.029));
#1669=CARTESIAN_POINT('',(-0.0535,0.03725,0.032));
#1670=CARTESIAN_POINT('',(-6.93889390390723E-18,0.03725,0.032));
#1671=CARTESIAN_POINT('',(0.0535,0.03725,0.032));
#1672=CARTESIAN_POINT('',(0.0535,0.03725,0.009));
#1673=CARTESIAN_POINT('',(6.93889390390723E-18,-0.03725,0.029));
#1674=CARTESIAN_POINT('',(6.93889390390723E-18,-0.03725,0.032));
#1675=CARTESIAN_POINT('',(0.0535,-0.03725,0.032));
#1676=CARTESIAN_POINT('',(-0.0535,-0.03725,0.032));
#1677=CARTESIAN_POINT('',(-0.0535,-0.03725,0.009));
#1678=CARTESIAN_POINT('',(0.0535,-0.03725,0.029));
#1679=CARTESIAN_POINT('',(-0.0445,-3.46944695195361E-18,0.029));
#1680=CARTESIAN_POINT('',(-0.0445,0.0265,0.0121));
#1681=CARTESIAN_POINT('',(-0.0445,0.0265,0.0121));
#1682=CARTESIAN_POINT('',(-0.0445,-3.46944695195361E-18,0.0121));
#1683=CARTESIAN_POINT('',(-0.0445,-0.0265,0.0121));
#1684=CARTESIAN_POINT('',(-0.0445,-0.0265,0.029));
#1685=CARTESIAN_POINT('',(-0.055502,-7.90790435083886E-19,0.0121));
#1686=CARTESIAN_POINT('',(-0.055502,0.0265,0.0121));
#1687=CARTESIAN_POINT('',(-0.0445,-0.0265,0.0121));
#1688=CARTESIAN_POINT('',(-0.0195,0.037252,0.016));
#1689=CARTESIAN_POINT('',(-0.0195,0.02975,0.016));
#1690=CARTESIAN_POINT('',(-0.0195,0.02975,0.018));
#1691=CARTESIAN_POINT('',(-0.0195,0.02975,0.014));
#1692=CARTESIAN_POINT('',(-0.0195,0.037252,0.014));
#1693=CARTESIAN_POINT('',(-0.0195,0.0285,0.018));
#1694=CARTESIAN_POINT('',(0.0375,0.037252,0.016));
#1695=CARTESIAN_POINT('',(0.0375,0.031,0.014));
#1696=CARTESIAN_POINT('',(0.0375,0.02975,0.014));
#1697=CARTESIAN_POINT('',(0.0375,0.02975,0.018));
#1698=CARTESIAN_POINT('',(0.0375,0.02975,0.018));
#1699=CARTESIAN_POINT('',(0.0375,0.037252,0.018));
#1700=CARTESIAN_POINT('',(0.009,0.037252,0.02));
#1701=CARTESIAN_POINT('',(0.0355,0.037252,0.02));
#1702=CARTESIAN_POINT('',(0.0355,0.02975,0.02));
#1703=CARTESIAN_POINT('',(0.009,0.02975,0.02));
#1704=CARTESIAN_POINT('',(-0.0175,0.02975,0.02));
#1705=CARTESIAN_POINT('',(-0.0175,0.03725,0.02));
#1706=CARTESIAN_POINT('',(-0.0505,0.03225,0.0042));
#1707=CARTESIAN_POINT('',(-0.0505,0.03225,0.008));
#1708=CARTESIAN_POINT('',(-0.04825,0.03225,0.008));
#1709=CARTESIAN_POINT('',(-0.0505,0.03225,0.0042));
#1710=CARTESIAN_POINT('',(-0.04825,0.03225,0.0042));
#1711=CARTESIAN_POINT('',(0.,0.,0.0042));
#1712=CARTESIAN_POINT('',(-0.0505,-0.03225,0.0042));
#1713=CARTESIAN_POINT('',(-0.0505,-0.03225,0.008));
#1714=CARTESIAN_POINT('',(-0.04825,-0.03225,0.008));
#1715=CARTESIAN_POINT('',(-0.0505,-0.03225,0.0042));
#1716=CARTESIAN_POINT('',(-0.04825,-0.03225,0.0042));
#1717=CARTESIAN_POINT('',(0.,0.,0.0042));
#1718=CARTESIAN_POINT('',(0.0505,-0.03225,0.0042));
#1719=CARTESIAN_POINT('',(0.0505,-0.03225,0.008));
#1720=CARTESIAN_POINT('',(0.05275,-0.03225,0.008));
#1721=CARTESIAN_POINT('',(0.0505,-0.03225,0.0042));
#1722=CARTESIAN_POINT('',(0.05275,-0.03225,0.0042));
#1723=CARTESIAN_POINT('',(0.,0.,0.0042));
#1724=CARTESIAN_POINT('',(0.0505,0.03225,0.0042));
#1725=CARTESIAN_POINT('',(0.0505,0.03225,0.008));
#1726=CARTESIAN_POINT('',(0.05275,0.03225,0.008));
#1727=CARTESIAN_POINT('',(0.0505,0.03225,0.0042));
#1728=CARTESIAN_POINT('',(0.05275,0.03225,0.0042));
#1729=CARTESIAN_POINT('',(0.,0.,0.0042));
#1730=CARTESIAN_POINT('',(0.,0.,0.032));
#1731=CARTESIAN_POINT('',(-0.051,0.03275,0.032));
#1732=CARTESIAN_POINT('',(-0.0475,0.03275,0.032));
#1733=CARTESIAN_POINT('',(0.051,0.03275,0.032));
#1734=CARTESIAN_POINT('',(0.0545,0.03275,0.032));
#1735=CARTESIAN_POINT('',(0.051,-0.03275,0.032));
#1736=CARTESIAN_POINT('',(0.0545,-0.03275,0.032));
#1737=CARTESIAN_POINT('',(-0.051,-0.03275,0.032));
#1738=CARTESIAN_POINT('',(-0.0475,-0.03275,0.032));
#1739=CARTESIAN_POINT('',(-0.0535,0.03525,0.032));
#1740=CARTESIAN_POINT('',(-0.0535,-0.03525,0.032));
#1741=CARTESIAN_POINT('',(0.0535,-0.03525,0.032));
#1742=CARTESIAN_POINT('',(0.0535,0.03525,0.032));
#1743=CARTESIAN_POINT('',(0.,0.,0.029));
#1744=CARTESIAN_POINT('',(0.0425,-0.0285,0.029));
#1745=CARTESIAN_POINT('',(0.0425,0.0265,0.029));
#1746=CARTESIAN_POINT('',(0.0425,-0.0265,0.029));
#1747=CARTESIAN_POINT('',(-0.0555,-0.0265,0.029));
#1748=CARTESIAN_POINT('',(3.09911272674508E-18,0.0265,0.029));
#1749=CARTESIAN_POINT('',(0.009,0.031,-1.99999999998812E-6));
#1750=CARTESIAN_POINT('',(-0.0175,0.031,0.014));
#1751=CARTESIAN_POINT('',(-0.01825,0.031,0.0121459503782261));
#1752=CARTESIAN_POINT('',(-0.01825,0.031,-1.99999999998812E-6));
#1753=CARTESIAN_POINT('',(0.03625,0.031,0.014));
#1754=CARTESIAN_POINT('',(0.03625,0.031,0.0121459503782261));
#1755=CARTESIAN_POINT('',(0.0355,0.031,0.014));
#1756=CARTESIAN_POINT('',(-0.051,0.03275,0.027));
#1757=CARTESIAN_POINT('',(-0.051,0.03275,0.0245));
#1758=CARTESIAN_POINT('',(-0.051,0.03275,0.027));
#1759=CARTESIAN_POINT('',(-0.0535,0.03275,0.027));
#1760=CARTESIAN_POINT('',(-0.051,0.03275,0.032));
#1761=CARTESIAN_POINT('',(-0.051,0.03275,0.031));
#1762=CARTESIAN_POINT('',(-0.0485,0.03275,0.031));
#1763=CARTESIAN_POINT('',(-0.051,-0.03275,0.027));
#1764=CARTESIAN_POINT('',(-0.051,-0.03275,0.0245));
#1765=CARTESIAN_POINT('',(-0.051,-0.03275,0.027));
#1766=CARTESIAN_POINT('',(-0.0535,-0.03275,0.027));
#1767=CARTESIAN_POINT('',(-0.051,-0.03275,0.032));
#1768=CARTESIAN_POINT('',(-0.051,-0.03275,0.031));
#1769=CARTESIAN_POINT('',(-0.0485,-0.03275,0.031));
#1770=CARTESIAN_POINT('',(0.051,-0.03275,0.027));
#1771=CARTESIAN_POINT('',(0.051,-0.03275,0.0245));
#1772=CARTESIAN_POINT('',(0.051,-0.03275,0.027));
#1773=CARTESIAN_POINT('',(0.0485,-0.03275,0.027));
#1774=CARTESIAN_POINT('',(0.051,-0.03275,0.032));
#1775=CARTESIAN_POINT('',(0.051,-0.03275,0.031));
#1776=CARTESIAN_POINT('',(0.0535,-0.03275,0.031));
#1777=CARTESIAN_POINT('',(0.051,0.03275,0.027));
#1778=CARTESIAN_POINT('',(0.051,0.03275,0.0245));
#1779=CARTESIAN_POINT('',(0.051,0.03275,0.027));
#1780=CARTESIAN_POINT('',(0.0485,0.03275,0.027));
#1781=CARTESIAN_POINT('',(0.051,0.03275,0.032));
#1782=CARTESIAN_POINT('',(0.051,0.03275,0.031));
#1783=CARTESIAN_POINT('',(0.0535,0.03275,0.031));
#1784=CARTESIAN_POINT('',(1.36438925076827E-17,0.0265,0.0141));
#1785=CARTESIAN_POINT('',(-0.0425,0.0265,0.0141));
#1786=CARTESIAN_POINT('',(-0.0425,0.0265,0.029));
#1787=CARTESIAN_POINT('',(-0.055502,-0.0265,0.0141));
#1788=CARTESIAN_POINT('',(-0.0425,-0.0265,0.0141));
#1789=CARTESIAN_POINT('',(-0.0425,-0.0265,0.029));
#1790=CARTESIAN_POINT('',(0.0425,0.0265,0.029));
#1791=CARTESIAN_POINT('',(0.0425,0.0265,0.027));
#1792=CARTESIAN_POINT('',(1.36438925076827E-17,0.0265,0.027));
#1793=CARTESIAN_POINT('',(0.0425,0.0265,0.027));
#1794=CARTESIAN_POINT('',(0.0425,0.0265,0.027));
#1795=CARTESIAN_POINT('',(0.0425,0.0265,0.027));
#1796=CARTESIAN_POINT('',(0.0425,-0.0265,0.029));
#1797=CARTESIAN_POINT('',(0.0425,-0.0265,0.027));
#1798=CARTESIAN_POINT('',(0.0425,-1.03474733654757E-17,0.027));
#1799=CARTESIAN_POINT('',(0.0425,-0.0265,0.027));
#1800=CARTESIAN_POINT('',(0.0425,-0.0265,0.027));
#1801=CARTESIAN_POINT('',(0.0425,-0.0265,0.027));
#1802=CARTESIAN_POINT('',(-4.13215030232677E-18,-0.0265,0.027));
#1803=CARTESIAN_POINT('',(-0.0175,0.037252,0.014));
#1804=CARTESIAN_POINT('',(-0.01825,0.031,0.0121459503782261));
#1805=CARTESIAN_POINT('',(-0.0186779089218633,0.031,0.0123190480599863));
#1806=CARTESIAN_POINT('',(-0.0193226589032135,0.0305954284404668,0.0129301734968351));
#1807=CARTESIAN_POINT('',(-0.0195,0.030031399686146,0.0136440540949415));
#1808=CARTESIAN_POINT('',(-0.0195,0.02975,0.014));
#1809=CARTESIAN_POINT('',(-0.0175,0.037252,0.018));
#1810=CARTESIAN_POINT('',(-0.0175,0.02975,0.018));
#1811=CARTESIAN_POINT('',(0.0355,0.037252,0.018));
#1812=CARTESIAN_POINT('',(0.0355,0.02975,0.018));
#1813=CARTESIAN_POINT('',(0.0355,0.037252,0.014));
#1814=CARTESIAN_POINT('',(0.03625,0.031,0.0121459503782261));
#1815=CARTESIAN_POINT('',(0.0366779089218633,0.031,0.0123190480599863));
#1816=CARTESIAN_POINT('',(0.0373226589032135,0.0305954284404477,0.01293017349682));
#1817=CARTESIAN_POINT('',(0.0375,0.0300313996861842,0.0136440540949717));
#1818=CARTESIAN_POINT('',(0.0375,0.02975,0.014));
#1819=CARTESIAN_POINT('',(-0.0535,0.03525,0.029));
#1820=CARTESIAN_POINT('',(-0.0535,-0.03525,0.029));
#1821=CARTESIAN_POINT('',(0.0535,-0.03525,0.029));
#1822=CARTESIAN_POINT('',(0.0535,0.03525,0.029));
#1823=CARTESIAN_POINT('',(0.03625,0.02975,-1.99999999998812E-6));
#1824=CARTESIAN_POINT('',(0.0375,0.02975,0.009));
#1825=CARTESIAN_POINT('',(0.03875,0.02975,0.016));
#1826=CARTESIAN_POINT('',(0.03875,0.02975,0.018));
#1827=CARTESIAN_POINT('',(0.0355,0.02975,0.018));
#1828=CARTESIAN_POINT('',(0.0355,0.02975,0.02125));
#1829=CARTESIAN_POINT('',(1.54391415218515E-17,0.02975,0.02125));
#1830=CARTESIAN_POINT('',(-0.0175,0.02975,0.02125));
#1831=CARTESIAN_POINT('',(-0.0175,0.02975,0.018));
#1832=CARTESIAN_POINT('',(-0.02075,0.02975,0.018));
#1833=CARTESIAN_POINT('',(-0.02075,0.02975,0.029));
#1834=CARTESIAN_POINT('',(-0.0195,0.02975,0.016));
#1835=CARTESIAN_POINT('',(-0.01825,0.02975,0.016));
#1836=CARTESIAN_POINT('',(-0.051,0.03275,0.031));
#1837=CARTESIAN_POINT('',(0.051,0.03275,0.031));
#1838=CARTESIAN_POINT('',(0.051,-0.03275,0.031));
#1839=CARTESIAN_POINT('',(-0.051,-0.03275,0.031));
#1840=CARTESIAN_POINT('',(-0.0505,0.03225,0.008));
#1841=CARTESIAN_POINT('',(-0.0505,-0.03225,0.008));
#1842=CARTESIAN_POINT('',(0.0505,0.03225,0.008));
#1843=CARTESIAN_POINT('',(0.0505,-0.03225,0.008));
#1844=MECHANICAL_DESIGN_GEOMETRIC_PRESENTATION_REPRESENTATION('',(#1053),
#1845);
#1845=(
GEOMETRIC_REPRESENTATION_CONTEXT(3)
GLOBAL_UNCERTAINTY_ASSIGNED_CONTEXT((#1846))
GLOBAL_UNIT_ASSIGNED_CONTEXT((#1849,#1848,#1847))
REPRESENTATION_CONTEXT('RaspberryPi Container',
'TOP_LEVEL_ASSEMBLY_PART')
);
#1846=UNCERTAINTY_MEASURE_WITH_UNIT(LENGTH_MEASURE(2.E-5),#1849,
'DISTANCE_ACCURACY_VALUE','Maximum Tolerance applied to model');
#1847=(
NAMED_UNIT(*)
SI_UNIT($,.STERADIAN.)
SOLID_ANGLE_UNIT()
);
#1848=(
NAMED_UNIT(*)
PLANE_ANGLE_UNIT()
SI_UNIT($,.RADIAN.)
);
#1849=(
LENGTH_UNIT()
NAMED_UNIT(*)
SI_UNIT($,.METRE.)
);
#1850=PRODUCT_DEFINITION_SHAPE('','',#1851);
#1851=PRODUCT_DEFINITION('','',#1853,#1852);
#1852=PRODUCT_DEFINITION_CONTEXT('',#1859,'design');
#1853=PRODUCT_DEFINITION_FORMATION_WITH_SPECIFIED_SOURCE('','',#1855,
 .NOT_KNOWN.);
#1854=PRODUCT_RELATED_PRODUCT_CATEGORY('','',(#1855));
#1855=PRODUCT('RaspberryPi Container','RaspberryPi Container',
'RaspberryPi Container',(#1857));
#1856=PRODUCT_CATEGORY('','');
#1857=PRODUCT_CONTEXT('',#1859,'mechanical');
#1858=APPLICATION_PROTOCOL_DEFINITION('international standard',
'ap242_managed_model_based_3d_engineering',2020,#1859);
#1859=APPLICATION_CONTEXT('managed model based 3d engineering');
ENDSEC;
END-ISO-10303-21;
