ISO-10303-21;
HEADER;
/* Generated by software containing ST-Developer
 * from STEP Tools, Inc. (www.steptools.com) 
 */
/* OPTION: using custom renumber hook */

FILE_DESCRIPTION(
/* description */ ('STEP AP242 Edition 2',
'CAx-IF Rec.Pracs.---Representation and Presentation of Product Manufa
cturing Information (PMI)---4.0---2014-10-13',
'CAx-IF Rec.Pracs.---3D Tessellated Geometry---0.4---2014-09-14','2;1',
'CAx-IF Rec.Pracs.---User Defined Attributes---1.5---2016-08-15'),
/* implementation_level */ '2;1');

FILE_NAME(
/* name */ 'Thymio Case V2 - Powerbank Container',
/* time_stamp */ '2026-08-06T07:12:51Z',
/* author */ (''),
/* organization */ (''),
/* preprocessor_version */ 'ST-DEVELOPER v20',
/* originating_system */ 'ONSHAPE BY PTC INC, 1.218',
/* authorisation */ '  ');

FILE_SCHEMA (('AP242_MANAGED_MODEL_BASED_3D_ENGINEERING_MIM_LF { 1 0 10303 442 3 1 4 }'));
ENDSEC;

DATA;
#10=SHAPE_REPRESENTATION_RELATIONSHIP('','',#1130,#11);
#11=ADVANCED_BREP_SHAPE_REPRESENTATION('',(#1128),#1979);
#12=CONICAL_SURFACE('',#1278,0.0035,0.785398163397448);
#13=CONICAL_SURFACE('',#1280,0.004,0.785398163397448);
#14=TOROIDAL_SURFACE('',#1239,0.004,0.002);
#15=TOROIDAL_SURFACE('',#1241,0.004,0.002);
#16=TOROIDAL_SURFACE('',#1263,0.004,0.002);
#17=TOROIDAL_SURFACE('',#1265,0.004,0.002);
#18=TOROIDAL_SURFACE('',#1272,0.0033,0.001);
#19=TOROIDAL_SURFACE('',#1273,0.0033,0.001);
#20=TOROIDAL_SURFACE('',#1274,0.0033,0.001);
#21=TOROIDAL_SURFACE('',#1275,0.0033,0.001);
#22=SPHERICAL_SURFACE('',#1198,0.002);
#23=SPHERICAL_SURFACE('',#1209,0.002);
#24=SPHERICAL_SURFACE('',#1211,0.002);
#25=SPHERICAL_SURFACE('',#1217,0.002);
#26=SPHERICAL_SURFACE('',#1227,0.002);
#27=SPHERICAL_SURFACE('',#1229,0.002);
#28=SPHERICAL_SURFACE('',#1251,0.002);
#29=SPHERICAL_SURFACE('',#1253,0.002);
#30=CYLINDRICAL_SURFACE('',#1176,0.00229999999999997);
#31=CYLINDRICAL_SURFACE('',#1180,0.00229999999999997);
#32=CYLINDRICAL_SURFACE('',#1184,0.00229999999999997);
#33=CYLINDRICAL_SURFACE('',#1188,0.00229999999999997);
#34=CYLINDRICAL_SURFACE('',#1196,0.002);
#35=CYLINDRICAL_SURFACE('',#1201,0.002);
#36=CYLINDRICAL_SURFACE('',#1203,0.002);
#37=CYLINDRICAL_SURFACE('',#1205,0.002);
#38=CYLINDRICAL_SURFACE('',#1207,0.002);
#39=CYLINDRICAL_SURFACE('',#1213,0.002);
#40=CYLINDRICAL_SURFACE('',#1215,0.002);
#41=CYLINDRICAL_SURFACE('',#1219,0.002);
#42=CYLINDRICAL_SURFACE('',#1220,0.002);
#43=CYLINDRICAL_SURFACE('',#1222,0.002);
#44=CYLINDRICAL_SURFACE('',#1225,0.002);
#45=CYLINDRICAL_SURFACE('',#1231,0.002);
#46=CYLINDRICAL_SURFACE('',#1233,0.002);
#47=CYLINDRICAL_SURFACE('',#1235,0.002);
#48=CYLINDRICAL_SURFACE('',#1237,0.002);
#49=CYLINDRICAL_SURFACE('',#1243,0.002);
#50=CYLINDRICAL_SURFACE('',#1244,0.002);
#51=CYLINDRICAL_SURFACE('',#1246,0.002);
#52=CYLINDRICAL_SURFACE('',#1248,0.002);
#53=CYLINDRICAL_SURFACE('',#1255,0.002);
#54=CYLINDRICAL_SURFACE('',#1257,0.002);
#55=CYLINDRICAL_SURFACE('',#1259,0.002);
#56=CYLINDRICAL_SURFACE('',#1261,0.002);
#57=CYLINDRICAL_SURFACE('',#1267,0.002);
#58=CYLINDRICAL_SURFACE('',#1268,0.002);
#59=CYLINDRICAL_SURFACE('',#1269,0.002);
#60=CYLINDRICAL_SURFACE('',#1270,0.002);
#61=CYLINDRICAL_SURFACE('',#1271,0.002);
#62=CIRCLE('',#1134,0.004);
#63=CIRCLE('',#1135,0.004);
#64=CIRCLE('',#1138,0.002);
#65=CIRCLE('',#1139,0.002);
#66=CIRCLE('',#1140,0.002);
#67=CIRCLE('',#1141,0.002);
#68=CIRCLE('',#1146,0.002);
#69=CIRCLE('',#1147,0.002);
#70=CIRCLE('',#1148,0.002);
#71=CIRCLE('',#1149,0.002);
#72=CIRCLE('',#1150,0.004);
#73=CIRCLE('',#1151,0.004);
#74=CIRCLE('',#1153,0.0033);
#75=CIRCLE('',#1154,0.0033);
#76=CIRCLE('',#1155,0.0033);
#77=CIRCLE('',#1156,0.0033);
#78=CIRCLE('',#1157,0.002);
#79=CIRCLE('',#1158,0.002);
#80=CIRCLE('',#1159,0.002);
#81=CIRCLE('',#1160,0.002);
#82=CIRCLE('',#1161,0.002);
#83=CIRCLE('',#1162,0.002);
#84=CIRCLE('',#1163,0.002);
#85=CIRCLE('',#1164,0.002);
#86=CIRCLE('',#1167,0.0045);
#87=CIRCLE('',#1168,0.002);
#88=CIRCLE('',#1169,0.002);
#89=CIRCLE('',#1170,0.002);
#90=CIRCLE('',#1171,0.002);
#91=CIRCLE('',#1177,0.00229999999999997);
#92=CIRCLE('',#1178,0.00229999999999997);
#93=CIRCLE('',#1181,0.00229999999999997);
#94=CIRCLE('',#1182,0.00229999999999997);
#95=CIRCLE('',#1185,0.00229999999999997);
#96=CIRCLE('',#1186,0.00229999999999997);
#97=CIRCLE('',#1189,0.00229999999999997);
#98=CIRCLE('',#1190,0.00229999999999997);
#99=CIRCLE('',#1197,0.002);
#100=CIRCLE('',#1199,0.002);
#101=CIRCLE('',#1200,0.002);
#102=CIRCLE('',#1202,0.002);
#103=CIRCLE('',#1204,0.002);
#104=CIRCLE('',#1206,0.002);
#105=CIRCLE('',#1208,0.002);
#106=CIRCLE('',#1210,0.002);
#107=CIRCLE('',#1212,0.002);
#108=CIRCLE('',#1214,0.002);
#109=CIRCLE('',#1216,0.002);
#110=CIRCLE('',#1218,0.002);
#111=CIRCLE('',#1221,0.002);
#112=CIRCLE('',#1223,0.002);
#113=CIRCLE('',#1224,0.002);
#114=CIRCLE('',#1226,0.002);
#115=CIRCLE('',#1228,0.002);
#116=CIRCLE('',#1230,0.002);
#117=CIRCLE('',#1232,0.002);
#118=CIRCLE('',#1234,0.002);
#119=CIRCLE('',#1236,0.002);
#120=CIRCLE('',#1238,0.002);
#121=CIRCLE('',#1240,0.002);
#122=CIRCLE('',#1242,0.002);
#123=CIRCLE('',#1245,0.002);
#124=CIRCLE('',#1247,0.002);
#125=CIRCLE('',#1249,0.002);
#126=CIRCLE('',#1250,0.002);
#127=CIRCLE('',#1252,0.002);
#128=CIRCLE('',#1254,0.002);
#129=CIRCLE('',#1256,0.002);
#130=CIRCLE('',#1258,0.002);
#131=CIRCLE('',#1260,0.002);
#132=CIRCLE('',#1262,0.002);
#133=CIRCLE('',#1264,0.002);
#134=CIRCLE('',#1266,0.002);
#135=CIRCLE('',#1277,0.0035);
#136=CIRCLE('',#1279,0.004);
#137=ORIENTED_EDGE('',*,*,#439,.T.);
#138=ORIENTED_EDGE('',*,*,#440,.T.);
#139=ORIENTED_EDGE('',*,*,#441,.T.);
#140=ORIENTED_EDGE('',*,*,#442,.T.);
#141=ORIENTED_EDGE('',*,*,#443,.T.);
#142=ORIENTED_EDGE('',*,*,#444,.T.);
#143=ORIENTED_EDGE('',*,*,#445,.T.);
#144=ORIENTED_EDGE('',*,*,#446,.F.);
#145=ORIENTED_EDGE('',*,*,#447,.T.);
#146=ORIENTED_EDGE('',*,*,#448,.T.);
#147=ORIENTED_EDGE('',*,*,#449,.T.);
#148=ORIENTED_EDGE('',*,*,#450,.F.);
#149=ORIENTED_EDGE('',*,*,#451,.T.);
#150=ORIENTED_EDGE('',*,*,#452,.T.);
#151=ORIENTED_EDGE('',*,*,#453,.T.);
#152=ORIENTED_EDGE('',*,*,#454,.T.);
#153=ORIENTED_EDGE('',*,*,#455,.F.);
#154=ORIENTED_EDGE('',*,*,#456,.T.);
#155=ORIENTED_EDGE('',*,*,#457,.F.);
#156=ORIENTED_EDGE('',*,*,#458,.T.);
#157=ORIENTED_EDGE('',*,*,#459,.T.);
#158=ORIENTED_EDGE('',*,*,#460,.T.);
#159=ORIENTED_EDGE('',*,*,#461,.T.);
#160=ORIENTED_EDGE('',*,*,#462,.T.);
#161=ORIENTED_EDGE('',*,*,#463,.F.);
#162=ORIENTED_EDGE('',*,*,#464,.T.);
#163=ORIENTED_EDGE('',*,*,#465,.T.);
#164=ORIENTED_EDGE('',*,*,#466,.T.);
#165=ORIENTED_EDGE('',*,*,#467,.F.);
#166=ORIENTED_EDGE('',*,*,#468,.T.);
#167=ORIENTED_EDGE('',*,*,#469,.T.);
#168=ORIENTED_EDGE('',*,*,#470,.T.);
#169=ORIENTED_EDGE('',*,*,#471,.T.);
#170=ORIENTED_EDGE('',*,*,#472,.T.);
#171=ORIENTED_EDGE('',*,*,#473,.T.);
#172=ORIENTED_EDGE('',*,*,#474,.T.);
#173=ORIENTED_EDGE('',*,*,#475,.T.);
#174=ORIENTED_EDGE('',*,*,#476,.T.);
#175=ORIENTED_EDGE('',*,*,#477,.F.);
#176=ORIENTED_EDGE('',*,*,#478,.T.);
#177=ORIENTED_EDGE('',*,*,#479,.T.);
#178=ORIENTED_EDGE('',*,*,#480,.T.);
#179=ORIENTED_EDGE('',*,*,#481,.F.);
#180=ORIENTED_EDGE('',*,*,#482,.T.);
#181=ORIENTED_EDGE('',*,*,#483,.T.);
#182=ORIENTED_EDGE('',*,*,#484,.T.);
#183=ORIENTED_EDGE('',*,*,#485,.T.);
#184=ORIENTED_EDGE('',*,*,#486,.T.);
#185=ORIENTED_EDGE('',*,*,#487,.F.);
#186=ORIENTED_EDGE('',*,*,#488,.T.);
#187=ORIENTED_EDGE('',*,*,#489,.F.);
#188=ORIENTED_EDGE('',*,*,#490,.T.);
#189=ORIENTED_EDGE('',*,*,#491,.T.);
#190=ORIENTED_EDGE('',*,*,#492,.F.);
#191=ORIENTED_EDGE('',*,*,#493,.T.);
#192=ORIENTED_EDGE('',*,*,#494,.F.);
#193=ORIENTED_EDGE('',*,*,#495,.T.);
#194=ORIENTED_EDGE('',*,*,#496,.F.);
#195=ORIENTED_EDGE('',*,*,#497,.T.);
#196=ORIENTED_EDGE('',*,*,#498,.T.);
#197=ORIENTED_EDGE('',*,*,#499,.T.);
#198=ORIENTED_EDGE('',*,*,#500,.T.);
#199=ORIENTED_EDGE('',*,*,#501,.T.);
#200=ORIENTED_EDGE('',*,*,#502,.T.);
#201=ORIENTED_EDGE('',*,*,#469,.F.);
#202=ORIENTED_EDGE('',*,*,#503,.T.);
#203=ORIENTED_EDGE('',*,*,#467,.T.);
#204=ORIENTED_EDGE('',*,*,#504,.T.);
#205=ORIENTED_EDGE('',*,*,#477,.T.);
#206=ORIENTED_EDGE('',*,*,#505,.T.);
#207=ORIENTED_EDGE('',*,*,#473,.F.);
#208=ORIENTED_EDGE('',*,*,#506,.T.);
#209=ORIENTED_EDGE('',*,*,#448,.F.);
#210=ORIENTED_EDGE('',*,*,#507,.T.);
#211=ORIENTED_EDGE('',*,*,#439,.F.);
#212=ORIENTED_EDGE('',*,*,#508,.T.);
#213=ORIENTED_EDGE('',*,*,#494,.T.);
#214=ORIENTED_EDGE('',*,*,#509,.T.);
#215=ORIENTED_EDGE('',*,*,#455,.T.);
#216=ORIENTED_EDGE('',*,*,#510,.T.);
#217=ORIENTED_EDGE('',*,*,#511,.T.);
#218=ORIENTED_EDGE('',*,*,#512,.T.);
#219=ORIENTED_EDGE('',*,*,#513,.T.);
#220=ORIENTED_EDGE('',*,*,#514,.T.);
#221=ORIENTED_EDGE('',*,*,#515,.F.);
#222=ORIENTED_EDGE('',*,*,#489,.T.);
#223=ORIENTED_EDGE('',*,*,#516,.T.);
#224=ORIENTED_EDGE('',*,*,#517,.T.);
#225=ORIENTED_EDGE('',*,*,#518,.T.);
#226=ORIENTED_EDGE('',*,*,#443,.F.);
#227=ORIENTED_EDGE('',*,*,#519,.T.);
#228=ORIENTED_EDGE('',*,*,#520,.F.);
#229=ORIENTED_EDGE('',*,*,#521,.T.);
#230=ORIENTED_EDGE('',*,*,#517,.F.);
#231=ORIENTED_EDGE('',*,*,#522,.T.);
#232=ORIENTED_EDGE('',*,*,#523,.T.);
#233=ORIENTED_EDGE('',*,*,#524,.T.);
#234=ORIENTED_EDGE('',*,*,#520,.T.);
#235=ORIENTED_EDGE('',*,*,#525,.T.);
#236=ORIENTED_EDGE('',*,*,#526,.T.);
#237=ORIENTED_EDGE('',*,*,#527,.T.);
#238=ORIENTED_EDGE('',*,*,#528,.T.);
#239=ORIENTED_EDGE('',*,*,#529,.T.);
#240=ORIENTED_EDGE('',*,*,#530,.T.);
#241=ORIENTED_EDGE('',*,*,#531,.T.);
#242=ORIENTED_EDGE('',*,*,#532,.T.);
#243=ORIENTED_EDGE('',*,*,#533,.T.);
#244=ORIENTED_EDGE('',*,*,#534,.T.);
#245=ORIENTED_EDGE('',*,*,#535,.T.);
#246=ORIENTED_EDGE('',*,*,#536,.T.);
#247=ORIENTED_EDGE('',*,*,#537,.T.);
#248=ORIENTED_EDGE('',*,*,#537,.F.);
#249=ORIENTED_EDGE('',*,*,#538,.T.);
#250=ORIENTED_EDGE('',*,*,#539,.T.);
#251=ORIENTED_EDGE('',*,*,#539,.F.);
#252=ORIENTED_EDGE('',*,*,#540,.T.);
#253=ORIENTED_EDGE('',*,*,#541,.T.);
#254=ORIENTED_EDGE('',*,*,#541,.F.);
#255=ORIENTED_EDGE('',*,*,#542,.T.);
#256=ORIENTED_EDGE('',*,*,#543,.T.);
#257=ORIENTED_EDGE('',*,*,#543,.F.);
#258=ORIENTED_EDGE('',*,*,#459,.F.);
#259=ORIENTED_EDGE('',*,*,#544,.T.);
#260=ORIENTED_EDGE('',*,*,#481,.T.);
#261=ORIENTED_EDGE('',*,*,#545,.T.);
#262=ORIENTED_EDGE('',*,*,#487,.T.);
#263=ORIENTED_EDGE('',*,*,#546,.T.);
#264=ORIENTED_EDGE('',*,*,#461,.F.);
#265=ORIENTED_EDGE('',*,*,#547,.T.);
#266=ORIENTED_EDGE('',*,*,#483,.F.);
#267=ORIENTED_EDGE('',*,*,#548,.T.);
#268=ORIENTED_EDGE('',*,*,#457,.T.);
#269=ORIENTED_EDGE('',*,*,#549,.T.);
#270=ORIENTED_EDGE('',*,*,#485,.F.);
#271=ORIENTED_EDGE('',*,*,#550,.T.);
#272=ORIENTED_EDGE('',*,*,#463,.T.);
#273=ORIENTED_EDGE('',*,*,#551,.T.);
#274=ORIENTED_EDGE('',*,*,#552,.F.);
#275=ORIENTED_EDGE('',*,*,#470,.F.);
#276=ORIENTED_EDGE('',*,*,#506,.F.);
#277=ORIENTED_EDGE('',*,*,#476,.F.);
#278=ORIENTED_EDGE('',*,*,#553,.F.);
#279=ORIENTED_EDGE('',*,*,#552,.T.);
#280=ORIENTED_EDGE('',*,*,#554,.F.);
#281=ORIENTED_EDGE('',*,*,#505,.F.);
#282=ORIENTED_EDGE('',*,*,#480,.F.);
#283=ORIENTED_EDGE('',*,*,#555,.F.);
#284=ORIENTED_EDGE('',*,*,#474,.F.);
#285=ORIENTED_EDGE('',*,*,#554,.T.);
#286=ORIENTED_EDGE('',*,*,#475,.F.);
#287=ORIENTED_EDGE('',*,*,#556,.F.);
#288=ORIENTED_EDGE('',*,*,#532,.F.);
#289=ORIENTED_EDGE('',*,*,#553,.T.);
#290=ORIENTED_EDGE('',*,*,#535,.F.);
#291=ORIENTED_EDGE('',*,*,#557,.F.);
#292=ORIENTED_EDGE('',*,*,#471,.F.);
#293=ORIENTED_EDGE('',*,*,#503,.F.);
#294=ORIENTED_EDGE('',*,*,#472,.F.);
#295=ORIENTED_EDGE('',*,*,#558,.F.);
#296=ORIENTED_EDGE('',*,*,#468,.F.);
#297=ORIENTED_EDGE('',*,*,#556,.T.);
#298=ORIENTED_EDGE('',*,*,#555,.T.);
#299=ORIENTED_EDGE('',*,*,#559,.F.);
#300=ORIENTED_EDGE('',*,*,#558,.T.);
#301=ORIENTED_EDGE('',*,*,#557,.T.);
#302=ORIENTED_EDGE('',*,*,#560,.F.);
#303=ORIENTED_EDGE('',*,*,#559,.T.);
#304=ORIENTED_EDGE('',*,*,#479,.F.);
#305=ORIENTED_EDGE('',*,*,#561,.F.);
#306=ORIENTED_EDGE('',*,*,#533,.F.);
#307=ORIENTED_EDGE('',*,*,#560,.T.);
#308=ORIENTED_EDGE('',*,*,#534,.F.);
#309=ORIENTED_EDGE('',*,*,#562,.F.);
#310=ORIENTED_EDGE('',*,*,#465,.F.);
#311=ORIENTED_EDGE('',*,*,#562,.T.);
#312=ORIENTED_EDGE('',*,*,#561,.T.);
#313=ORIENTED_EDGE('',*,*,#563,.F.);
#314=ORIENTED_EDGE('',*,*,#563,.T.);
#315=ORIENTED_EDGE('',*,*,#478,.F.);
#316=ORIENTED_EDGE('',*,*,#504,.F.);
#317=ORIENTED_EDGE('',*,*,#466,.F.);
#318=ORIENTED_EDGE('',*,*,#516,.F.);
#319=ORIENTED_EDGE('',*,*,#498,.F.);
#320=ORIENTED_EDGE('',*,*,#564,.F.);
#321=ORIENTED_EDGE('',*,*,#522,.F.);
#322=ORIENTED_EDGE('',*,*,#565,.F.);
#323=ORIENTED_EDGE('',*,*,#523,.F.);
#324=ORIENTED_EDGE('',*,*,#566,.F.);
#325=ORIENTED_EDGE('',*,*,#528,.F.);
#326=ORIENTED_EDGE('',*,*,#518,.F.);
#327=ORIENTED_EDGE('',*,*,#524,.F.);
#328=ORIENTED_EDGE('',*,*,#567,.F.);
#329=ORIENTED_EDGE('',*,*,#444,.F.);
#330=ORIENTED_EDGE('',*,*,#566,.T.);
#331=ORIENTED_EDGE('',*,*,#564,.T.);
#332=ORIENTED_EDGE('',*,*,#568,.F.);
#333=ORIENTED_EDGE('',*,*,#567,.T.);
#334=ORIENTED_EDGE('',*,*,#565,.T.);
#335=ORIENTED_EDGE('',*,*,#569,.F.);
#336=ORIENTED_EDGE('',*,*,#508,.F.);
#337=ORIENTED_EDGE('',*,*,#442,.F.);
#338=ORIENTED_EDGE('',*,*,#570,.F.);
#339=ORIENTED_EDGE('',*,*,#495,.F.);
#340=ORIENTED_EDGE('',*,*,#568,.T.);
#341=ORIENTED_EDGE('',*,*,#497,.F.);
#342=ORIENTED_EDGE('',*,*,#571,.F.);
#343=ORIENTED_EDGE('',*,*,#529,.F.);
#344=ORIENTED_EDGE('',*,*,#569,.T.);
#345=ORIENTED_EDGE('',*,*,#531,.F.);
#346=ORIENTED_EDGE('',*,*,#572,.F.);
#347=ORIENTED_EDGE('',*,*,#445,.F.);
#348=ORIENTED_EDGE('',*,*,#507,.F.);
#349=ORIENTED_EDGE('',*,*,#447,.F.);
#350=ORIENTED_EDGE('',*,*,#573,.F.);
#351=ORIENTED_EDGE('',*,*,#440,.F.);
#352=ORIENTED_EDGE('',*,*,#496,.T.);
#353=ORIENTED_EDGE('',*,*,#570,.T.);
#354=ORIENTED_EDGE('',*,*,#574,.F.);
#355=ORIENTED_EDGE('',*,*,#571,.T.);
#356=ORIENTED_EDGE('',*,*,#446,.T.);
#357=ORIENTED_EDGE('',*,*,#572,.T.);
#358=ORIENTED_EDGE('',*,*,#575,.F.);
#359=ORIENTED_EDGE('',*,*,#573,.T.);
#360=ORIENTED_EDGE('',*,*,#574,.T.);
#361=ORIENTED_EDGE('',*,*,#441,.F.);
#362=ORIENTED_EDGE('',*,*,#575,.T.);
#363=ORIENTED_EDGE('',*,*,#530,.F.);
#364=ORIENTED_EDGE('',*,*,#521,.F.);
#365=ORIENTED_EDGE('',*,*,#527,.F.);
#366=ORIENTED_EDGE('',*,*,#576,.F.);
#367=ORIENTED_EDGE('',*,*,#490,.F.);
#368=ORIENTED_EDGE('',*,*,#519,.F.);
#369=ORIENTED_EDGE('',*,*,#452,.F.);
#370=ORIENTED_EDGE('',*,*,#577,.F.);
#371=ORIENTED_EDGE('',*,*,#525,.F.);
#372=ORIENTED_EDGE('',*,*,#578,.F.);
#373=ORIENTED_EDGE('',*,*,#526,.F.);
#374=ORIENTED_EDGE('',*,*,#579,.F.);
#375=ORIENTED_EDGE('',*,*,#514,.F.);
#376=ORIENTED_EDGE('',*,*,#576,.T.);
#377=ORIENTED_EDGE('',*,*,#578,.T.);
#378=ORIENTED_EDGE('',*,*,#580,.F.);
#379=ORIENTED_EDGE('',*,*,#579,.T.);
#380=ORIENTED_EDGE('',*,*,#577,.T.);
#381=ORIENTED_EDGE('',*,*,#581,.F.);
#382=ORIENTED_EDGE('',*,*,#580,.T.);
#383=ORIENTED_EDGE('',*,*,#513,.F.);
#384=ORIENTED_EDGE('',*,*,#582,.F.);
#385=ORIENTED_EDGE('',*,*,#491,.F.);
#386=ORIENTED_EDGE('',*,*,#509,.F.);
#387=ORIENTED_EDGE('',*,*,#493,.F.);
#388=ORIENTED_EDGE('',*,*,#583,.F.);
#389=ORIENTED_EDGE('',*,*,#456,.F.);
#390=ORIENTED_EDGE('',*,*,#510,.F.);
#391=ORIENTED_EDGE('',*,*,#454,.F.);
#392=ORIENTED_EDGE('',*,*,#584,.F.);
#393=ORIENTED_EDGE('',*,*,#449,.F.);
#394=ORIENTED_EDGE('',*,*,#581,.T.);
#395=ORIENTED_EDGE('',*,*,#451,.F.);
#396=ORIENTED_EDGE('',*,*,#585,.F.);
#397=ORIENTED_EDGE('',*,*,#511,.F.);
#398=ORIENTED_EDGE('',*,*,#492,.T.);
#399=ORIENTED_EDGE('',*,*,#582,.T.);
#400=ORIENTED_EDGE('',*,*,#586,.F.);
#401=ORIENTED_EDGE('',*,*,#583,.T.);
#402=ORIENTED_EDGE('',*,*,#450,.T.);
#403=ORIENTED_EDGE('',*,*,#584,.T.);
#404=ORIENTED_EDGE('',*,*,#587,.F.);
#405=ORIENTED_EDGE('',*,*,#585,.T.);
#406=ORIENTED_EDGE('',*,*,#586,.T.);
#407=ORIENTED_EDGE('',*,*,#512,.F.);
#408=ORIENTED_EDGE('',*,*,#587,.T.);
#409=ORIENTED_EDGE('',*,*,#453,.F.);
#410=ORIENTED_EDGE('',*,*,#458,.F.);
#411=ORIENTED_EDGE('',*,*,#548,.F.);
#412=ORIENTED_EDGE('',*,*,#482,.F.);
#413=ORIENTED_EDGE('',*,*,#544,.F.);
#414=ORIENTED_EDGE('',*,*,#464,.F.);
#415=ORIENTED_EDGE('',*,*,#550,.F.);
#416=ORIENTED_EDGE('',*,*,#484,.F.);
#417=ORIENTED_EDGE('',*,*,#549,.F.);
#418=ORIENTED_EDGE('',*,*,#462,.F.);
#419=ORIENTED_EDGE('',*,*,#546,.F.);
#420=ORIENTED_EDGE('',*,*,#486,.F.);
#421=ORIENTED_EDGE('',*,*,#551,.F.);
#422=ORIENTED_EDGE('',*,*,#460,.F.);
#423=ORIENTED_EDGE('',*,*,#545,.F.);
#424=ORIENTED_EDGE('',*,*,#488,.F.);
#425=ORIENTED_EDGE('',*,*,#547,.F.);
#426=ORIENTED_EDGE('',*,*,#538,.F.);
#427=ORIENTED_EDGE('',*,*,#499,.F.);
#428=ORIENTED_EDGE('',*,*,#536,.F.);
#429=ORIENTED_EDGE('',*,*,#500,.F.);
#430=ORIENTED_EDGE('',*,*,#542,.F.);
#431=ORIENTED_EDGE('',*,*,#501,.F.);
#432=ORIENTED_EDGE('',*,*,#540,.F.);
#433=ORIENTED_EDGE('',*,*,#502,.F.);
#434=ORIENTED_EDGE('',*,*,#588,.T.);
#435=ORIENTED_EDGE('',*,*,#588,.F.);
#436=ORIENTED_EDGE('',*,*,#589,.F.);
#437=ORIENTED_EDGE('',*,*,#515,.T.);
#438=ORIENTED_EDGE('',*,*,#589,.T.);
#439=EDGE_CURVE('',#590,#591,#685,.T.);
#440=EDGE_CURVE('',#591,#592,#686,.F.);
#441=EDGE_CURVE('',#592,#593,#687,.F.);
#442=EDGE_CURVE('',#593,#590,#688,.T.);
#443=EDGE_CURVE('',#594,#595,#689,.T.);
#444=EDGE_CURVE('',#595,#596,#690,.T.);
#445=EDGE_CURVE('',#596,#597,#691,.F.);
#446=EDGE_CURVE('',#598,#597,#62,.F.);
#447=EDGE_CURVE('',#598,#599,#692,.T.);
#448=EDGE_CURVE('',#599,#600,#693,.T.);
#449=EDGE_CURVE('',#600,#601,#694,.F.);
#450=EDGE_CURVE('',#602,#601,#63,.F.);
#451=EDGE_CURVE('',#602,#603,#695,.F.);
#452=EDGE_CURVE('',#603,#594,#696,.F.);
#453=EDGE_CURVE('',#604,#605,#697,.T.);
#454=EDGE_CURVE('',#605,#606,#698,.T.);
#455=EDGE_CURVE('',#607,#606,#699,.T.);
#456=EDGE_CURVE('',#607,#604,#700,.F.);
#457=EDGE_CURVE('',#608,#609,#701,.T.);
#458=EDGE_CURVE('',#608,#610,#64,.F.);
#459=EDGE_CURVE('',#610,#611,#702,.T.);
#460=EDGE_CURVE('',#611,#612,#65,.F.);
#461=EDGE_CURVE('',#612,#613,#703,.T.);
#462=EDGE_CURVE('',#613,#614,#66,.F.);
#463=EDGE_CURVE('',#615,#614,#704,.T.);
#464=EDGE_CURVE('',#615,#609,#67,.F.);
#465=EDGE_CURVE('',#616,#617,#705,.T.);
#466=EDGE_CURVE('',#617,#618,#706,.T.);
#467=EDGE_CURVE('',#619,#618,#707,.T.);
#468=EDGE_CURVE('',#619,#616,#708,.F.);
#469=EDGE_CURVE('',#620,#621,#709,.T.);
#470=EDGE_CURVE('',#621,#622,#710,.F.);
#471=EDGE_CURVE('',#622,#623,#711,.F.);
#472=EDGE_CURVE('',#623,#620,#712,.T.);
#473=EDGE_CURVE('',#624,#625,#713,.T.);
#474=EDGE_CURVE('',#625,#626,#714,.F.);
#475=EDGE_CURVE('',#626,#627,#715,.F.);
#476=EDGE_CURVE('',#627,#624,#716,.T.);
#477=EDGE_CURVE('',#628,#629,#717,.T.);
#478=EDGE_CURVE('',#628,#630,#718,.F.);
#479=EDGE_CURVE('',#630,#631,#719,.T.);
#480=EDGE_CURVE('',#631,#629,#720,.T.);
#481=EDGE_CURVE('',#632,#633,#721,.T.);
#482=EDGE_CURVE('',#632,#634,#68,.F.);
#483=EDGE_CURVE('',#634,#635,#722,.T.);
#484=EDGE_CURVE('',#635,#636,#69,.F.);
#485=EDGE_CURVE('',#636,#637,#723,.T.);
#486=EDGE_CURVE('',#637,#638,#70,.F.);
#487=EDGE_CURVE('',#639,#638,#724,.T.);
#488=EDGE_CURVE('',#639,#633,#71,.F.);
#489=EDGE_CURVE('',#640,#641,#725,.T.);
#490=EDGE_CURVE('',#640,#642,#726,.T.);
#491=EDGE_CURVE('',#642,#643,#727,.T.);
#492=EDGE_CURVE('',#644,#643,#72,.T.);
#493=EDGE_CURVE('',#644,#645,#728,.T.);
#494=EDGE_CURVE('',#646,#645,#729,.T.);
#495=EDGE_CURVE('',#646,#647,#730,.F.);
#496=EDGE_CURVE('',#648,#647,#73,.T.);
#497=EDGE_CURVE('',#648,#649,#731,.T.);
#498=EDGE_CURVE('',#649,#641,#732,.F.);
#499=EDGE_CURVE('',#650,#650,#74,.T.);
#500=EDGE_CURVE('',#651,#651,#75,.T.);
#501=EDGE_CURVE('',#652,#652,#76,.T.);
#502=EDGE_CURVE('',#653,#653,#77,.T.);
#503=EDGE_CURVE('',#620,#619,#78,.T.);
#504=EDGE_CURVE('',#618,#628,#79,.T.);
#505=EDGE_CURVE('',#629,#625,#80,.T.);
#506=EDGE_CURVE('',#624,#621,#81,.T.);
#507=EDGE_CURVE('',#599,#591,#82,.F.);
#508=EDGE_CURVE('',#590,#646,#83,.F.);
#509=EDGE_CURVE('',#645,#607,#84,.F.);
#510=EDGE_CURVE('',#606,#600,#85,.F.);
#511=EDGE_CURVE('',#654,#655,#733,.T.);
#512=EDGE_CURVE('',#655,#656,#734,.F.);
#513=EDGE_CURVE('',#656,#657,#735,.F.);
#514=EDGE_CURVE('',#657,#654,#736,.T.);
#515=EDGE_CURVE('',#658,#658,#86,.T.);
#516=EDGE_CURVE('',#641,#659,#87,.T.);
#517=EDGE_CURVE('',#659,#660,#737,.T.);
#518=EDGE_CURVE('',#660,#595,#88,.T.);
#519=EDGE_CURVE('',#594,#661,#89,.T.);
#520=EDGE_CURVE('',#662,#661,#738,.T.);
#521=EDGE_CURVE('',#662,#640,#90,.T.);
#522=EDGE_CURVE('',#659,#663,#739,.T.);
#523=EDGE_CURVE('',#663,#664,#740,.T.);
#524=EDGE_CURVE('',#664,#660,#741,.F.);
#525=EDGE_CURVE('',#661,#665,#742,.T.);
#526=EDGE_CURVE('',#665,#666,#743,.F.);
#527=EDGE_CURVE('',#666,#662,#744,.F.);
#528=EDGE_CURVE('',#667,#668,#745,.F.);
#529=EDGE_CURVE('',#668,#669,#746,.F.);
#530=EDGE_CURVE('',#669,#670,#747,.T.);
#531=EDGE_CURVE('',#670,#667,#748,.T.);
#532=EDGE_CURVE('',#671,#672,#749,.T.);
#533=EDGE_CURVE('',#672,#673,#750,.F.);
#534=EDGE_CURVE('',#673,#674,#751,.F.);
#535=EDGE_CURVE('',#674,#671,#752,.T.);
#536=EDGE_CURVE('',#675,#675,#91,.F.);
#537=EDGE_CURVE('',#676,#676,#92,.T.);
#538=EDGE_CURVE('',#677,#677,#93,.F.);
#539=EDGE_CURVE('',#678,#678,#94,.T.);
#540=EDGE_CURVE('',#679,#679,#95,.F.);
#541=EDGE_CURVE('',#680,#680,#96,.T.);
#542=EDGE_CURVE('',#681,#681,#97,.F.);
#543=EDGE_CURVE('',#682,#682,#98,.T.);
#544=EDGE_CURVE('',#610,#632,#753,.T.);
#545=EDGE_CURVE('',#633,#611,#754,.F.);
#546=EDGE_CURVE('',#638,#613,#755,.F.);
#547=EDGE_CURVE('',#612,#639,#756,.T.);
#548=EDGE_CURVE('',#634,#608,#757,.F.);
#549=EDGE_CURVE('',#609,#635,#758,.T.);
#550=EDGE_CURVE('',#636,#615,#759,.F.);
#551=EDGE_CURVE('',#614,#637,#760,.T.);
#552=EDGE_CURVE('',#622,#627,#99,.T.);
#553=EDGE_CURVE('',#622,#671,#100,.F.);
#554=EDGE_CURVE('',#671,#627,#101,.F.);
#555=EDGE_CURVE('',#626,#631,#102,.T.);
#556=EDGE_CURVE('',#672,#626,#103,.T.);
#557=EDGE_CURVE('',#623,#674,#104,.T.);
#558=EDGE_CURVE('',#616,#623,#105,.T.);
#559=EDGE_CURVE('',#672,#631,#106,.F.);
#560=EDGE_CURVE('',#616,#674,#107,.F.);
#561=EDGE_CURVE('',#673,#630,#108,.T.);
#562=EDGE_CURVE('',#617,#673,#109,.T.);
#563=EDGE_CURVE('',#617,#630,#110,.F.);
#564=EDGE_CURVE('',#663,#649,#111,.T.);
#565=EDGE_CURVE('',#664,#667,#112,.T.);
#566=EDGE_CURVE('',#668,#663,#113,.T.);
#567=EDGE_CURVE('',#596,#664,#114,.T.);
#568=EDGE_CURVE('',#668,#649,#115,.F.);
#569=EDGE_CURVE('',#596,#667,#116,.F.);
#570=EDGE_CURVE('',#647,#593,#117,.T.);
#571=EDGE_CURVE('',#669,#648,#118,.T.);
#572=EDGE_CURVE('',#597,#670,#119,.T.);
#573=EDGE_CURVE('',#592,#598,#120,.T.);
#574=EDGE_CURVE('',#669,#593,#121,.T.);
#575=EDGE_CURVE('',#592,#670,#122,.F.);
#576=EDGE_CURVE('',#642,#666,#123,.T.);
#577=EDGE_CURVE('',#665,#603,#124,.T.);
#578=EDGE_CURVE('',#666,#657,#125,.T.);
#579=EDGE_CURVE('',#654,#665,#126,.T.);
#580=EDGE_CURVE('',#642,#657,#127,.F.);
#581=EDGE_CURVE('',#654,#603,#128,.F.);
#582=EDGE_CURVE('',#643,#656,#129,.T.);
#583=EDGE_CURVE('',#604,#644,#130,.T.);
#584=EDGE_CURVE('',#601,#605,#131,.T.);
#585=EDGE_CURVE('',#655,#602,#132,.T.);
#586=EDGE_CURVE('',#604,#656,#133,.T.);
#587=EDGE_CURVE('',#655,#605,#134,.F.);
#588=EDGE_CURVE('',#683,#683,#135,.T.);
#589=EDGE_CURVE('',#684,#684,#136,.F.);
#590=VERTEX_POINT('',#1660);
#591=VERTEX_POINT('',#1661);
#592=VERTEX_POINT('',#1663);
#593=VERTEX_POINT('',#1665);
#594=VERTEX_POINT('',#1669);
#595=VERTEX_POINT('',#1670);
#596=VERTEX_POINT('',#1672);
#597=VERTEX_POINT('',#1674);
#598=VERTEX_POINT('',#1676);
#599=VERTEX_POINT('',#1678);
#600=VERTEX_POINT('',#1680);
#601=VERTEX_POINT('',#1682);
#602=VERTEX_POINT('',#1684);
#603=VERTEX_POINT('',#1686);
#604=VERTEX_POINT('',#1690);
#605=VERTEX_POINT('',#1691);
#606=VERTEX_POINT('',#1693);
#607=VERTEX_POINT('',#1695);
#608=VERTEX_POINT('',#1699);
#609=VERTEX_POINT('',#1700);
#610=VERTEX_POINT('',#1702);
#611=VERTEX_POINT('',#1704);
#612=VERTEX_POINT('',#1706);
#613=VERTEX_POINT('',#1708);
#614=VERTEX_POINT('',#1710);
#615=VERTEX_POINT('',#1712);
#616=VERTEX_POINT('',#1715);
#617=VERTEX_POINT('',#1716);
#618=VERTEX_POINT('',#1718);
#619=VERTEX_POINT('',#1720);
#620=VERTEX_POINT('',#1724);
#621=VERTEX_POINT('',#1725);
#622=VERTEX_POINT('',#1727);
#623=VERTEX_POINT('',#1729);
#624=VERTEX_POINT('',#1733);
#625=VERTEX_POINT('',#1734);
#626=VERTEX_POINT('',#1736);
#627=VERTEX_POINT('',#1738);
#628=VERTEX_POINT('',#1742);
#629=VERTEX_POINT('',#1743);
#630=VERTEX_POINT('',#1745);
#631=VERTEX_POINT('',#1747);
#632=VERTEX_POINT('',#1751);
#633=VERTEX_POINT('',#1752);
#634=VERTEX_POINT('',#1754);
#635=VERTEX_POINT('',#1756);
#636=VERTEX_POINT('',#1758);
#637=VERTEX_POINT('',#1760);
#638=VERTEX_POINT('',#1762);
#639=VERTEX_POINT('',#1764);
#640=VERTEX_POINT('',#1767);
#641=VERTEX_POINT('',#1768);
#642=VERTEX_POINT('',#1770);
#643=VERTEX_POINT('',#1772);
#644=VERTEX_POINT('',#1774);
#645=VERTEX_POINT('',#1776);
#646=VERTEX_POINT('',#1778);
#647=VERTEX_POINT('',#1780);
#648=VERTEX_POINT('',#1782);
#649=VERTEX_POINT('',#1784);
#650=VERTEX_POINT('',#1788);
#651=VERTEX_POINT('',#1790);
#652=VERTEX_POINT('',#1792);
#653=VERTEX_POINT('',#1794);
#654=VERTEX_POINT('',#1805);
#655=VERTEX_POINT('',#1806);
#656=VERTEX_POINT('',#1808);
#657=VERTEX_POINT('',#1810);
#658=VERTEX_POINT('',#1814);
#659=VERTEX_POINT('',#1816);
#660=VERTEX_POINT('',#1818);
#661=VERTEX_POINT('',#1821);
#662=VERTEX_POINT('',#1823);
#663=VERTEX_POINT('',#1827);
#664=VERTEX_POINT('',#1829);
#665=VERTEX_POINT('',#1833);
#666=VERTEX_POINT('',#1835);
#667=VERTEX_POINT('',#1839);
#668=VERTEX_POINT('',#1840);
#669=VERTEX_POINT('',#1842);
#670=VERTEX_POINT('',#1844);
#671=VERTEX_POINT('',#1848);
#672=VERTEX_POINT('',#1849);
#673=VERTEX_POINT('',#1851);
#674=VERTEX_POINT('',#1853);
#675=VERTEX_POINT('',#1857);
#676=VERTEX_POINT('',#1859);
#677=VERTEX_POINT('',#1863);
#678=VERTEX_POINT('',#1865);
#679=VERTEX_POINT('',#1869);
#680=VERTEX_POINT('',#1871);
#681=VERTEX_POINT('',#1875);
#682=VERTEX_POINT('',#1877);
#683=VERTEX_POINT('',#1973);
#684=VERTEX_POINT('',#1976);
#685=LINE('',#1659,#761);
#686=LINE('',#1662,#762);
#687=LINE('',#1664,#763);
#688=LINE('',#1666,#764);
#689=LINE('',#1668,#765);
#690=LINE('',#1671,#766);
#691=LINE('',#1673,#767);
#692=LINE('',#1677,#768);
#693=LINE('',#1679,#769);
#694=LINE('',#1681,#770);
#695=LINE('',#1685,#771);
#696=LINE('',#1687,#772);
#697=LINE('',#1689,#773);
#698=LINE('',#1692,#774);
#699=LINE('',#1694,#775);
#700=LINE('',#1696,#776);
#701=LINE('',#1698,#777);
#702=LINE('',#1703,#778);
#703=LINE('',#1707,#779);
#704=LINE('',#1711,#780);
#705=LINE('',#1714,#781);
#706=LINE('',#1717,#782);
#707=LINE('',#1719,#783);
#708=LINE('',#1721,#784);
#709=LINE('',#1723,#785);
#710=LINE('',#1726,#786);
#711=LINE('',#1728,#787);
#712=LINE('',#1730,#788);
#713=LINE('',#1732,#789);
#714=LINE('',#1735,#790);
#715=LINE('',#1737,#791);
#716=LINE('',#1739,#792);
#717=LINE('',#1741,#793);
#718=LINE('',#1744,#794);
#719=LINE('',#1746,#795);
#720=LINE('',#1748,#796);
#721=LINE('',#1750,#797);
#722=LINE('',#1755,#798);
#723=LINE('',#1759,#799);
#724=LINE('',#1763,#800);
#725=LINE('',#1766,#801);
#726=LINE('',#1769,#802);
#727=LINE('',#1771,#803);
#728=LINE('',#1775,#804);
#729=LINE('',#1777,#805);
#730=LINE('',#1779,#806);
#731=LINE('',#1783,#807);
#732=LINE('',#1785,#808);
#733=LINE('',#1804,#809);
#734=LINE('',#1807,#810);
#735=LINE('',#1809,#811);
#736=LINE('',#1811,#812);
#737=LINE('',#1817,#813);
#738=LINE('',#1822,#814);
#739=LINE('',#1826,#815);
#740=LINE('',#1828,#816);
#741=LINE('',#1830,#817);
#742=LINE('',#1832,#818);
#743=LINE('',#1834,#819);
#744=LINE('',#1836,#820);
#745=LINE('',#1838,#821);
#746=LINE('',#1841,#822);
#747=LINE('',#1843,#823);
#748=LINE('',#1845,#824);
#749=LINE('',#1847,#825);
#750=LINE('',#1850,#826);
#751=LINE('',#1852,#827);
#752=LINE('',#1854,#828);
#753=LINE('',#1880,#829);
#754=LINE('',#1881,#830);
#755=LINE('',#1883,#831);
#756=LINE('',#1884,#832);
#757=LINE('',#1886,#833);
#758=LINE('',#1887,#834);
#759=LINE('',#1889,#835);
#760=LINE('',#1890,#836);
#761=VECTOR('',#1285,1.);
#762=VECTOR('',#1286,1.);
#763=VECTOR('',#1287,1.);
#764=VECTOR('',#1288,1.);
#765=VECTOR('',#1291,1.);
#766=VECTOR('',#1292,1.);
#767=VECTOR('',#1293,1.);
#768=VECTOR('',#1296,1.);
#769=VECTOR('',#1297,1.);
#770=VECTOR('',#1298,1.);
#771=VECTOR('',#1301,1.);
#772=VECTOR('',#1302,1.);
#773=VECTOR('',#1305,1.);
#774=VECTOR('',#1306,1.);
#775=VECTOR('',#1307,1.);
#776=VECTOR('',#1308,1.);
#777=VECTOR('',#1311,1.);
#778=VECTOR('',#1314,1.);
#779=VECTOR('',#1317,1.);
#780=VECTOR('',#1320,1.);
#781=VECTOR('',#1323,1.);
#782=VECTOR('',#1324,1.);
#783=VECTOR('',#1325,1.);
#784=VECTOR('',#1326,1.);
#785=VECTOR('',#1329,1.);
#786=VECTOR('',#1330,1.);
#787=VECTOR('',#1331,1.);
#788=VECTOR('',#1332,1.);
#789=VECTOR('',#1335,1.);
#790=VECTOR('',#1336,1.);
#791=VECTOR('',#1337,1.);
#792=VECTOR('',#1338,1.);
#793=VECTOR('',#1341,1.);
#794=VECTOR('',#1342,1.);
#795=VECTOR('',#1343,1.);
#796=VECTOR('',#1344,1.);
#797=VECTOR('',#1347,1.);
#798=VECTOR('',#1350,1.);
#799=VECTOR('',#1353,1.);
#800=VECTOR('',#1356,1.);
#801=VECTOR('',#1359,1.);
#802=VECTOR('',#1360,1.);
#803=VECTOR('',#1361,1.);
#804=VECTOR('',#1364,1.);
#805=VECTOR('',#1365,1.);
#806=VECTOR('',#1366,1.);
#807=VECTOR('',#1369,1.);
#808=VECTOR('',#1370,1.);
#809=VECTOR('',#1399,1.);
#810=VECTOR('',#1400,1.);
#811=VECTOR('',#1401,1.);
#812=VECTOR('',#1402,1.);
#813=VECTOR('',#1409,1.);
#814=VECTOR('',#1414,1.);
#815=VECTOR('',#1419,1.);
#816=VECTOR('',#1420,1.);
#817=VECTOR('',#1421,1.);
#818=VECTOR('',#1424,1.);
#819=VECTOR('',#1425,1.);
#820=VECTOR('',#1426,1.);
#821=VECTOR('',#1429,1.);
#822=VECTOR('',#1430,1.);
#823=VECTOR('',#1431,1.);
#824=VECTOR('',#1432,1.);
#825=VECTOR('',#1435,1.);
#826=VECTOR('',#1436,1.);
#827=VECTOR('',#1437,1.);
#828=VECTOR('',#1438,1.);
#829=VECTOR('',#1473,1.);
#830=VECTOR('',#1474,1.);
#831=VECTOR('',#1477,1.);
#832=VECTOR('',#1478,1.);
#833=VECTOR('',#1481,1.);
#834=VECTOR('',#1482,1.);
#835=VECTOR('',#1485,1.);
#836=VECTOR('',#1486,1.);
#837=EDGE_LOOP('',(#137,#138,#139,#140));
#838=EDGE_LOOP('',(#141,#142,#143,#144,#145,#146,#147,#148,#149,#150));
#839=EDGE_LOOP('',(#151,#152,#153,#154));
#840=EDGE_LOOP('',(#155,#156,#157,#158,#159,#160,#161,#162));
#841=EDGE_LOOP('',(#163,#164,#165,#166));
#842=EDGE_LOOP('',(#167,#168,#169,#170));
#843=EDGE_LOOP('',(#171,#172,#173,#174));
#844=EDGE_LOOP('',(#175,#176,#177,#178));
#845=EDGE_LOOP('',(#179,#180,#181,#182,#183,#184,#185,#186));
#846=EDGE_LOOP('',(#187,#188,#189,#190,#191,#192,#193,#194,#195,#196));
#847=EDGE_LOOP('',(#197));
#848=EDGE_LOOP('',(#198));
#849=EDGE_LOOP('',(#199));
#850=EDGE_LOOP('',(#200));
#851=EDGE_LOOP('',(#201,#202,#203,#204,#205,#206,#207,#208));
#852=EDGE_LOOP('',(#209,#210,#211,#212,#213,#214,#215,#216));
#853=EDGE_LOOP('',(#217,#218,#219,#220));
#854=EDGE_LOOP('',(#221));
#855=EDGE_LOOP('',(#222,#223,#224,#225,#226,#227,#228,#229));
#856=EDGE_LOOP('',(#230,#231,#232,#233));
#857=EDGE_LOOP('',(#234,#235,#236,#237));
#858=EDGE_LOOP('',(#238,#239,#240,#241));
#859=EDGE_LOOP('',(#242,#243,#244,#245));
#860=EDGE_LOOP('',(#246));
#861=EDGE_LOOP('',(#247));
#862=EDGE_LOOP('',(#248));
#863=EDGE_LOOP('',(#249));
#864=EDGE_LOOP('',(#250));
#865=EDGE_LOOP('',(#251));
#866=EDGE_LOOP('',(#252));
#867=EDGE_LOOP('',(#253));
#868=EDGE_LOOP('',(#254));
#869=EDGE_LOOP('',(#255));
#870=EDGE_LOOP('',(#256));
#871=EDGE_LOOP('',(#257));
#872=EDGE_LOOP('',(#258,#259,#260,#261));
#873=EDGE_LOOP('',(#262,#263,#264,#265));
#874=EDGE_LOOP('',(#266,#267,#268,#269));
#875=EDGE_LOOP('',(#270,#271,#272,#273));
#876=EDGE_LOOP('',(#274,#275,#276,#277));
#877=EDGE_LOOP('',(#278,#279,#280));
#878=EDGE_LOOP('',(#281,#282,#283,#284));
#879=EDGE_LOOP('',(#285,#286,#287,#288));
#880=EDGE_LOOP('',(#289,#290,#291,#292));
#881=EDGE_LOOP('',(#293,#294,#295,#296));
#882=EDGE_LOOP('',(#297,#298,#299));
#883=EDGE_LOOP('',(#300,#301,#302));
#884=EDGE_LOOP('',(#303,#304,#305,#306));
#885=EDGE_LOOP('',(#307,#308,#309,#310));
#886=EDGE_LOOP('',(#311,#312,#313));
#887=EDGE_LOOP('',(#314,#315,#316,#317));
#888=EDGE_LOOP('',(#318,#319,#320,#321));
#889=EDGE_LOOP('',(#322,#323,#324,#325));
#890=EDGE_LOOP('',(#326,#327,#328,#329));
#891=EDGE_LOOP('',(#330,#331,#332));
#892=EDGE_LOOP('',(#333,#334,#335));
#893=EDGE_LOOP('',(#336,#337,#338,#339));
#894=EDGE_LOOP('',(#340,#341,#342,#343));
#895=EDGE_LOOP('',(#344,#345,#346,#347));
#896=EDGE_LOOP('',(#348,#349,#350,#351));
#897=EDGE_LOOP('',(#352,#353,#354,#355));
#898=EDGE_LOOP('',(#356,#357,#358,#359));
#899=EDGE_LOOP('',(#360,#361,#362,#363));
#900=EDGE_LOOP('',(#364,#365,#366,#367));
#901=EDGE_LOOP('',(#368,#369,#370,#371));
#902=EDGE_LOOP('',(#372,#373,#374,#375));
#903=EDGE_LOOP('',(#376,#377,#378));
#904=EDGE_LOOP('',(#379,#380,#381));
#905=EDGE_LOOP('',(#382,#383,#384,#385));
#906=EDGE_LOOP('',(#386,#387,#388,#389));
#907=EDGE_LOOP('',(#390,#391,#392,#393));
#908=EDGE_LOOP('',(#394,#395,#396,#397));
#909=EDGE_LOOP('',(#398,#399,#400,#401));
#910=EDGE_LOOP('',(#402,#403,#404,#405));
#911=EDGE_LOOP('',(#406,#407,#408,#409));
#912=EDGE_LOOP('',(#410,#411,#412,#413));
#913=EDGE_LOOP('',(#414,#415,#416,#417));
#914=EDGE_LOOP('',(#418,#419,#420,#421));
#915=EDGE_LOOP('',(#422,#423,#424,#425));
#916=EDGE_LOOP('',(#426));
#917=EDGE_LOOP('',(#427));
#918=EDGE_LOOP('',(#428));
#919=EDGE_LOOP('',(#429));
#920=EDGE_LOOP('',(#430));
#921=EDGE_LOOP('',(#431));
#922=EDGE_LOOP('',(#432));
#923=EDGE_LOOP('',(#433));
#924=EDGE_LOOP('',(#434));
#925=EDGE_LOOP('',(#435));
#926=EDGE_LOOP('',(#436));
#927=EDGE_LOOP('',(#437));
#928=EDGE_LOOP('',(#438));
#929=FACE_BOUND('',#837,.T.);
#930=FACE_BOUND('',#838,.T.);
#931=FACE_BOUND('',#839,.T.);
#932=FACE_BOUND('',#840,.T.);
#933=FACE_BOUND('',#841,.T.);
#934=FACE_BOUND('',#842,.T.);
#935=FACE_BOUND('',#843,.T.);
#936=FACE_BOUND('',#844,.T.);
#937=FACE_BOUND('',#845,.T.);
#938=FACE_BOUND('',#846,.T.);
#939=FACE_BOUND('',#847,.T.);
#940=FACE_BOUND('',#848,.T.);
#941=FACE_BOUND('',#849,.T.);
#942=FACE_BOUND('',#850,.T.);
#943=FACE_BOUND('',#851,.T.);
#944=FACE_BOUND('',#852,.T.);
#945=FACE_BOUND('',#853,.T.);
#946=FACE_BOUND('',#854,.T.);
#947=FACE_BOUND('',#855,.T.);
#948=FACE_BOUND('',#856,.T.);
#949=FACE_BOUND('',#857,.T.);
#950=FACE_BOUND('',#858,.T.);
#951=FACE_BOUND('',#859,.T.);
#952=FACE_BOUND('',#860,.T.);
#953=FACE_BOUND('',#861,.T.);
#954=FACE_BOUND('',#862,.T.);
#955=FACE_BOUND('',#863,.T.);
#956=FACE_BOUND('',#864,.T.);
#957=FACE_BOUND('',#865,.T.);
#958=FACE_BOUND('',#866,.T.);
#959=FACE_BOUND('',#867,.T.);
#960=FACE_BOUND('',#868,.T.);
#961=FACE_BOUND('',#869,.T.);
#962=FACE_BOUND('',#870,.T.);
#963=FACE_BOUND('',#871,.T.);
#964=FACE_BOUND('',#872,.T.);
#965=FACE_BOUND('',#873,.T.);
#966=FACE_BOUND('',#874,.T.);
#967=FACE_BOUND('',#875,.T.);
#968=FACE_BOUND('',#876,.T.);
#969=FACE_BOUND('',#877,.T.);
#970=FACE_BOUND('',#878,.T.);
#971=FACE_BOUND('',#879,.T.);
#972=FACE_BOUND('',#880,.T.);
#973=FACE_BOUND('',#881,.T.);
#974=FACE_BOUND('',#882,.T.);
#975=FACE_BOUND('',#883,.T.);
#976=FACE_BOUND('',#884,.T.);
#977=FACE_BOUND('',#885,.T.);
#978=FACE_BOUND('',#886,.T.);
#979=FACE_BOUND('',#887,.T.);
#980=FACE_BOUND('',#888,.T.);
#981=FACE_BOUND('',#889,.T.);
#982=FACE_BOUND('',#890,.T.);
#983=FACE_BOUND('',#891,.T.);
#984=FACE_BOUND('',#892,.T.);
#985=FACE_BOUND('',#893,.T.);
#986=FACE_BOUND('',#894,.T.);
#987=FACE_BOUND('',#895,.T.);
#988=FACE_BOUND('',#896,.T.);
#989=FACE_BOUND('',#897,.T.);
#990=FACE_BOUND('',#898,.T.);
#991=FACE_BOUND('',#899,.T.);
#992=FACE_BOUND('',#900,.T.);
#993=FACE_BOUND('',#901,.T.);
#994=FACE_BOUND('',#902,.T.);
#995=FACE_BOUND('',#903,.T.);
#996=FACE_BOUND('',#904,.T.);
#997=FACE_BOUND('',#905,.T.);
#998=FACE_BOUND('',#906,.T.);
#999=FACE_BOUND('',#907,.T.);
#1000=FACE_BOUND('',#908,.T.);
#1001=FACE_BOUND('',#909,.T.);
#1002=FACE_BOUND('',#910,.T.);
#1003=FACE_BOUND('',#911,.T.);
#1004=FACE_BOUND('',#912,.T.);
#1005=FACE_BOUND('',#913,.T.);
#1006=FACE_BOUND('',#914,.T.);
#1007=FACE_BOUND('',#915,.T.);
#1008=FACE_BOUND('',#916,.T.);
#1009=FACE_BOUND('',#917,.T.);
#1010=FACE_BOUND('',#918,.T.);
#1011=FACE_BOUND('',#919,.T.);
#1012=FACE_BOUND('',#920,.T.);
#1013=FACE_BOUND('',#921,.T.);
#1014=FACE_BOUND('',#922,.T.);
#1015=FACE_BOUND('',#923,.T.);
#1016=FACE_BOUND('',#924,.T.);
#1017=FACE_BOUND('',#925,.T.);
#1018=FACE_BOUND('',#926,.T.);
#1019=FACE_BOUND('',#927,.T.);
#1020=FACE_BOUND('',#928,.T.);
#1021=PLANE('',#1132);
#1022=PLANE('',#1133);
#1023=PLANE('',#1136);
#1024=PLANE('',#1137);
#1025=PLANE('',#1142);
#1026=PLANE('',#1143);
#1027=PLANE('',#1144);
#1028=PLANE('',#1145);
#1029=PLANE('',#1152);
#1030=PLANE('',#1165);
#1031=PLANE('',#1166);
#1032=PLANE('',#1172);
#1033=PLANE('',#1173);
#1034=PLANE('',#1174);
#1035=PLANE('',#1175);
#1036=PLANE('',#1179);
#1037=PLANE('',#1183);
#1038=PLANE('',#1187);
#1039=PLANE('',#1191);
#1040=PLANE('',#1192);
#1041=PLANE('',#1193);
#1042=PLANE('',#1194);
#1043=PLANE('',#1195);
#1044=PLANE('',#1276);
#1045=ADVANCED_FACE('',(#929),#1021,.F.);
#1046=ADVANCED_FACE('',(#930),#1022,.F.);
#1047=ADVANCED_FACE('',(#931),#1023,.T.);
#1048=ADVANCED_FACE('',(#932,#933),#1024,.T.);
#1049=ADVANCED_FACE('',(#934),#1025,.F.);
#1050=ADVANCED_FACE('',(#935),#1026,.F.);
#1051=ADVANCED_FACE('',(#936),#1027,.T.);
#1052=ADVANCED_FACE('',(#937,#938),#1028,.T.);
#1053=ADVANCED_FACE('',(#939,#940,#941,#942,#943,#944),#1029,.F.);
#1054=ADVANCED_FACE('',(#945),#1030,.F.);
#1055=ADVANCED_FACE('',(#946,#947),#1031,.T.);
#1056=ADVANCED_FACE('',(#948),#1032,.F.);
#1057=ADVANCED_FACE('',(#949),#1033,.T.);
#1058=ADVANCED_FACE('',(#950),#1034,.F.);
#1059=ADVANCED_FACE('',(#951),#1035,.F.);
#1060=ADVANCED_FACE('',(#952,#953),#30,.T.);
#1061=ADVANCED_FACE('',(#954),#1036,.F.);
#1062=ADVANCED_FACE('',(#955,#956),#31,.T.);
#1063=ADVANCED_FACE('',(#957),#1037,.F.);
#1064=ADVANCED_FACE('',(#958,#959),#32,.T.);
#1065=ADVANCED_FACE('',(#960),#1038,.F.);
#1066=ADVANCED_FACE('',(#961,#962),#33,.T.);
#1067=ADVANCED_FACE('',(#963),#1039,.F.);
#1068=ADVANCED_FACE('',(#964),#1040,.F.);
#1069=ADVANCED_FACE('',(#965),#1041,.F.);
#1070=ADVANCED_FACE('',(#966),#1042,.T.);
#1071=ADVANCED_FACE('',(#967),#1043,.T.);
#1072=ADVANCED_FACE('',(#968),#34,.F.);
#1073=ADVANCED_FACE('',(#969),#22,.F.);
#1074=ADVANCED_FACE('',(#970),#35,.F.);
#1075=ADVANCED_FACE('',(#971),#36,.F.);
#1076=ADVANCED_FACE('',(#972),#37,.F.);
#1077=ADVANCED_FACE('',(#973),#38,.F.);
#1078=ADVANCED_FACE('',(#974),#23,.F.);
#1079=ADVANCED_FACE('',(#975),#24,.F.);
#1080=ADVANCED_FACE('',(#976),#39,.F.);
#1081=ADVANCED_FACE('',(#977),#40,.F.);
#1082=ADVANCED_FACE('',(#978),#25,.F.);
#1083=ADVANCED_FACE('',(#979),#41,.F.);
#1084=ADVANCED_FACE('',(#980),#42,.T.);
#1085=ADVANCED_FACE('',(#981),#43,.T.);
#1086=ADVANCED_FACE('',(#982),#44,.T.);
#1087=ADVANCED_FACE('',(#983),#26,.T.);
#1088=ADVANCED_FACE('',(#984),#27,.T.);
#1089=ADVANCED_FACE('',(#985),#45,.T.);
#1090=ADVANCED_FACE('',(#986),#46,.T.);
#1091=ADVANCED_FACE('',(#987),#47,.T.);
#1092=ADVANCED_FACE('',(#988),#48,.T.);
#1093=ADVANCED_FACE('',(#989),#14,.T.);
#1094=ADVANCED_FACE('',(#990),#15,.T.);
#1095=ADVANCED_FACE('',(#991),#49,.F.);
#1096=ADVANCED_FACE('',(#992),#50,.T.);
#1097=ADVANCED_FACE('',(#993),#51,.T.);
#1098=ADVANCED_FACE('',(#994),#52,.T.);
#1099=ADVANCED_FACE('',(#995),#28,.T.);
#1100=ADVANCED_FACE('',(#996),#29,.T.);
#1101=ADVANCED_FACE('',(#997),#53,.T.);
#1102=ADVANCED_FACE('',(#998),#54,.T.);
#1103=ADVANCED_FACE('',(#999),#55,.T.);
#1104=ADVANCED_FACE('',(#1000),#56,.T.);
#1105=ADVANCED_FACE('',(#1001),#16,.T.);
#1106=ADVANCED_FACE('',(#1002),#17,.T.);
#1107=ADVANCED_FACE('',(#1003),#57,.F.);
#1108=ADVANCED_FACE('',(#1004),#58,.F.);
#1109=ADVANCED_FACE('',(#1005),#59,.F.);
#1110=ADVANCED_FACE('',(#1006),#60,.F.);
#1111=ADVANCED_FACE('',(#1007),#61,.F.);
#1112=ADVANCED_FACE('',(#1008,#1009),#18,.F.);
#1113=ADVANCED_FACE('',(#1010,#1011),#19,.F.);
#1114=ADVANCED_FACE('',(#1012,#1013),#20,.F.);
#1115=ADVANCED_FACE('',(#1014,#1015),#21,.F.);
#1116=ADVANCED_FACE('',(#1016),#1044,.T.);
#1117=ADVANCED_FACE('',(#1017,#1018),#12,.T.);
#1118=ADVANCED_FACE('',(#1019,#1020),#13,.F.);
#1119=CLOSED_SHELL('',(#1045,#1046,#1047,#1048,#1049,#1050,#1051,#1052,
#1053,#1054,#1055,#1056,#1057,#1058,#1059,#1060,#1061,#1062,#1063,#1064,
#1065,#1066,#1067,#1068,#1069,#1070,#1071,#1072,#1073,#1074,#1075,#1076,
#1077,#1078,#1079,#1080,#1081,#1082,#1083,#1084,#1085,#1086,#1087,#1088,
#1089,#1090,#1091,#1092,#1093,#1094,#1095,#1096,#1097,#1098,#1099,#1100,
#1101,#1102,#1103,#1104,#1105,#1106,#1107,#1108,#1109,#1110,#1111,#1112,
#1113,#1114,#1115,#1116,#1117,#1118));
#1120=STYLED_ITEM('',(#1121),#1128);
#1121=PRESENTATION_STYLE_ASSIGNMENT((#1122));
#1122=SURFACE_STYLE_USAGE(.BOTH.,#1123);
#1123=SURFACE_SIDE_STYLE('',(#1124));
#1124=SURFACE_STYLE_FILL_AREA(#1125);
#1125=FILL_AREA_STYLE('',(#1126));
#1126=FILL_AREA_STYLE_COLOUR('',#1127);
#1127=COLOUR_RGB('',0.917647058823529,0.917647058823529,0.917647058823529);
#1128=MANIFOLD_SOLID_BREP('Powerbank Container',#1119);
#1129=SHAPE_DEFINITION_REPRESENTATION(#1984,#1130);
#1130=SHAPE_REPRESENTATION('Powerbank Container',(#1131),#1979);
#1131=AXIS2_PLACEMENT_3D('',#1657,#1281,#1282);
#1132=AXIS2_PLACEMENT_3D('',#1658,#1283,#1284);
#1133=AXIS2_PLACEMENT_3D('',#1667,#1289,#1290);
#1134=AXIS2_PLACEMENT_3D('',#1675,#1294,#1295);
#1135=AXIS2_PLACEMENT_3D('',#1683,#1299,#1300);
#1136=AXIS2_PLACEMENT_3D('',#1688,#1303,#1304);
#1137=AXIS2_PLACEMENT_3D('',#1697,#1309,#1310);
#1138=AXIS2_PLACEMENT_3D('',#1701,#1312,#1313);
#1139=AXIS2_PLACEMENT_3D('',#1705,#1315,#1316);
#1140=AXIS2_PLACEMENT_3D('',#1709,#1318,#1319);
#1141=AXIS2_PLACEMENT_3D('',#1713,#1321,#1322);
#1142=AXIS2_PLACEMENT_3D('',#1722,#1327,#1328);
#1143=AXIS2_PLACEMENT_3D('',#1731,#1333,#1334);
#1144=AXIS2_PLACEMENT_3D('',#1740,#1339,#1340);
#1145=AXIS2_PLACEMENT_3D('',#1749,#1345,#1346);
#1146=AXIS2_PLACEMENT_3D('',#1753,#1348,#1349);
#1147=AXIS2_PLACEMENT_3D('',#1757,#1351,#1352);
#1148=AXIS2_PLACEMENT_3D('',#1761,#1354,#1355);
#1149=AXIS2_PLACEMENT_3D('',#1765,#1357,#1358);
#1150=AXIS2_PLACEMENT_3D('',#1773,#1362,#1363);
#1151=AXIS2_PLACEMENT_3D('',#1781,#1367,#1368);
#1152=AXIS2_PLACEMENT_3D('',#1786,#1371,#1372);
#1153=AXIS2_PLACEMENT_3D('',#1787,#1373,#1374);
#1154=AXIS2_PLACEMENT_3D('',#1789,#1375,#1376);
#1155=AXIS2_PLACEMENT_3D('',#1791,#1377,#1378);
#1156=AXIS2_PLACEMENT_3D('',#1793,#1379,#1380);
#1157=AXIS2_PLACEMENT_3D('',#1795,#1381,#1382);
#1158=AXIS2_PLACEMENT_3D('',#1796,#1383,#1384);
#1159=AXIS2_PLACEMENT_3D('',#1797,#1385,#1386);
#1160=AXIS2_PLACEMENT_3D('',#1798,#1387,#1388);
#1161=AXIS2_PLACEMENT_3D('',#1799,#1389,#1390);
#1162=AXIS2_PLACEMENT_3D('',#1800,#1391,#1392);
#1163=AXIS2_PLACEMENT_3D('',#1801,#1393,#1394);
#1164=AXIS2_PLACEMENT_3D('',#1802,#1395,#1396);
#1165=AXIS2_PLACEMENT_3D('',#1803,#1397,#1398);
#1166=AXIS2_PLACEMENT_3D('',#1812,#1403,#1404);
#1167=AXIS2_PLACEMENT_3D('',#1813,#1405,#1406);
#1168=AXIS2_PLACEMENT_3D('',#1815,#1407,#1408);
#1169=AXIS2_PLACEMENT_3D('',#1819,#1410,#1411);
#1170=AXIS2_PLACEMENT_3D('',#1820,#1412,#1413);
#1171=AXIS2_PLACEMENT_3D('',#1824,#1415,#1416);
#1172=AXIS2_PLACEMENT_3D('',#1825,#1417,#1418);
#1173=AXIS2_PLACEMENT_3D('',#1831,#1422,#1423);
#1174=AXIS2_PLACEMENT_3D('',#1837,#1427,#1428);
#1175=AXIS2_PLACEMENT_3D('',#1846,#1433,#1434);
#1176=AXIS2_PLACEMENT_3D('',#1855,#1439,#1440);
#1177=AXIS2_PLACEMENT_3D('',#1856,#1441,#1442);
#1178=AXIS2_PLACEMENT_3D('',#1858,#1443,#1444);
#1179=AXIS2_PLACEMENT_3D('',#1860,#1445,#1446);
#1180=AXIS2_PLACEMENT_3D('',#1861,#1447,#1448);
#1181=AXIS2_PLACEMENT_3D('',#1862,#1449,#1450);
#1182=AXIS2_PLACEMENT_3D('',#1864,#1451,#1452);
#1183=AXIS2_PLACEMENT_3D('',#1866,#1453,#1454);
#1184=AXIS2_PLACEMENT_3D('',#1867,#1455,#1456);
#1185=AXIS2_PLACEMENT_3D('',#1868,#1457,#1458);
#1186=AXIS2_PLACEMENT_3D('',#1870,#1459,#1460);
#1187=AXIS2_PLACEMENT_3D('',#1872,#1461,#1462);
#1188=AXIS2_PLACEMENT_3D('',#1873,#1463,#1464);
#1189=AXIS2_PLACEMENT_3D('',#1874,#1465,#1466);
#1190=AXIS2_PLACEMENT_3D('',#1876,#1467,#1468);
#1191=AXIS2_PLACEMENT_3D('',#1878,#1469,#1470);
#1192=AXIS2_PLACEMENT_3D('',#1879,#1471,#1472);
#1193=AXIS2_PLACEMENT_3D('',#1882,#1475,#1476);
#1194=AXIS2_PLACEMENT_3D('',#1885,#1479,#1480);
#1195=AXIS2_PLACEMENT_3D('',#1888,#1483,#1484);
#1196=AXIS2_PLACEMENT_3D('',#1891,#1487,#1488);
#1197=AXIS2_PLACEMENT_3D('',#1892,#1489,#1490);
#1198=AXIS2_PLACEMENT_3D('',#1893,#1491,#1492);
#1199=AXIS2_PLACEMENT_3D('',#1894,#1493,#1494);
#1200=AXIS2_PLACEMENT_3D('',#1895,#1495,#1496);
#1201=AXIS2_PLACEMENT_3D('',#1896,#1497,#1498);
#1202=AXIS2_PLACEMENT_3D('',#1897,#1499,#1500);
#1203=AXIS2_PLACEMENT_3D('',#1898,#1501,#1502);
#1204=AXIS2_PLACEMENT_3D('',#1899,#1503,#1504);
#1205=AXIS2_PLACEMENT_3D('',#1900,#1505,#1506);
#1206=AXIS2_PLACEMENT_3D('',#1901,#1507,#1508);
#1207=AXIS2_PLACEMENT_3D('',#1902,#1509,#1510);
#1208=AXIS2_PLACEMENT_3D('',#1903,#1511,#1512);
#1209=AXIS2_PLACEMENT_3D('',#1904,#1513,#1514);
#1210=AXIS2_PLACEMENT_3D('',#1905,#1515,#1516);
#1211=AXIS2_PLACEMENT_3D('',#1906,#1517,#1518);
#1212=AXIS2_PLACEMENT_3D('',#1907,#1519,#1520);
#1213=AXIS2_PLACEMENT_3D('',#1908,#1521,#1522);
#1214=AXIS2_PLACEMENT_3D('',#1909,#1523,#1524);
#1215=AXIS2_PLACEMENT_3D('',#1910,#1525,#1526);
#1216=AXIS2_PLACEMENT_3D('',#1911,#1527,#1528);
#1217=AXIS2_PLACEMENT_3D('',#1912,#1529,#1530);
#1218=AXIS2_PLACEMENT_3D('',#1913,#1531,#1532);
#1219=AXIS2_PLACEMENT_3D('',#1914,#1533,#1534);
#1220=AXIS2_PLACEMENT_3D('',#1915,#1535,#1536);
#1221=AXIS2_PLACEMENT_3D('',#1916,#1537,#1538);
#1222=AXIS2_PLACEMENT_3D('',#1917,#1539,#1540);
#1223=AXIS2_PLACEMENT_3D('',#1918,#1541,#1542);
#1224=AXIS2_PLACEMENT_3D('',#1919,#1543,#1544);
#1225=AXIS2_PLACEMENT_3D('',#1920,#1545,#1546);
#1226=AXIS2_PLACEMENT_3D('',#1921,#1547,#1548);
#1227=AXIS2_PLACEMENT_3D('',#1922,#1549,#1550);
#1228=AXIS2_PLACEMENT_3D('',#1923,#1551,#1552);
#1229=AXIS2_PLACEMENT_3D('',#1924,#1553,#1554);
#1230=AXIS2_PLACEMENT_3D('',#1925,#1555,#1556);
#1231=AXIS2_PLACEMENT_3D('',#1926,#1557,#1558);
#1232=AXIS2_PLACEMENT_3D('',#1927,#1559,#1560);
#1233=AXIS2_PLACEMENT_3D('',#1928,#1561,#1562);
#1234=AXIS2_PLACEMENT_3D('',#1929,#1563,#1564);
#1235=AXIS2_PLACEMENT_3D('',#1930,#1565,#1566);
#1236=AXIS2_PLACEMENT_3D('',#1931,#1567,#1568);
#1237=AXIS2_PLACEMENT_3D('',#1932,#1569,#1570);
#1238=AXIS2_PLACEMENT_3D('',#1933,#1571,#1572);
#1239=AXIS2_PLACEMENT_3D('',#1934,#1573,#1574);
#1240=AXIS2_PLACEMENT_3D('',#1935,#1575,#1576);
#1241=AXIS2_PLACEMENT_3D('',#1936,#1577,#1578);
#1242=AXIS2_PLACEMENT_3D('',#1937,#1579,#1580);
#1243=AXIS2_PLACEMENT_3D('',#1938,#1581,#1582);
#1244=AXIS2_PLACEMENT_3D('',#1939,#1583,#1584);
#1245=AXIS2_PLACEMENT_3D('',#1940,#1585,#1586);
#1246=AXIS2_PLACEMENT_3D('',#1941,#1587,#1588);
#1247=AXIS2_PLACEMENT_3D('',#1942,#1589,#1590);
#1248=AXIS2_PLACEMENT_3D('',#1943,#1591,#1592);
#1249=AXIS2_PLACEMENT_3D('',#1944,#1593,#1594);
#1250=AXIS2_PLACEMENT_3D('',#1945,#1595,#1596);
#1251=AXIS2_PLACEMENT_3D('',#1946,#1597,#1598);
#1252=AXIS2_PLACEMENT_3D('',#1947,#1599,#1600);
#1253=AXIS2_PLACEMENT_3D('',#1948,#1601,#1602);
#1254=AXIS2_PLACEMENT_3D('',#1949,#1603,#1604);
#1255=AXIS2_PLACEMENT_3D('',#1950,#1605,#1606);
#1256=AXIS2_PLACEMENT_3D('',#1951,#1607,#1608);
#1257=AXIS2_PLACEMENT_3D('',#1952,#1609,#1610);
#1258=AXIS2_PLACEMENT_3D('',#1953,#1611,#1612);
#1259=AXIS2_PLACEMENT_3D('',#1954,#1613,#1614);
#1260=AXIS2_PLACEMENT_3D('',#1955,#1615,#1616);
#1261=AXIS2_PLACEMENT_3D('',#1956,#1617,#1618);
#1262=AXIS2_PLACEMENT_3D('',#1957,#1619,#1620);
#1263=AXIS2_PLACEMENT_3D('',#1958,#1621,#1622);
#1264=AXIS2_PLACEMENT_3D('',#1959,#1623,#1624);
#1265=AXIS2_PLACEMENT_3D('',#1960,#1625,#1626);
#1266=AXIS2_PLACEMENT_3D('',#1961,#1627,#1628);
#1267=AXIS2_PLACEMENT_3D('',#1962,#1629,#1630);
#1268=AXIS2_PLACEMENT_3D('',#1963,#1631,#1632);
#1269=AXIS2_PLACEMENT_3D('',#1964,#1633,#1634);
#1270=AXIS2_PLACEMENT_3D('',#1965,#1635,#1636);
#1271=AXIS2_PLACEMENT_3D('',#1966,#1637,#1638);
#1272=AXIS2_PLACEMENT_3D('',#1967,#1639,#1640);
#1273=AXIS2_PLACEMENT_3D('',#1968,#1641,#1642);
#1274=AXIS2_PLACEMENT_3D('',#1969,#1643,#1644);
#1275=AXIS2_PLACEMENT_3D('',#1970,#1645,#1646);
#1276=AXIS2_PLACEMENT_3D('',#1971,#1647,#1648);
#1277=AXIS2_PLACEMENT_3D('',#1972,#1649,#1650);
#1278=AXIS2_PLACEMENT_3D('',#1974,#1651,#1652);
#1279=AXIS2_PLACEMENT_3D('',#1975,#1653,#1654);
#1280=AXIS2_PLACEMENT_3D('',#1977,#1655,#1656);
#1281=DIRECTION('',(0.,0.,1.));
#1282=DIRECTION('',(1.,0.,0.));
#1283=DIRECTION('',(0.,-1.,0.));
#1284=DIRECTION('',(0.,0.,-1.));
#1285=DIRECTION('',(-1.,0.,0.));
#1286=DIRECTION('',(0.,0.,-1.));
#1287=DIRECTION('',(-1.,0.,0.));
#1288=DIRECTION('',(0.,0.,-1.));
#1289=DIRECTION('',(1.,1.86279030977375E-16,0.));
#1290=DIRECTION('',(-1.86279030977375E-16,1.,0.));
#1291=DIRECTION('',(-1.25025115385716E-16,1.,0.));
#1292=DIRECTION('',(0.,0.,-1.));
#1293=DIRECTION('',(-1.86279030977375E-16,1.,0.));
#1294=DIRECTION('',(1.,1.86279030977375E-16,0.));
#1295=DIRECTION('',(-1.86279030977375E-16,1.,0.));
#1296=DIRECTION('',(0.,0.,-1.));
#1297=DIRECTION('',(1.86279030977375E-16,-1.,0.));
#1298=DIRECTION('',(0.,0.,-1.));
#1299=DIRECTION('',(1.,1.86279030977375E-16,0.));
#1300=DIRECTION('',(-1.86279030977375E-16,1.,0.));
#1301=DIRECTION('',(-1.86279030977375E-16,1.,0.));
#1302=DIRECTION('',(0.,0.,-1.));
#1303=DIRECTION('',(0.,-1.,0.));
#1304=DIRECTION('',(0.,0.,-1.));
#1305=DIRECTION('',(-1.,0.,0.));
#1306=DIRECTION('',(0.,0.,-1.));
#1307=DIRECTION('',(-1.,0.,0.));
#1308=DIRECTION('',(0.,0.,-1.));
#1309=DIRECTION('',(-1.,0.,0.));
#1310=DIRECTION('',(0.,0.,1.));
#1311=DIRECTION('',(0.,0.,-1.));
#1312=DIRECTION('',(-1.,0.,0.));
#1313=DIRECTION('',(0.,0.,1.));
#1314=DIRECTION('',(0.,-1.,-1.26161707343768E-16));
#1315=DIRECTION('',(-1.,0.,0.));
#1316=DIRECTION('',(0.,0.,1.));
#1317=DIRECTION('',(0.,0.,-1.));
#1318=DIRECTION('',(-1.,0.,0.));
#1319=DIRECTION('',(0.,0.,1.));
#1320=DIRECTION('',(0.,-1.,0.));
#1321=DIRECTION('',(-1.,0.,0.));
#1322=DIRECTION('',(0.,0.,1.));
#1323=DIRECTION('',(0.,1.,0.));
#1324=DIRECTION('',(0.,0.,-1.));
#1325=DIRECTION('',(0.,1.,0.));
#1326=DIRECTION('',(0.,0.,-1.));
#1327=DIRECTION('',(1.50845519650157E-16,-1.,0.));
#1328=DIRECTION('',(1.,1.50845519650157E-16,0.));
#1329=DIRECTION('',(-1.,-1.50845519650157E-16,0.));
#1330=DIRECTION('',(0.,0.,-1.));
#1331=DIRECTION('',(-1.,-1.50845519650157E-16,0.));
#1332=DIRECTION('',(0.,0.,-1.));
#1333=DIRECTION('',(-1.,0.,0.));
#1334=DIRECTION('',(0.,0.,1.));
#1335=DIRECTION('',(0.,1.,0.));
#1336=DIRECTION('',(0.,0.,-1.));
#1337=DIRECTION('',(0.,1.,0.));
#1338=DIRECTION('',(0.,0.,-1.));
#1339=DIRECTION('',(1.50845519650157E-16,-1.,0.));
#1340=DIRECTION('',(1.,1.50845519650157E-16,0.));
#1341=DIRECTION('',(-1.,-1.50845519650157E-16,0.));
#1342=DIRECTION('',(0.,0.,-1.));
#1343=DIRECTION('',(-1.,-1.50845519650157E-16,0.));
#1344=DIRECTION('',(0.,0.,-1.));
#1345=DIRECTION('',(1.,1.86279030977375E-16,0.));
#1346=DIRECTION('',(-1.86279030977375E-16,1.,0.));
#1347=DIRECTION('',(1.86279030977375E-16,-1.,-1.26161707343768E-16));
#1348=DIRECTION('',(1.,1.86279030977375E-16,0.));
#1349=DIRECTION('',(-1.86279030977375E-16,1.,0.));
#1350=DIRECTION('',(0.,0.,-1.));
#1351=DIRECTION('',(1.,1.86279030977375E-16,0.));
#1352=DIRECTION('',(-1.86279030977375E-16,1.,0.));
#1353=DIRECTION('',(1.86279030977375E-16,-1.,0.));
#1354=DIRECTION('',(1.,1.86279030977375E-16,0.));
#1355=DIRECTION('',(-1.86279030977375E-16,1.,0.));
#1356=DIRECTION('',(0.,0.,-1.));
#1357=DIRECTION('',(1.,1.86279030977375E-16,0.));
#1358=DIRECTION('',(-1.86279030977375E-16,1.,0.));
#1359=DIRECTION('',(-1.25025115385716E-16,1.,0.));
#1360=DIRECTION('',(0.,0.,-1.));
#1361=DIRECTION('',(-1.86279030977375E-16,1.,0.));
#1362=DIRECTION('',(1.,1.86279030977375E-16,0.));
#1363=DIRECTION('',(-1.86279030977375E-16,1.,0.));
#1364=DIRECTION('',(0.,0.,-1.));
#1365=DIRECTION('',(1.86279030977375E-16,-1.,0.));
#1366=DIRECTION('',(0.,0.,-1.));
#1367=DIRECTION('',(1.,1.86279030977375E-16,0.));
#1368=DIRECTION('',(-1.86279030977375E-16,1.,0.));
#1369=DIRECTION('',(-1.86279030977375E-16,1.,0.));
#1370=DIRECTION('',(0.,0.,-1.));
#1371=DIRECTION('',(0.,0.,1.));
#1372=DIRECTION('',(1.,0.,0.));
#1373=DIRECTION('',(0.,0.,1.));
#1374=DIRECTION('',(1.,0.,0.));
#1375=DIRECTION('',(0.,0.,1.));
#1376=DIRECTION('',(1.,0.,0.));
#1377=DIRECTION('',(0.,0.,1.));
#1378=DIRECTION('',(1.,0.,0.));
#1379=DIRECTION('',(0.,0.,1.));
#1380=DIRECTION('',(1.,0.,0.));
#1381=DIRECTION('',(0.,0.,1.));
#1382=DIRECTION('',(1.,0.,0.));
#1383=DIRECTION('',(0.,0.,1.));
#1384=DIRECTION('',(1.,0.,0.));
#1385=DIRECTION('',(0.,0.,1.));
#1386=DIRECTION('',(1.,0.,0.));
#1387=DIRECTION('',(0.,0.,1.));
#1388=DIRECTION('',(1.,0.,0.));
#1389=DIRECTION('',(0.,0.,1.));
#1390=DIRECTION('',(1.,0.,0.));
#1391=DIRECTION('',(0.,0.,1.));
#1392=DIRECTION('',(1.,0.,0.));
#1393=DIRECTION('',(0.,0.,1.));
#1394=DIRECTION('',(1.,0.,0.));
#1395=DIRECTION('',(0.,0.,1.));
#1396=DIRECTION('',(1.,0.,0.));
#1397=DIRECTION('',(0.,0.,1.));
#1398=DIRECTION('',(1.,0.,0.));
#1399=DIRECTION('',(-1.86279030977375E-16,1.,0.));
#1400=DIRECTION('',(-1.,0.,0.));
#1401=DIRECTION('',(-1.86279030977375E-16,1.,0.));
#1402=DIRECTION('',(-1.,-1.25025115385716E-16,0.));
#1403=DIRECTION('',(0.,0.,1.));
#1404=DIRECTION('',(1.,0.,0.));
#1405=DIRECTION('',(0.,0.,1.));
#1406=DIRECTION('',(1.,0.,0.));
#1407=DIRECTION('',(0.,0.,1.));
#1408=DIRECTION('',(1.,0.,0.));
#1409=DIRECTION('',(-1.,-1.25025115385716E-16,0.));
#1410=DIRECTION('',(0.,0.,1.));
#1411=DIRECTION('',(1.,0.,0.));
#1412=DIRECTION('',(0.,0.,1.));
#1413=DIRECTION('',(1.,0.,0.));
#1414=DIRECTION('',(-1.,-1.25025115385716E-16,0.));
#1415=DIRECTION('',(0.,0.,1.));
#1416=DIRECTION('',(1.,0.,0.));
#1417=DIRECTION('',(1.25025115385716E-16,-1.,0.));
#1418=DIRECTION('',(1.,1.25025115385716E-16,0.));
#1419=DIRECTION('',(0.,0.,-1.));
#1420=DIRECTION('',(-1.,-1.25025115385716E-16,0.));
#1421=DIRECTION('',(0.,0.,-1.));
#1422=DIRECTION('',(1.25025115385716E-16,-1.,0.));
#1423=DIRECTION('',(1.,1.25025115385716E-16,0.));
#1424=DIRECTION('',(0.,0.,-1.));
#1425=DIRECTION('',(-1.,-1.25025115385716E-16,0.));
#1426=DIRECTION('',(0.,0.,-1.));
#1427=DIRECTION('',(0.,0.,1.));
#1428=DIRECTION('',(1.,0.,0.));
#1429=DIRECTION('',(-1.,-1.25025115385716E-16,0.));
#1430=DIRECTION('',(-1.86279030977375E-16,1.,0.));
#1431=DIRECTION('',(-1.,0.,0.));
#1432=DIRECTION('',(-1.86279030977375E-16,1.,0.));
#1433=DIRECTION('',(0.,0.,1.));
#1434=DIRECTION('',(1.,0.,0.));
#1435=DIRECTION('',(0.,1.,0.));
#1436=DIRECTION('',(-1.,-1.50845519650157E-16,0.));
#1437=DIRECTION('',(0.,1.,0.));
#1438=DIRECTION('',(-1.,-1.50845519650157E-16,0.));
#1439=DIRECTION('',(0.,0.,1.));
#1440=DIRECTION('',(1.,0.,0.));
#1441=DIRECTION('',(0.,0.,1.));
#1442=DIRECTION('',(1.,0.,0.));
#1443=DIRECTION('',(0.,0.,1.));
#1444=DIRECTION('',(1.,0.,0.));
#1445=DIRECTION('',(0.,0.,1.));
#1446=DIRECTION('',(1.,0.,0.));
#1447=DIRECTION('',(0.,0.,1.));
#1448=DIRECTION('',(1.,0.,0.));
#1449=DIRECTION('',(0.,0.,1.));
#1450=DIRECTION('',(1.,0.,0.));
#1451=DIRECTION('',(0.,0.,1.));
#1452=DIRECTION('',(1.,0.,0.));
#1453=DIRECTION('',(0.,0.,1.));
#1454=DIRECTION('',(1.,0.,0.));
#1455=DIRECTION('',(0.,0.,1.));
#1456=DIRECTION('',(1.,0.,0.));
#1457=DIRECTION('',(0.,0.,1.));
#1458=DIRECTION('',(1.,0.,0.));
#1459=DIRECTION('',(0.,0.,1.));
#1460=DIRECTION('',(1.,0.,0.));
#1461=DIRECTION('',(0.,0.,1.));
#1462=DIRECTION('',(1.,0.,0.));
#1463=DIRECTION('',(0.,0.,1.));
#1464=DIRECTION('',(1.,0.,0.));
#1465=DIRECTION('',(0.,0.,1.));
#1466=DIRECTION('',(1.,0.,0.));
#1467=DIRECTION('',(0.,0.,1.));
#1468=DIRECTION('',(1.,0.,0.));
#1469=DIRECTION('',(0.,0.,1.));
#1470=DIRECTION('',(1.,0.,0.));
#1471=DIRECTION('',(2.35012805904482E-32,-1.26161707343768E-16,1.));
#1472=DIRECTION('',(0.,-1.,-1.26161707343768E-16));
#1473=DIRECTION('',(1.,1.86279030977375E-16,0.));
#1474=DIRECTION('',(1.,1.86279030977375E-16,0.));
#1475=DIRECTION('',(1.86279030977375E-16,-1.,0.));
#1476=DIRECTION('',(1.,1.86279030977375E-16,0.));
#1477=DIRECTION('',(1.,1.86279030977375E-16,0.));
#1478=DIRECTION('',(1.,1.86279030977375E-16,0.));
#1479=DIRECTION('',(1.86279030977375E-16,-1.,0.));
#1480=DIRECTION('',(1.,1.86279030977375E-16,0.));
#1481=DIRECTION('',(1.,1.86279030977375E-16,0.));
#1482=DIRECTION('',(1.,1.86279030977375E-16,0.));
#1483=DIRECTION('',(0.,0.,1.));
#1484=DIRECTION('',(1.,0.,0.));
#1485=DIRECTION('',(1.,1.86279030977375E-16,0.));
#1486=DIRECTION('',(1.,1.86279030977375E-16,0.));
#1487=DIRECTION('',(0.,0.,1.));
#1488=DIRECTION('',(1.,0.,0.));
#1489=DIRECTION('',(0.,0.,-1.));
#1490=DIRECTION('',(-1.,0.,0.));
#1491=DIRECTION('',(-1.,0.,0.));
#1492=DIRECTION('',(0.,0.,1.));
#1493=DIRECTION('',(1.,0.,0.));
#1494=DIRECTION('',(0.,0.,-1.));
#1495=DIRECTION('',(0.,1.,0.));
#1496=DIRECTION('',(0.,0.,1.));
#1497=DIRECTION('',(0.,0.,-1.));
#1498=DIRECTION('',(-1.,0.,0.));
#1499=DIRECTION('',(0.,0.,-1.));
#1500=DIRECTION('',(-1.,0.,0.));
#1501=DIRECTION('',(0.,-1.,0.));
#1502=DIRECTION('',(0.,0.,-1.));
#1503=DIRECTION('',(0.,-1.,0.));
#1504=DIRECTION('',(0.,0.,-1.));
#1505=DIRECTION('',(1.,1.50845519650157E-16,0.));
#1506=DIRECTION('',(-1.50845519650157E-16,1.,0.));
#1507=DIRECTION('',(-1.,0.,0.));
#1508=DIRECTION('',(0.,0.,1.));
#1509=DIRECTION('',(0.,0.,-1.));
#1510=DIRECTION('',(-1.,0.,0.));
#1511=DIRECTION('',(0.,0.,-1.));
#1512=DIRECTION('',(-1.,0.,0.));
#1513=DIRECTION('',(-1.,0.,0.));
#1514=DIRECTION('',(0.,0.,1.));
#1515=DIRECTION('',(1.,0.,0.));
#1516=DIRECTION('',(0.,0.,-1.));
#1517=DIRECTION('',(0.,-1.,0.));
#1518=DIRECTION('',(0.,0.,-1.));
#1519=DIRECTION('',(0.,1.,0.));
#1520=DIRECTION('',(0.,0.,1.));
#1521=DIRECTION('',(-1.,-1.50845519650157E-16,0.));
#1522=DIRECTION('',(1.50845519650157E-16,-1.,0.));
#1523=DIRECTION('',(-1.,0.,0.));
#1524=DIRECTION('',(0.,0.,1.));
#1525=DIRECTION('',(0.,1.,0.));
#1526=DIRECTION('',(0.,0.,1.));
#1527=DIRECTION('',(0.,-1.,0.));
#1528=DIRECTION('',(0.,0.,-1.));
#1529=DIRECTION('',(0.,0.,1.));
#1530=DIRECTION('',(1.,0.,0.));
#1531=DIRECTION('',(0.,0.,-1.));
#1532=DIRECTION('',(-1.,0.,0.));
#1533=DIRECTION('',(0.,0.,1.));
#1534=DIRECTION('',(1.,0.,0.));
#1535=DIRECTION('',(0.,0.,1.));
#1536=DIRECTION('',(1.,0.,0.));
#1537=DIRECTION('',(0.,0.,-1.));
#1538=DIRECTION('',(-1.,0.,0.));
#1539=DIRECTION('',(-1.,-1.25025115385716E-16,0.));
#1540=DIRECTION('',(1.25025115385716E-16,-1.,0.));
#1541=DIRECTION('',(-1.,0.,0.));
#1542=DIRECTION('',(0.,0.,1.));
#1543=DIRECTION('',(1.,0.,0.));
#1544=DIRECTION('',(0.,0.,-1.));
#1545=DIRECTION('',(0.,0.,-1.));
#1546=DIRECTION('',(-1.,0.,0.));
#1547=DIRECTION('',(0.,0.,-1.));
#1548=DIRECTION('',(-1.,0.,0.));
#1549=DIRECTION('',(0.,1.,0.));
#1550=DIRECTION('',(0.,0.,1.));
#1551=DIRECTION('',(0.,1.,0.));
#1552=DIRECTION('',(0.,0.,1.));
#1553=DIRECTION('',(0.,1.,0.));
#1554=DIRECTION('',(0.,0.,1.));
#1555=DIRECTION('',(0.,1.,0.));
#1556=DIRECTION('',(0.,0.,1.));
#1557=DIRECTION('',(0.,0.,1.));
#1558=DIRECTION('',(1.,0.,0.));
#1559=DIRECTION('',(0.,0.,1.));
#1560=DIRECTION('',(1.,0.,0.));
#1561=DIRECTION('',(1.86279030977375E-16,-1.,0.));
#1562=DIRECTION('',(1.,1.86279030977375E-16,0.));
#1563=DIRECTION('',(0.,-1.,0.));
#1564=DIRECTION('',(0.,0.,-1.));
#1565=DIRECTION('',(-1.86279030977375E-16,1.,0.));
#1566=DIRECTION('',(-1.,-1.86279030977375E-16,0.));
#1567=DIRECTION('',(0.,-1.,0.));
#1568=DIRECTION('',(0.,0.,-1.));
#1569=DIRECTION('',(0.,0.,-1.));
#1570=DIRECTION('',(-1.,0.,0.));
#1571=DIRECTION('',(0.,0.,1.));
#1572=DIRECTION('',(1.,0.,0.));
#1573=DIRECTION('',(1.,1.86279030977375E-16,0.));
#1574=DIRECTION('',(-1.86279030977375E-16,1.,0.));
#1575=DIRECTION('',(1.,1.86279030977375E-16,0.));
#1576=DIRECTION('',(-1.86279030977375E-16,1.,0.));
#1577=DIRECTION('',(1.,1.86279030977375E-16,0.));
#1578=DIRECTION('',(-1.86279030977375E-16,1.,0.));
#1579=DIRECTION('',(1.,1.86279030977375E-16,0.));
#1580=DIRECTION('',(-1.86279030977375E-16,1.,0.));
#1581=DIRECTION('',(1.,0.,0.));
#1582=DIRECTION('',(0.,0.,-1.));
#1583=DIRECTION('',(0.,0.,-1.));
#1584=DIRECTION('',(-1.,0.,0.));
#1585=DIRECTION('',(0.,0.,-1.));
#1586=DIRECTION('',(-1.,0.,0.));
#1587=DIRECTION('',(0.,0.,1.));
#1588=DIRECTION('',(1.,0.,0.));
#1589=DIRECTION('',(0.,0.,-1.));
#1590=DIRECTION('',(-1.,0.,0.));
#1591=DIRECTION('',(1.,1.25025115385716E-16,0.));
#1592=DIRECTION('',(-1.25025115385716E-16,1.,0.));
#1593=DIRECTION('',(1.,0.,0.));
#1594=DIRECTION('',(0.,0.,-1.));
#1595=DIRECTION('',(-1.,0.,0.));
#1596=DIRECTION('',(0.,0.,1.));
#1597=DIRECTION('',(0.,-1.,0.));
#1598=DIRECTION('',(0.,0.,-1.));
#1599=DIRECTION('',(0.,-1.,0.));
#1600=DIRECTION('',(0.,0.,-1.));
#1601=DIRECTION('',(0.,-1.,0.));
#1602=DIRECTION('',(0.,0.,-1.));
#1603=DIRECTION('',(0.,-1.,0.));
#1604=DIRECTION('',(0.,0.,-1.));
#1605=DIRECTION('',(1.86279030977375E-16,-1.,0.));
#1606=DIRECTION('',(1.,1.86279030977375E-16,0.));
#1607=DIRECTION('',(0.,1.,0.));
#1608=DIRECTION('',(0.,0.,1.));
#1609=DIRECTION('',(0.,0.,-1.));
#1610=DIRECTION('',(-1.,0.,0.));
#1611=DIRECTION('',(0.,0.,1.));
#1612=DIRECTION('',(1.,0.,0.));
#1613=DIRECTION('',(0.,0.,1.));
#1614=DIRECTION('',(1.,0.,0.));
#1615=DIRECTION('',(0.,0.,1.));
#1616=DIRECTION('',(1.,0.,0.));
#1617=DIRECTION('',(-1.86279030977375E-16,1.,0.));
#1618=DIRECTION('',(-1.,-1.86279030977375E-16,0.));
#1619=DIRECTION('',(0.,1.,0.));
#1620=DIRECTION('',(0.,0.,1.));
#1621=DIRECTION('',(1.,1.86279030977375E-16,0.));
#1622=DIRECTION('',(-1.86279030977375E-16,1.,0.));
#1623=DIRECTION('',(1.,1.86279030977375E-16,0.));
#1624=DIRECTION('',(-1.86279030977375E-16,1.,0.));
#1625=DIRECTION('',(1.,1.86279030977375E-16,0.));
#1626=DIRECTION('',(-1.86279030977375E-16,1.,0.));
#1627=DIRECTION('',(1.,1.86279030977375E-16,0.));
#1628=DIRECTION('',(-1.86279030977375E-16,1.,0.));
#1629=DIRECTION('',(-1.,0.,0.));
#1630=DIRECTION('',(0.,0.,1.));
#1631=DIRECTION('',(1.,1.86279030977375E-16,0.));
#1632=DIRECTION('',(-1.86279030977375E-16,1.,0.));
#1633=DIRECTION('',(-1.,-1.86279030977375E-16,0.));
#1634=DIRECTION('',(1.86279030977375E-16,-1.,0.));
#1635=DIRECTION('',(1.,1.86279030977375E-16,0.));
#1636=DIRECTION('',(-1.86279030977375E-16,1.,0.));
#1637=DIRECTION('',(-1.,-1.86279030977375E-16,0.));
#1638=DIRECTION('',(1.86279030977375E-16,-1.,0.));
#1639=DIRECTION('',(0.,0.,1.));
#1640=DIRECTION('',(1.,0.,0.));
#1641=DIRECTION('',(0.,0.,1.));
#1642=DIRECTION('',(1.,0.,0.));
#1643=DIRECTION('',(0.,0.,1.));
#1644=DIRECTION('',(1.,0.,0.));
#1645=DIRECTION('',(0.,0.,1.));
#1646=DIRECTION('',(1.,0.,0.));
#1647=DIRECTION('',(0.,0.,1.));
#1648=DIRECTION('',(1.,0.,0.));
#1649=DIRECTION('',(0.,0.,1.));
#1650=DIRECTION('',(1.,0.,0.));
#1651=DIRECTION('',(0.,0.,-1.));
#1652=DIRECTION('',(-1.,0.,0.));
#1653=DIRECTION('',(0.,0.,1.));
#1654=DIRECTION('',(1.,0.,0.));
#1655=DIRECTION('',(0.,0.,1.));
#1656=DIRECTION('',(1.,0.,0.));
#1657=CARTESIAN_POINT('',(0.,0.,0.));
#1658=CARTESIAN_POINT('',(-6.93889390390723E-18,0.03725,0.057));
#1659=CARTESIAN_POINT('',(-6.93889390390723E-18,0.03725,0.032));
#1660=CARTESIAN_POINT('',(0.0535,0.03725,0.032));
#1661=CARTESIAN_POINT('',(-0.0535,0.03725,0.032));
#1662=CARTESIAN_POINT('',(-0.0535,0.03725,0.057));
#1663=CARTESIAN_POINT('',(-0.0535,0.03725,0.055));
#1664=CARTESIAN_POINT('',(0.0555,0.03725,0.055));
#1665=CARTESIAN_POINT('',(0.0535,0.03725,0.055));
#1666=CARTESIAN_POINT('',(0.0535,0.03725,0.032));
#1667=CARTESIAN_POINT('',(-0.0555,6.93889390390723E-18,0.057));
#1668=CARTESIAN_POINT('',(-0.0555,-6.93889390390723E-18,0.06));
#1669=CARTESIAN_POINT('',(-0.0555,-0.0535,0.06));
#1670=CARTESIAN_POINT('',(-0.0555,0.0535,0.06));
#1671=CARTESIAN_POINT('',(-0.0555,0.0535,0.057));
#1672=CARTESIAN_POINT('',(-0.0555,0.0535,0.059));
#1673=CARTESIAN_POINT('',(-0.0555,6.93889390390723E-18,0.059));
#1674=CARTESIAN_POINT('',(-0.0555,0.03925,0.059));
#1675=CARTESIAN_POINT('',(-0.0555,0.03925,0.055));
#1676=CARTESIAN_POINT('',(-0.0555,0.03525,0.055));
#1677=CARTESIAN_POINT('',(-0.0555,0.03525,0.057));
#1678=CARTESIAN_POINT('',(-0.0555,0.03525,0.032));
#1679=CARTESIAN_POINT('',(-0.0555,6.93889390390723E-18,0.032));
#1680=CARTESIAN_POINT('',(-0.0555,-0.03525,0.032));
#1681=CARTESIAN_POINT('',(-0.0555,-0.03525,0.057));
#1682=CARTESIAN_POINT('',(-0.0555,-0.03525,0.055));
#1683=CARTESIAN_POINT('',(-0.0555,-0.03925,0.055));
#1684=CARTESIAN_POINT('',(-0.0555,-0.03925,0.059));
#1685=CARTESIAN_POINT('',(-0.0555,6.93889390390723E-18,0.059));
#1686=CARTESIAN_POINT('',(-0.0555,-0.0535,0.059));
#1687=CARTESIAN_POINT('',(-0.0555,-0.0535,0.06));
#1688=CARTESIAN_POINT('',(6.93889390390723E-18,-0.03725,0.057));
#1689=CARTESIAN_POINT('',(6.93889390390723E-18,-0.03725,0.055));
#1690=CARTESIAN_POINT('',(0.0535,-0.03725,0.055));
#1691=CARTESIAN_POINT('',(-0.0535,-0.03725,0.055));
#1692=CARTESIAN_POINT('',(-0.0535,-0.03725,0.032));
#1693=CARTESIAN_POINT('',(-0.0535,-0.03725,0.032));
#1694=CARTESIAN_POINT('',(6.93889390390723E-18,-0.03725,0.032));
#1695=CARTESIAN_POINT('',(0.0535,-0.03725,0.032));
#1696=CARTESIAN_POINT('',(0.0535,-0.03725,0.057));
#1697=CARTESIAN_POINT('',(0.046,6.93889390390723E-18,0.057));
#1698=CARTESIAN_POINT('',(0.046,0.0275,0.044));
#1699=CARTESIAN_POINT('',(0.046,0.0275,0.048));
#1700=CARTESIAN_POINT('',(0.046,0.0275,0.04));
#1701=CARTESIAN_POINT('',(0.046,0.0255,0.048));
#1702=CARTESIAN_POINT('',(0.046,0.0255,0.05));
#1703=CARTESIAN_POINT('',(0.046,-1.02690041406898E-17,0.05));
#1704=CARTESIAN_POINT('',(0.046,-0.0255,0.05));
#1705=CARTESIAN_POINT('',(0.046,-0.0255,0.048));
#1706=CARTESIAN_POINT('',(0.046,-0.0275,0.048));
#1707=CARTESIAN_POINT('',(0.046,-0.0275,0.044));
#1708=CARTESIAN_POINT('',(0.046,-0.0275,0.04));
#1709=CARTESIAN_POINT('',(0.046,-0.0255,0.04));
#1710=CARTESIAN_POINT('',(0.046,-0.0255,0.038));
#1711=CARTESIAN_POINT('',(0.046,-1.02690041406898E-17,0.038));
#1712=CARTESIAN_POINT('',(0.046,0.0255,0.038));
#1713=CARTESIAN_POINT('',(0.046,0.0255,0.04));
#1714=CARTESIAN_POINT('',(0.046,6.93889390390723E-18,0.055));
#1715=CARTESIAN_POINT('',(0.046,-0.03,0.055));
#1716=CARTESIAN_POINT('',(0.046,0.03,0.055));
#1717=CARTESIAN_POINT('',(0.046,0.03,0.032));
#1718=CARTESIAN_POINT('',(0.046,0.03,0.032));
#1719=CARTESIAN_POINT('',(0.046,6.93889390390723E-18,0.032));
#1720=CARTESIAN_POINT('',(0.046,-0.03,0.032));
#1721=CARTESIAN_POINT('',(0.046,-0.03,0.057));
#1722=CARTESIAN_POINT('',(0.,-0.032,0.057));
#1723=CARTESIAN_POINT('',(0.,-0.032,0.032));
#1724=CARTESIAN_POINT('',(0.044,-0.032,0.032));
#1725=CARTESIAN_POINT('',(-0.044,-0.032,0.032));
#1726=CARTESIAN_POINT('',(-0.044,-0.032,0.057));
#1727=CARTESIAN_POINT('',(-0.044,-0.032,0.055));
#1728=CARTESIAN_POINT('',(0.046,-0.032,0.055));
#1729=CARTESIAN_POINT('',(0.044,-0.032,0.055));
#1730=CARTESIAN_POINT('',(0.044,-0.032,0.057));
#1731=CARTESIAN_POINT('',(-0.046,-6.93889390390723E-18,0.057));
#1732=CARTESIAN_POINT('',(-0.046,-6.93889390390723E-18,0.032));
#1733=CARTESIAN_POINT('',(-0.046,-0.03,0.032));
#1734=CARTESIAN_POINT('',(-0.046,0.03,0.032));
#1735=CARTESIAN_POINT('',(-0.046,0.03,0.057));
#1736=CARTESIAN_POINT('',(-0.046,0.03,0.055));
#1737=CARTESIAN_POINT('',(-0.046,-0.032,0.055));
#1738=CARTESIAN_POINT('',(-0.046,-0.03,0.055));
#1739=CARTESIAN_POINT('',(-0.046,-0.03,0.032));
#1740=CARTESIAN_POINT('',(0.,0.032,0.057));
#1741=CARTESIAN_POINT('',(0.,0.032,0.032));
#1742=CARTESIAN_POINT('',(0.044,0.032,0.032));
#1743=CARTESIAN_POINT('',(-0.044,0.032,0.032));
#1744=CARTESIAN_POINT('',(0.044,0.032,0.057));
#1745=CARTESIAN_POINT('',(0.044,0.032,0.055));
#1746=CARTESIAN_POINT('',(0.,0.032,0.055));
#1747=CARTESIAN_POINT('',(-0.044,0.032,0.055));
#1748=CARTESIAN_POINT('',(-0.044,0.032,0.057));
#1749=CARTESIAN_POINT('',(0.0555,6.93889390390723E-18,0.057));
#1750=CARTESIAN_POINT('',(0.0555,1.04083408558608E-17,0.05));
#1751=CARTESIAN_POINT('',(0.0555,0.0255,0.05));
#1752=CARTESIAN_POINT('',(0.0555,-0.0255,0.05));
#1753=CARTESIAN_POINT('',(0.0555,0.0255,0.048));
#1754=CARTESIAN_POINT('',(0.0555,0.0275,0.048));
#1755=CARTESIAN_POINT('',(0.0555,0.0275,0.044));
#1756=CARTESIAN_POINT('',(0.0555,0.0275,0.04));
#1757=CARTESIAN_POINT('',(0.0555,0.0255,0.04));
#1758=CARTESIAN_POINT('',(0.0555,0.0255,0.038));
#1759=CARTESIAN_POINT('',(0.0555,1.04083408558608E-17,0.038));
#1760=CARTESIAN_POINT('',(0.0555,-0.0255,0.038));
#1761=CARTESIAN_POINT('',(0.0555,-0.0255,0.04));
#1762=CARTESIAN_POINT('',(0.0555,-0.0275,0.04));
#1763=CARTESIAN_POINT('',(0.0555,-0.0275,0.044));
#1764=CARTESIAN_POINT('',(0.0555,-0.0275,0.048));
#1765=CARTESIAN_POINT('',(0.0555,-0.0255,0.048));
#1766=CARTESIAN_POINT('',(0.0555,-6.93889390390723E-18,0.06));
#1767=CARTESIAN_POINT('',(0.0555,-0.0535,0.06));
#1768=CARTESIAN_POINT('',(0.0555,0.0535,0.06));
#1769=CARTESIAN_POINT('',(0.0555,-0.0535,0.057));
#1770=CARTESIAN_POINT('',(0.0555,-0.0535,0.059));
#1771=CARTESIAN_POINT('',(0.0555,-0.03725,0.059));
#1772=CARTESIAN_POINT('',(0.0555,-0.03925,0.059));
#1773=CARTESIAN_POINT('',(0.0555,-0.03925,0.055));
#1774=CARTESIAN_POINT('',(0.0555,-0.03525,0.055));
#1775=CARTESIAN_POINT('',(0.0555,-0.03525,0.057));
#1776=CARTESIAN_POINT('',(0.0555,-0.03525,0.032));
#1777=CARTESIAN_POINT('',(0.0555,6.93889390390723E-18,0.032));
#1778=CARTESIAN_POINT('',(0.0555,0.03525,0.032));
#1779=CARTESIAN_POINT('',(0.0555,0.03525,0.057));
#1780=CARTESIAN_POINT('',(0.0555,0.03525,0.055));
#1781=CARTESIAN_POINT('',(0.0555,0.03925,0.055));
#1782=CARTESIAN_POINT('',(0.0555,0.03925,0.059));
#1783=CARTESIAN_POINT('',(0.0555,0.0555,0.059));
#1784=CARTESIAN_POINT('',(0.0555,0.0535,0.059));
#1785=CARTESIAN_POINT('',(0.0555,0.0535,0.06));
#1786=CARTESIAN_POINT('',(0.,0.,0.032));
#1787=CARTESIAN_POINT('',(-0.051,-0.03275,0.032));
#1788=CARTESIAN_POINT('',(-0.0477,-0.03275,0.032));
#1789=CARTESIAN_POINT('',(-0.051,0.03275,0.032));
#1790=CARTESIAN_POINT('',(-0.0477,0.03275,0.032));
#1791=CARTESIAN_POINT('',(0.051,0.03275,0.032));
#1792=CARTESIAN_POINT('',(0.0543,0.03275,0.032));
#1793=CARTESIAN_POINT('',(0.051,-0.03275,0.032));
#1794=CARTESIAN_POINT('',(0.0543,-0.03275,0.032));
#1795=CARTESIAN_POINT('',(0.044,-0.03,0.032));
#1796=CARTESIAN_POINT('',(0.044,0.03,0.032));
#1797=CARTESIAN_POINT('',(-0.044,0.03,0.032));
#1798=CARTESIAN_POINT('',(-0.044,-0.03,0.032));
#1799=CARTESIAN_POINT('',(-0.0535,0.03525,0.032));
#1800=CARTESIAN_POINT('',(0.0535,0.03525,0.032));
#1801=CARTESIAN_POINT('',(0.0535,-0.03525,0.032));
#1802=CARTESIAN_POINT('',(-0.0535,-0.03525,0.032));
#1803=CARTESIAN_POINT('',(0.,-6.93889390390723E-18,0.057));
#1804=CARTESIAN_POINT('',(-0.0535,-1.69048220611968E-17,0.057));
#1805=CARTESIAN_POINT('',(-0.0535,-0.0535,0.057));
#1806=CARTESIAN_POINT('',(-0.0535,-0.03925,0.057));
#1807=CARTESIAN_POINT('',(0.,-0.03925,0.057));
#1808=CARTESIAN_POINT('',(0.0535,-0.03925,0.057));
#1809=CARTESIAN_POINT('',(0.0535,-0.0555,0.057));
#1810=CARTESIAN_POINT('',(0.0535,-0.0535,0.057));
#1811=CARTESIAN_POINT('',(-0.0555,-0.0535,0.057));
#1812=CARTESIAN_POINT('',(0.,-6.93889390390723E-18,0.06));
#1813=CARTESIAN_POINT('',(6.93889390390723E-18,0.0085,0.06));
#1814=CARTESIAN_POINT('',(0.00450000000000001,0.0085,0.06));
#1815=CARTESIAN_POINT('',(0.0535,0.0535,0.06));
#1816=CARTESIAN_POINT('',(0.0535,0.0555,0.06));
#1817=CARTESIAN_POINT('',(0.,0.0555,0.06));
#1818=CARTESIAN_POINT('',(-0.0535,0.0555,0.06));
#1819=CARTESIAN_POINT('',(-0.0535,0.0535,0.06));
#1820=CARTESIAN_POINT('',(-0.0535,-0.0535,0.06));
#1821=CARTESIAN_POINT('',(-0.0535,-0.0555,0.06));
#1822=CARTESIAN_POINT('',(0.,-0.0555,0.06));
#1823=CARTESIAN_POINT('',(0.0535,-0.0555,0.06));
#1824=CARTESIAN_POINT('',(0.0535,-0.0535,0.06));
#1825=CARTESIAN_POINT('',(0.,0.0555,0.06));
#1826=CARTESIAN_POINT('',(0.0535,0.0555,0.057));
#1827=CARTESIAN_POINT('',(0.0535,0.0555,0.059));
#1828=CARTESIAN_POINT('',(0.,0.0555,0.059));
#1829=CARTESIAN_POINT('',(-0.0535,0.0555,0.059));
#1830=CARTESIAN_POINT('',(-0.0535,0.0555,0.06));
#1831=CARTESIAN_POINT('',(0.,-0.0555,0.06));
#1832=CARTESIAN_POINT('',(-0.0535,-0.0555,0.057));
#1833=CARTESIAN_POINT('',(-0.0535,-0.0555,0.059));
#1834=CARTESIAN_POINT('',(0.0555,-0.0555,0.059));
#1835=CARTESIAN_POINT('',(0.0535,-0.0555,0.059));
#1836=CARTESIAN_POINT('',(0.0535,-0.0555,0.06));
#1837=CARTESIAN_POINT('',(0.,-6.93889390390723E-18,0.057));
#1838=CARTESIAN_POINT('',(-6.6888436731358E-18,0.0535,0.057));
#1839=CARTESIAN_POINT('',(-0.0535,0.0535,0.057));
#1840=CARTESIAN_POINT('',(0.0535,0.0535,0.057));
#1841=CARTESIAN_POINT('',(0.0535,0.03725,0.057));
#1842=CARTESIAN_POINT('',(0.0535,0.03925,0.057));
#1843=CARTESIAN_POINT('',(-0.0555,0.03925,0.057));
#1844=CARTESIAN_POINT('',(-0.0535,0.03925,0.057));
#1845=CARTESIAN_POINT('',(-0.0535,-1.69048220611968E-17,0.057));
#1846=CARTESIAN_POINT('',(0.,-6.93889390390723E-18,0.057));
#1847=CARTESIAN_POINT('',(-0.044,0.032,0.057));
#1848=CARTESIAN_POINT('',(-0.044,-0.03,0.057));
#1849=CARTESIAN_POINT('',(-0.044,0.03,0.057));
#1850=CARTESIAN_POINT('',(-4.52536558950472E-18,0.03,0.057));
#1851=CARTESIAN_POINT('',(0.044,0.03,0.057));
#1852=CARTESIAN_POINT('',(0.044,-6.93889390390723E-18,0.057));
#1853=CARTESIAN_POINT('',(0.044,-0.03,0.057));
#1854=CARTESIAN_POINT('',(-0.046,-0.03,0.057));
#1855=CARTESIAN_POINT('',(-0.051,0.03275,0.0272));
#1856=CARTESIAN_POINT('',(-0.051,0.03275,0.031));
#1857=CARTESIAN_POINT('',(-0.0487,0.03275,0.031));
#1858=CARTESIAN_POINT('',(-0.051,0.03275,0.0272));
#1859=CARTESIAN_POINT('',(-0.0487,0.03275,0.0272));
#1860=CARTESIAN_POINT('',(0.,0.,0.0272));
#1861=CARTESIAN_POINT('',(-0.051,-0.03275,0.0272));
#1862=CARTESIAN_POINT('',(-0.051,-0.03275,0.031));
#1863=CARTESIAN_POINT('',(-0.0487,-0.03275,0.031));
#1864=CARTESIAN_POINT('',(-0.051,-0.03275,0.0272));
#1865=CARTESIAN_POINT('',(-0.0487,-0.03275,0.0272));
#1866=CARTESIAN_POINT('',(0.,0.,0.0272));
#1867=CARTESIAN_POINT('',(0.051,-0.03275,0.0272));
#1868=CARTESIAN_POINT('',(0.051,-0.03275,0.031));
#1869=CARTESIAN_POINT('',(0.0533,-0.03275,0.031));
#1870=CARTESIAN_POINT('',(0.051,-0.03275,0.0272));
#1871=CARTESIAN_POINT('',(0.0533,-0.03275,0.0272));
#1872=CARTESIAN_POINT('',(0.,0.,0.0272));
#1873=CARTESIAN_POINT('',(0.051,0.03275,0.0272));
#1874=CARTESIAN_POINT('',(0.051,0.03275,0.031));
#1875=CARTESIAN_POINT('',(0.0533,0.03275,0.031));
#1876=CARTESIAN_POINT('',(0.051,0.03275,0.0272));
#1877=CARTESIAN_POINT('',(0.0533,0.03275,0.0272));
#1878=CARTESIAN_POINT('',(0.,0.,0.0272));
#1879=CARTESIAN_POINT('',(-0.055502,-1.02690041406898E-17,0.05));
#1880=CARTESIAN_POINT('',(-0.055502,0.0255,0.05));
#1881=CARTESIAN_POINT('',(0.046,-0.0255,0.05));
#1882=CARTESIAN_POINT('',(-0.055502,-0.0275,0.044));
#1883=CARTESIAN_POINT('',(-0.055502,-0.0275,0.04));
#1884=CARTESIAN_POINT('',(0.0555,-0.0275,0.048));
#1885=CARTESIAN_POINT('',(-0.055502,0.0275,0.044));
#1886=CARTESIAN_POINT('',(-0.055502,0.0275,0.048));
#1887=CARTESIAN_POINT('',(0.0555,0.0275,0.04));
#1888=CARTESIAN_POINT('',(-0.055502,-1.02690041406898E-17,0.038));
#1889=CARTESIAN_POINT('',(0.046,0.0255,0.038));
#1890=CARTESIAN_POINT('',(-0.055502,-0.0255,0.038));
#1891=CARTESIAN_POINT('',(-0.044,-0.03,0.057));
#1892=CARTESIAN_POINT('',(-0.044,-0.03,0.055));
#1893=CARTESIAN_POINT('',(-0.044,-0.03,0.055));
#1894=CARTESIAN_POINT('',(-0.044,-0.03,0.055));
#1895=CARTESIAN_POINT('',(-0.044,-0.03,0.055));
#1896=CARTESIAN_POINT('',(-0.044,0.03,0.057));
#1897=CARTESIAN_POINT('',(-0.044,0.03,0.055));
#1898=CARTESIAN_POINT('',(-0.044,-6.93889390390723E-18,0.055));
#1899=CARTESIAN_POINT('',(-0.044,0.03,0.055));
#1900=CARTESIAN_POINT('',(4.52536558950472E-18,-0.03,0.055));
#1901=CARTESIAN_POINT('',(0.044,-0.03,0.055));
#1902=CARTESIAN_POINT('',(0.044,-0.03,0.057));
#1903=CARTESIAN_POINT('',(0.044,-0.03,0.055));
#1904=CARTESIAN_POINT('',(-0.044,0.03,0.055));
#1905=CARTESIAN_POINT('',(-0.044,0.03,0.055));
#1906=CARTESIAN_POINT('',(0.044,-0.03,0.055));
#1907=CARTESIAN_POINT('',(0.044,-0.03,0.055));
#1908=CARTESIAN_POINT('',(3.01691039300315E-19,0.03,0.055));
#1909=CARTESIAN_POINT('',(0.044,0.03,0.055));
#1910=CARTESIAN_POINT('',(0.044,6.93889390390723E-18,0.055));
#1911=CARTESIAN_POINT('',(0.044,0.03,0.055));
#1912=CARTESIAN_POINT('',(0.044,0.03,0.055));
#1913=CARTESIAN_POINT('',(0.044,0.03,0.055));
#1914=CARTESIAN_POINT('',(0.044,0.03,0.057));
#1915=CARTESIAN_POINT('',(0.0535,0.0535,0.06));
#1916=CARTESIAN_POINT('',(0.0535,0.0535,0.059));
#1917=CARTESIAN_POINT('',(2.50050230771432E-19,0.0535,0.059));
#1918=CARTESIAN_POINT('',(-0.0535,0.0535,0.059));
#1919=CARTESIAN_POINT('',(0.0535,0.0535,0.059));
#1920=CARTESIAN_POINT('',(-0.0535,0.0535,0.057));
#1921=CARTESIAN_POINT('',(-0.0535,0.0535,0.059));
#1922=CARTESIAN_POINT('',(0.0535,0.0535,0.059));
#1923=CARTESIAN_POINT('',(0.0535,0.0535,0.059));
#1924=CARTESIAN_POINT('',(-0.0535,0.0535,0.059));
#1925=CARTESIAN_POINT('',(-0.0535,0.0535,0.059));
#1926=CARTESIAN_POINT('',(0.0535,0.03525,0.057));
#1927=CARTESIAN_POINT('',(0.0535,0.03525,0.055));
#1928=CARTESIAN_POINT('',(0.0535,6.56633584195248E-18,0.059));
#1929=CARTESIAN_POINT('',(0.0535,0.03925,0.059));
#1930=CARTESIAN_POINT('',(-0.0535,-1.69048220611968E-17,0.059));
#1931=CARTESIAN_POINT('',(-0.0535,0.03925,0.059));
#1932=CARTESIAN_POINT('',(-0.0535,0.03525,0.057));
#1933=CARTESIAN_POINT('',(-0.0535,0.03525,0.055));
#1934=CARTESIAN_POINT('',(0.0535,0.03925,0.055));
#1935=CARTESIAN_POINT('',(0.0535,0.03925,0.055));
#1936=CARTESIAN_POINT('',(-0.0535,0.03925,0.055));
#1937=CARTESIAN_POINT('',(-0.0535,0.03925,0.055));
#1938=CARTESIAN_POINT('',(0.,0.03925,0.055));
#1939=CARTESIAN_POINT('',(0.0535,-0.0535,0.057));
#1940=CARTESIAN_POINT('',(0.0535,-0.0535,0.059));
#1941=CARTESIAN_POINT('',(-0.0535,-0.0535,0.06));
#1942=CARTESIAN_POINT('',(-0.0535,-0.0535,0.059));
#1943=CARTESIAN_POINT('',(6.6888436731358E-18,-0.0535,0.059));
#1944=CARTESIAN_POINT('',(0.0535,-0.0535,0.059));
#1945=CARTESIAN_POINT('',(-0.0535,-0.0535,0.059));
#1946=CARTESIAN_POINT('',(0.0535,-0.0535,0.059));
#1947=CARTESIAN_POINT('',(0.0535,-0.0535,0.059));
#1948=CARTESIAN_POINT('',(-0.0535,-0.0535,0.059));
#1949=CARTESIAN_POINT('',(-0.0535,-0.0535,0.059));
#1950=CARTESIAN_POINT('',(0.0535,6.56633584195248E-18,0.059));
#1951=CARTESIAN_POINT('',(0.0535,-0.03925,0.059));
#1952=CARTESIAN_POINT('',(0.0535,-0.03525,0.057));
#1953=CARTESIAN_POINT('',(0.0535,-0.03525,0.055));
#1954=CARTESIAN_POINT('',(-0.0535,-0.03525,0.057));
#1955=CARTESIAN_POINT('',(-0.0535,-0.03525,0.055));
#1956=CARTESIAN_POINT('',(-0.0535,-1.69048220611968E-17,0.059));
#1957=CARTESIAN_POINT('',(-0.0535,-0.03925,0.059));
#1958=CARTESIAN_POINT('',(0.0535,-0.03925,0.055));
#1959=CARTESIAN_POINT('',(0.0535,-0.03925,0.055));
#1960=CARTESIAN_POINT('',(-0.0535,-0.03925,0.055));
#1961=CARTESIAN_POINT('',(-0.0535,-0.03925,0.055));
#1962=CARTESIAN_POINT('',(6.93889390390723E-18,-0.03925,0.055));
#1963=CARTESIAN_POINT('',(-0.055502,0.0255,0.048));
#1964=CARTESIAN_POINT('',(-0.055502,0.0255,0.04));
#1965=CARTESIAN_POINT('',(-0.055502,-0.0255,0.04));
#1966=CARTESIAN_POINT('',(-0.055502,-0.0255,0.048));
#1967=CARTESIAN_POINT('',(-0.051,-0.03275,0.031));
#1968=CARTESIAN_POINT('',(-0.051,0.03275,0.031));
#1969=CARTESIAN_POINT('',(0.051,0.03275,0.031));
#1970=CARTESIAN_POINT('',(0.051,-0.03275,0.031));
#1971=CARTESIAN_POINT('',(0.,-6.93889390390723E-18,0.06));
#1972=CARTESIAN_POINT('',(6.93889390390723E-18,0.0085,0.06));
#1973=CARTESIAN_POINT('',(0.00350000000000001,0.0085,0.06));
#1974=CARTESIAN_POINT('',(6.93889390390723E-18,0.0085,0.06));
#1975=CARTESIAN_POINT('',(6.93889390390723E-18,0.0085,0.0595));
#1976=CARTESIAN_POINT('',(0.00400000000000001,0.0085,0.0595));
#1977=CARTESIAN_POINT('',(6.93889390390723E-18,0.0085,0.0595));
#1978=MECHANICAL_DESIGN_GEOMETRIC_PRESENTATION_REPRESENTATION('',(#1120),
#1979);
#1979=(
GEOMETRIC_REPRESENTATION_CONTEXT(3)
GLOBAL_UNCERTAINTY_ASSIGNED_CONTEXT((#1980))
GLOBAL_UNIT_ASSIGNED_CONTEXT((#1983,#1982,#1981))
REPRESENTATION_CONTEXT('Powerbank Container','TOP_LEVEL_ASSEMBLY_PART')
);
#1980=UNCERTAINTY_MEASURE_WITH_UNIT(LENGTH_MEASURE(1.E-8),#1983,
'DISTANCE_ACCURACY_VALUE','Maximum Tolerance applied to model');
#1981=(
NAMED_UNIT(*)
SI_UNIT($,.STERADIAN.)
SOLID_ANGLE_UNIT()
);
#1982=(
NAMED_UNIT(*)
PLANE_ANGLE_UNIT()
SI_UNIT($,.RADIAN.)
);
#1983=(
LENGTH_UNIT()
NAMED_UNIT(*)
SI_UNIT($,.METRE.)
);
#1984=PRODUCT_DEFINITION_SHAPE('','',#1985);
#1985=PRODUCT_DEFINITION('','',#1987,#1986);
#1986=PRODUCT_DEFINITION_CONTEXT('',#1993,'design');
#1987=PRODUCT_DEFINITION_FORMATION_WITH_SPECIFIED_SOURCE('','',#1989,
 .NOT_KNOWN.);
#1988=PRODUCT_RELATED_PRODUCT_CATEGORY('','',(#1989));
#1989=PRODUCT('Powerbank Container','Powerbank Container',
'Powerbank Container',(#1991));
#1990=PRODUCT_CATEGORY('','');
#1991=PRODUCT_CONTEXT('',#1993,'mechanical');
#1992=APPLICATION_PROTOCOL_DEFINITION('international standard',
'ap242_managed_model_based_3d_engineering',2020,#1993);
#1993=APPLICATION_CONTEXT('managed model based 3d engineering');
ENDSEC;
END-ISO-10303-21;
